G75*
%MOIN*%
%OFA0B0*%
%FSLAX25Y25*%
%IPPOS*%
%LPD*%
%AMOC8*
5,1,8,0,0,1.08239X$1,22.5*
%
%ADD10C,0.06400*%
%ADD11C,0.05600*%
%ADD12C,0.07400*%
%ADD13R,0.05906X0.05906*%
%ADD14R,0.04331X0.03937*%
%ADD15R,0.04134X0.02559*%
%ADD16C,0.01200*%
%ADD17C,0.01000*%
%ADD18C,0.14000*%
D10*
X0028000Y0064000D03*
X0028000Y0074000D03*
X0028000Y0084000D03*
X0038000Y0084000D03*
X0038000Y0074000D03*
X0038000Y0064000D03*
D11*
X0048492Y0062465D03*
X0048492Y0069984D03*
X0048492Y0087504D03*
X0048492Y0094000D03*
X0017508Y0094000D03*
X0017508Y0077504D03*
X0017508Y0066992D03*
X0017508Y0036480D03*
D12*
X0018500Y0022500D03*
X0028500Y0022500D03*
X0038500Y0022500D03*
X0048500Y0022500D03*
D13*
X0044000Y0032610D03*
X0044000Y0046390D03*
D14*
X0053000Y0038846D03*
X0053000Y0032154D03*
D15*
X0033669Y0042988D03*
X0033669Y0054012D03*
X0017331Y0054012D03*
X0017331Y0042988D03*
D16*
X0013508Y0034823D02*
X0013508Y0079161D01*
X0017508Y0083161D01*
X0017508Y0094000D01*
X0044000Y0046390D02*
X0051110Y0046390D01*
X0053000Y0044500D01*
X0053000Y0038846D01*
X0056365Y0036381D02*
X0056365Y0079631D01*
X0048492Y0087504D01*
X0033669Y0042988D02*
X0038500Y0038157D01*
X0038500Y0031000D01*
X0042390Y0031000D01*
X0044000Y0032610D01*
X0038500Y0031000D02*
X0038500Y0022500D01*
X0028500Y0022500D02*
X0018520Y0032480D01*
X0015851Y0032480D01*
X0013508Y0034823D01*
X0048500Y0022500D02*
X0053000Y0027000D01*
X0053000Y0031000D01*
X0053000Y0032154D01*
X0053000Y0033016D01*
X0056365Y0036381D01*
D17*
X0048492Y0062465D02*
X0046957Y0064000D01*
X0038000Y0064000D01*
X0038000Y0074000D02*
X0044476Y0074000D01*
X0048492Y0069984D01*
X0038000Y0084000D02*
X0032300Y0078300D01*
X0032300Y0072219D01*
X0029781Y0069700D01*
X0023700Y0069700D01*
X0020992Y0066992D01*
X0017508Y0066992D01*
X0017331Y0066815D01*
X0017331Y0054012D01*
X0033669Y0054012D01*
X0033669Y0042988D02*
X0017331Y0042988D01*
X0021012Y0074000D02*
X0017508Y0077504D01*
X0021012Y0074000D02*
X0028000Y0074000D01*
X0028000Y0084000D02*
X0038000Y0094000D01*
X0048492Y0094000D01*
D18*
X0010500Y0010500D03*
X0056500Y0010500D03*
X0056500Y0103500D03*
X0010000Y0103500D03*
M02*
