G75*
%MOIN*%
%OFA0B0*%
%FSLAX25Y25*%
%IPPOS*%
%LPD*%
%AMOC8*
5,1,8,0,0,1.08239X$1,22.5*
%
%ADD10R,0.08858X0.03543*%
%ADD11R,0.11024X0.03543*%
%ADD12R,0.03543X0.02756*%
%ADD13R,0.04331X0.03937*%
%ADD14R,0.02165X0.04724*%
%ADD15R,0.05000X0.10000*%
%ADD16R,0.03150X0.01378*%
%ADD17R,0.03937X0.04331*%
%ADD18R,0.04724X0.02165*%
%ADD19R,0.03150X0.03543*%
D10*
X0173302Y0094703D03*
X0173302Y0104742D03*
X0173302Y0109663D03*
X0194365Y0109663D03*
X0194365Y0104742D03*
X0194365Y0099624D03*
X0194365Y0094703D03*
D11*
X0174385Y0099624D03*
D12*
X0186333Y0082492D03*
X0186333Y0077374D03*
X0192833Y0117624D03*
X0197583Y0117624D03*
X0197583Y0122742D03*
X0192833Y0122742D03*
X0186333Y0131374D03*
X0186333Y0136492D03*
X0168833Y0125492D03*
X0168833Y0120374D03*
D13*
X0170333Y0132837D03*
X0179333Y0132837D03*
X0179333Y0139530D03*
X0170333Y0139530D03*
D14*
X0191593Y0139551D03*
X0195333Y0139551D03*
X0199073Y0139551D03*
X0199073Y0129315D03*
X0195333Y0129315D03*
X0191593Y0129315D03*
D15*
X0194333Y0066433D03*
X0187333Y0066433D03*
X0180833Y0066433D03*
X0173833Y0066433D03*
D16*
X0174593Y0077374D03*
X0174593Y0079933D03*
X0174593Y0082492D03*
X0182073Y0082492D03*
X0182073Y0077374D03*
D17*
X0169333Y0076587D03*
X0169333Y0083280D03*
D18*
X0174215Y0117693D03*
X0174215Y0121433D03*
X0174215Y0125173D03*
X0184451Y0125173D03*
X0184451Y0121433D03*
X0184451Y0117693D03*
D19*
X0192093Y0083870D03*
X0199573Y0083870D03*
X0195833Y0075602D03*
M02*
