<?xml version="1.0" encoding="UTF-8"?>
<svg xmlns="http://www.w3.org/2000/svg" xmlns:xlink="http://www.w3.org/1999/xlink" width="26pt" height="63pt" viewBox="0 0 26 63" version="1.1">
<g id="surface21377">
<path style=" stroke:none;fill-rule:evenodd;fill:rgb(100%,49.803922%,45.098039%);fill-opacity:1;" d="M 20.988281 35.3125 L 23.539063 35.3125 L 23.539063 33.328125 L 20.988281 33.328125 Z "/>
<path style=" stroke:none;fill-rule:evenodd;fill:rgb(100%,49.803922%,45.098039%);fill-opacity:1;" d="M 20.988281 38.996094 L 23.539063 38.996094 L 23.539063 37.011719 L 20.988281 37.011719 Z "/>
<path style=" stroke:none;fill-rule:evenodd;fill:rgb(100%,49.803922%,45.098039%);fill-opacity:1;" d="M 3.878906 16.171875 L 6.714844 16.171875 L 6.714844 14.753906 L 3.878906 14.753906 Z "/>
<path style=" stroke:none;fill-rule:evenodd;fill:rgb(100%,49.803922%,45.098039%);fill-opacity:1;" d="M 3.878906 19.773438 L 6.714844 19.773438 L 6.714844 18.355469 L 3.878906 18.355469 Z "/>
<path style=" stroke:none;fill-rule:evenodd;fill:rgb(100%,49.803922%,45.098039%);fill-opacity:1;" d="M 3.878906 23.371094 L 6.714844 23.371094 L 6.714844 21.953125 L 3.878906 21.953125 Z "/>
<path style=" stroke:none;fill-rule:evenodd;fill:rgb(100%,49.803922%,45.098039%);fill-opacity:1;" d="M 3.878906 26.972656 L 6.714844 26.972656 L 6.714844 25.554688 L 3.878906 25.554688 Z "/>
<path style=" stroke:none;fill-rule:evenodd;fill:rgb(100%,49.803922%,45.098039%);fill-opacity:1;" d="M 3.878906 12.570313 L 6.714844 12.570313 L 6.714844 11.152344 L 3.878906 11.152344 Z "/>
<path style=" stroke:none;fill-rule:evenodd;fill:rgb(100%,49.803922%,45.098039%);fill-opacity:1;" d="M 3.878906 8.972656 L 6.714844 8.972656 L 6.714844 7.554688 L 3.878906 7.554688 Z "/>
<path style=" stroke:none;fill-rule:evenodd;fill:rgb(100%,49.803922%,45.098039%);fill-opacity:1;" d="M 3.878906 5.371094 L 6.714844 5.371094 L 6.714844 3.953125 L 3.878906 3.953125 Z "/>
<path style=" stroke:none;fill-rule:evenodd;fill:rgb(100%,49.803922%,45.098039%);fill-opacity:1;" d="M 20.175781 5.371094 L 23.011719 5.371094 L 23.011719 3.953125 L 20.175781 3.953125 Z "/>
<path style=" stroke:none;fill-rule:evenodd;fill:rgb(100%,49.803922%,45.098039%);fill-opacity:1;" d="M 20.175781 8.972656 L 23.011719 8.972656 L 23.011719 7.554688 L 20.175781 7.554688 Z "/>
<path style=" stroke:none;fill-rule:evenodd;fill:rgb(100%,49.803922%,45.098039%);fill-opacity:1;" d="M 20.175781 12.570313 L 23.011719 12.570313 L 23.011719 11.152344 L 20.175781 11.152344 Z "/>
<path style=" stroke:none;fill-rule:evenodd;fill:rgb(100%,49.803922%,45.098039%);fill-opacity:1;" d="M 20.175781 16.171875 L 23.011719 16.171875 L 23.011719 14.753906 L 20.175781 14.753906 Z "/>
<path style=" stroke:none;fill-rule:evenodd;fill:rgb(100%,49.803922%,45.098039%);fill-opacity:1;" d="M 20.175781 19.773438 L 23.011719 19.773438 L 23.011719 18.355469 L 20.175781 18.355469 Z "/>
<path style=" stroke:none;fill-rule:evenodd;fill:rgb(100%,49.803922%,45.098039%);fill-opacity:1;" d="M 20.175781 23.371094 L 23.011719 23.371094 L 23.011719 21.953125 L 20.175781 21.953125 Z "/>
<path style=" stroke:none;fill-rule:evenodd;fill:rgb(100%,49.803922%,45.098039%);fill-opacity:1;" d="M 20.175781 26.972656 L 23.011719 26.972656 L 23.011719 25.554688 L 20.175781 25.554688 Z "/>
<path style=" stroke:none;fill-rule:evenodd;fill:rgb(100%,49.803922%,45.098039%);fill-opacity:1;" d="M 22.214844 31.136719 L 24.199219 31.136719 L 24.199219 28.585938 L 22.214844 28.585938 Z "/>
<path style=" stroke:none;fill-rule:evenodd;fill:rgb(100%,49.803922%,45.098039%);fill-opacity:1;" d="M 18.53125 31.136719 L 20.515625 31.136719 L 20.515625 28.585938 L 18.53125 28.585938 Z "/>
<path style=" stroke:none;fill-rule:evenodd;fill:rgb(100%,49.803922%,45.098039%);fill-opacity:1;" d="M 22.828125 60.101563 L 25.664063 60.101563 L 25.664063 52.902344 L 22.828125 52.902344 Z "/>
<path style=" stroke:none;fill-rule:evenodd;fill:rgb(100%,49.803922%,45.098039%);fill-opacity:1;" d="M 18.507813 60.101563 L 21.34375 60.101563 L 21.34375 52.902344 L 18.507813 52.902344 Z "/>
<path style=" stroke:none;fill-rule:evenodd;fill:rgb(100%,49.803922%,45.098039%);fill-opacity:1;" d="M 14.1875 60.101563 L 17.023438 60.101563 L 17.023438 52.902344 L 14.1875 52.902344 Z "/>
<path style=" stroke:none;fill-rule:evenodd;fill:rgb(100%,49.803922%,45.098039%);fill-opacity:1;" d="M 5.546875 60.101563 L 8.382813 60.101563 L 8.382813 52.902344 L 5.546875 52.902344 Z "/>
<path style=" stroke:none;fill-rule:evenodd;fill:rgb(100%,49.803922%,45.098039%);fill-opacity:1;" d="M 9.867188 60.101563 L 12.703125 60.101563 L 12.703125 52.902344 L 9.867188 52.902344 Z "/>
<path style=" stroke:none;fill-rule:evenodd;fill:rgb(100%,49.803922%,45.098039%);fill-opacity:1;" d="M 1.226563 60.101563 L 4.0625 60.101563 L 4.0625 52.902344 L 1.226563 52.902344 Z "/>
<path style=" stroke:none;fill-rule:evenodd;fill:rgb(100%,49.803922%,45.098039%);fill-opacity:1;" d="M 3.234375 32.625 L 4.933594 32.625 L 4.933594 29.222656 L 3.234375 29.222656 Z "/>
<path style=" stroke:none;fill-rule:evenodd;fill:rgb(100%,49.803922%,45.098039%);fill-opacity:1;" d="M 6.835938 32.625 L 8.535156 32.625 L 8.535156 29.222656 L 6.835938 29.222656 Z "/>
<path style=" stroke:none;fill-rule:evenodd;fill:rgb(100%,49.803922%,45.098039%);fill-opacity:1;" d="M 10.433594 32.625 L 12.132813 32.625 L 12.132813 29.222656 L 10.433594 29.222656 Z "/>
<path style=" stroke:none;fill-rule:evenodd;fill:rgb(100%,49.803922%,45.098039%);fill-opacity:1;" d="M 14.035156 32.625 L 15.734375 32.625 L 15.734375 29.222656 L 14.035156 29.222656 Z "/>
<path style=" stroke:none;fill-rule:evenodd;fill:rgb(100%,49.803922%,45.098039%);fill-opacity:1;" d="M 14.035156 48.5 L 15.734375 48.5 L 15.734375 45.097656 L 14.035156 45.097656 Z "/>
<path style=" stroke:none;fill-rule:evenodd;fill:rgb(100%,49.803922%,45.098039%);fill-opacity:1;" d="M 10.433594 48.5 L 12.132813 48.5 L 12.132813 45.097656 L 10.433594 45.097656 Z "/>
<path style=" stroke:none;fill-rule:evenodd;fill:rgb(100%,49.803922%,45.098039%);fill-opacity:1;" d="M 6.835938 48.5 L 8.535156 48.5 L 8.535156 45.097656 L 6.835938 45.097656 Z "/>
<path style=" stroke:none;fill-rule:evenodd;fill:rgb(100%,49.803922%,45.098039%);fill-opacity:1;" d="M 3.234375 48.5 L 4.933594 48.5 L 4.933594 45.097656 L 3.234375 45.097656 Z "/>
<path style=" stroke:none;fill-rule:evenodd;fill:rgb(100%,49.803922%,45.098039%);fill-opacity:1;" d="M 23.542969 4.285156 L 25.667969 4.285156 L 25.667969 2.160156 L 23.542969 2.160156 Z "/>
<path style=" stroke:none;fill-rule:evenodd;fill:rgb(100%,49.803922%,45.098039%);fill-opacity:1;" d="M 1.222656 4.285156 L 3.347656 4.285156 L 3.347656 2.160156 L 1.222656 2.160156 Z "/>
<path style=" stroke:none;fill-rule:evenodd;fill:rgb(100%,49.803922%,45.098039%);fill-opacity:1;" d="M 23.542969 16.164063 L 25.667969 16.164063 L 25.667969 14.039063 L 23.542969 14.039063 Z "/>
<path style=" stroke:none;fill-rule:evenodd;fill:rgb(100%,49.803922%,45.098039%);fill-opacity:1;" d="M 1.222656 26.964844 L 3.347656 26.964844 L 3.347656 24.839844 L 1.222656 24.839844 Z "/>
<path style=" stroke:none;fill-rule:evenodd;fill:rgb(100%,49.803922%,45.098039%);fill-opacity:1;" d="M 23.542969 23.726563 L 25.667969 23.726563 L 25.667969 21.601563 L 23.542969 21.601563 Z "/>
<path style=" stroke:none;fill-rule:evenodd;fill:rgb(100%,49.803922%,45.098039%);fill-opacity:1;" d="M 1.222656 21.566406 L 3.347656 21.566406 L 3.347656 19.441406 L 1.222656 19.441406 Z "/>
<path style=" stroke:none;fill-rule:evenodd;fill:rgb(100%,49.803922%,45.098039%);fill-opacity:1;" d="M 23.542969 45.6875 L 25.667969 45.6875 L 25.667969 43.5625 L 23.542969 43.5625 Z "/>
<path style=" stroke:none;fill-rule:evenodd;fill:rgb(100%,49.803922%,45.098039%);fill-opacity:1;" d="M 1.222656 8.964844 L 3.347656 8.964844 L 3.347656 6.839844 L 1.222656 6.839844 Z "/>
<path style=" stroke:none;fill-rule:evenodd;fill:rgb(100%,49.803922%,45.098039%);fill-opacity:1;" d="M 9.253906 52.019531 L 11.238281 52.019531 L 11.238281 49.46875 L 9.253906 49.46875 Z "/>
<path style=" stroke:none;fill-rule:evenodd;fill:rgb(100%,49.803922%,45.098039%);fill-opacity:1;" d="M 5.570313 52.019531 L 7.554688 52.019531 L 7.554688 49.46875 L 5.570313 49.46875 Z "/>
<path style=" stroke:none;fill-rule:evenodd;fill:rgb(100%,49.803922%,45.098039%);fill-opacity:1;" d="M 14.210938 52.019531 L 16.195313 52.019531 L 16.195313 49.46875 L 14.210938 49.46875 Z "/>
<path style=" stroke:none;fill-rule:evenodd;fill:rgb(100%,49.803922%,45.098039%);fill-opacity:1;" d="M 17.894531 52.019531 L 19.878906 52.019531 L 19.878906 49.46875 L 17.894531 49.46875 Z "/>
<path style=" stroke:none;fill-rule:evenodd;fill:rgb(100%,49.803922%,45.098039%);fill-opacity:1;" d="M 17.371094 45.730469 L 23.707031 45.730469 L 23.707031 39.898438 L 17.371094 39.898438 Z "/>
</g>
</svg>
