%
M48
M72
T01C0.03543
T02C0.03937
T03C0.04000
%
T01
X86000Y26000
X96000Y26000
X96000Y36000
X86000Y36000
X86000Y46000
X96000Y46000
T02
X60685Y36000
X21315Y36000
T03
X11000Y11000
X21000Y11000
X31000Y11000
X41000Y11000
X51000Y11000
X61000Y11000
X71000Y11000
X71000Y61000
X61000Y61000
X51000Y61000
X41000Y61000
X31000Y61000
X21000Y61000
X11000Y61000
M30
