G75*
%MOIN*%
%OFA0B0*%
%FSLAX25Y25*%
%IPPOS*%
%LPD*%
%AMOC8*
5,1,8,0,0,1.08239X$1,22.5*
%
%ADD10C,0.01000*%
%ADD11C,0.00500*%
%ADD12C,0.00600*%
%ADD13R,0.02000X0.02000*%
%ADD14C,0.00800*%
%ADD15R,0.03937X0.03937*%
%ADD16C,0.00787*%
D10*
X0012000Y0025500D02*
X0014222Y0025500D01*
X0013111Y0025500D02*
X0013111Y0029500D01*
X0012000Y0028611D01*
X0077500Y0055000D02*
X0077500Y0059000D01*
X0078611Y0059000D01*
X0078669Y0058998D01*
X0078727Y0058992D01*
X0078784Y0058983D01*
X0078841Y0058970D01*
X0078897Y0058953D01*
X0078951Y0058932D01*
X0079004Y0058908D01*
X0079055Y0058881D01*
X0079105Y0058850D01*
X0079152Y0058816D01*
X0079197Y0058779D01*
X0079240Y0058740D01*
X0079279Y0058697D01*
X0079316Y0058652D01*
X0079350Y0058605D01*
X0079381Y0058556D01*
X0079408Y0058504D01*
X0079432Y0058451D01*
X0079453Y0058397D01*
X0079470Y0058341D01*
X0079483Y0058284D01*
X0079492Y0058227D01*
X0079498Y0058169D01*
X0079500Y0058111D01*
X0079498Y0058053D01*
X0079492Y0057995D01*
X0079483Y0057938D01*
X0079470Y0057881D01*
X0079453Y0057825D01*
X0079432Y0057771D01*
X0079408Y0057718D01*
X0079381Y0057667D01*
X0079350Y0057617D01*
X0079316Y0057570D01*
X0079279Y0057525D01*
X0079240Y0057482D01*
X0079197Y0057443D01*
X0079152Y0057406D01*
X0079105Y0057372D01*
X0079056Y0057341D01*
X0079004Y0057314D01*
X0078951Y0057290D01*
X0078897Y0057269D01*
X0078841Y0057252D01*
X0078784Y0057239D01*
X0078727Y0057230D01*
X0078669Y0057224D01*
X0078611Y0057222D01*
X0077500Y0057222D01*
X0078611Y0057222D02*
X0078677Y0057220D01*
X0078742Y0057214D01*
X0078808Y0057204D01*
X0078872Y0057191D01*
X0078935Y0057174D01*
X0078998Y0057152D01*
X0079059Y0057128D01*
X0079118Y0057099D01*
X0079176Y0057068D01*
X0079232Y0057032D01*
X0079285Y0056994D01*
X0079336Y0056953D01*
X0079385Y0056908D01*
X0079431Y0056861D01*
X0079474Y0056811D01*
X0079514Y0056759D01*
X0079550Y0056704D01*
X0079584Y0056647D01*
X0079614Y0056589D01*
X0079641Y0056529D01*
X0079663Y0056467D01*
X0079683Y0056404D01*
X0079698Y0056340D01*
X0079710Y0056275D01*
X0079718Y0056210D01*
X0079722Y0056144D01*
X0079722Y0056078D01*
X0079718Y0056012D01*
X0079710Y0055947D01*
X0079698Y0055882D01*
X0079683Y0055818D01*
X0079663Y0055755D01*
X0079641Y0055693D01*
X0079614Y0055633D01*
X0079584Y0055575D01*
X0079550Y0055518D01*
X0079514Y0055463D01*
X0079474Y0055411D01*
X0079431Y0055361D01*
X0079385Y0055314D01*
X0079336Y0055269D01*
X0079285Y0055228D01*
X0079232Y0055190D01*
X0079176Y0055154D01*
X0079118Y0055123D01*
X0079059Y0055094D01*
X0078998Y0055070D01*
X0078935Y0055048D01*
X0078872Y0055031D01*
X0078808Y0055018D01*
X0078742Y0055008D01*
X0078677Y0055002D01*
X0078611Y0055000D01*
X0077500Y0055000D01*
X0081851Y0055000D02*
X0081851Y0057667D01*
X0083185Y0057667D01*
X0083185Y0057222D01*
X0084806Y0056778D02*
X0084806Y0055667D01*
X0084805Y0055667D02*
X0084807Y0055617D01*
X0084812Y0055568D01*
X0084822Y0055519D01*
X0084835Y0055470D01*
X0084851Y0055423D01*
X0084871Y0055378D01*
X0084894Y0055334D01*
X0084921Y0055291D01*
X0084951Y0055251D01*
X0084983Y0055213D01*
X0085018Y0055178D01*
X0085056Y0055146D01*
X0085096Y0055116D01*
X0085139Y0055089D01*
X0085183Y0055066D01*
X0085228Y0055046D01*
X0085275Y0055030D01*
X0085324Y0055017D01*
X0085373Y0055007D01*
X0085422Y0055002D01*
X0085472Y0055000D01*
X0086583Y0055000D01*
X0086583Y0056333D02*
X0084806Y0056333D01*
X0084805Y0056778D02*
X0084807Y0056836D01*
X0084813Y0056894D01*
X0084822Y0056951D01*
X0084835Y0057008D01*
X0084852Y0057064D01*
X0084873Y0057118D01*
X0084897Y0057171D01*
X0084924Y0057223D01*
X0084955Y0057272D01*
X0084989Y0057319D01*
X0085026Y0057364D01*
X0085065Y0057407D01*
X0085108Y0057446D01*
X0085153Y0057483D01*
X0085200Y0057517D01*
X0085250Y0057548D01*
X0085301Y0057575D01*
X0085354Y0057599D01*
X0085408Y0057620D01*
X0085464Y0057637D01*
X0085521Y0057650D01*
X0085578Y0057659D01*
X0085636Y0057665D01*
X0085694Y0057667D01*
X0085752Y0057665D01*
X0085810Y0057659D01*
X0085867Y0057650D01*
X0085924Y0057637D01*
X0085980Y0057620D01*
X0086034Y0057599D01*
X0086087Y0057575D01*
X0086139Y0057548D01*
X0086188Y0057517D01*
X0086235Y0057483D01*
X0086280Y0057446D01*
X0086323Y0057407D01*
X0086362Y0057364D01*
X0086399Y0057319D01*
X0086433Y0057272D01*
X0086464Y0057223D01*
X0086491Y0057171D01*
X0086515Y0057118D01*
X0086536Y0057064D01*
X0086553Y0057008D01*
X0086566Y0056951D01*
X0086575Y0056894D01*
X0086581Y0056836D01*
X0086583Y0056778D01*
X0086583Y0056333D01*
X0088887Y0057667D02*
X0089776Y0057667D01*
X0089826Y0057665D01*
X0089875Y0057660D01*
X0089924Y0057650D01*
X0089973Y0057637D01*
X0090020Y0057621D01*
X0090065Y0057601D01*
X0090110Y0057578D01*
X0090152Y0057551D01*
X0090192Y0057521D01*
X0090230Y0057489D01*
X0090265Y0057454D01*
X0090297Y0057416D01*
X0090327Y0057376D01*
X0090354Y0057334D01*
X0090377Y0057289D01*
X0090397Y0057244D01*
X0090413Y0057197D01*
X0090426Y0057148D01*
X0090436Y0057099D01*
X0090441Y0057050D01*
X0090443Y0057000D01*
X0090443Y0055000D01*
X0089443Y0055000D01*
X0089387Y0055002D01*
X0089332Y0055008D01*
X0089278Y0055018D01*
X0089224Y0055032D01*
X0089171Y0055049D01*
X0089120Y0055070D01*
X0089070Y0055095D01*
X0089022Y0055124D01*
X0088977Y0055155D01*
X0088934Y0055190D01*
X0088893Y0055228D01*
X0088855Y0055269D01*
X0088820Y0055312D01*
X0088789Y0055357D01*
X0088760Y0055405D01*
X0088735Y0055455D01*
X0088714Y0055506D01*
X0088697Y0055559D01*
X0088683Y0055613D01*
X0088673Y0055667D01*
X0088667Y0055722D01*
X0088665Y0055778D01*
X0088667Y0055834D01*
X0088673Y0055889D01*
X0088683Y0055943D01*
X0088697Y0055997D01*
X0088714Y0056050D01*
X0088735Y0056101D01*
X0088760Y0056151D01*
X0088789Y0056199D01*
X0088820Y0056244D01*
X0088855Y0056287D01*
X0088893Y0056328D01*
X0088934Y0056366D01*
X0088977Y0056401D01*
X0089022Y0056432D01*
X0089070Y0056461D01*
X0089120Y0056486D01*
X0089171Y0056507D01*
X0089224Y0056524D01*
X0089278Y0056538D01*
X0089332Y0056548D01*
X0089387Y0056554D01*
X0089443Y0056556D01*
X0090443Y0056556D01*
X0092999Y0056333D02*
X0094777Y0057667D01*
X0093777Y0056889D02*
X0094777Y0055000D01*
X0096655Y0055889D02*
X0096655Y0056778D01*
X0096657Y0056836D01*
X0096663Y0056894D01*
X0096672Y0056951D01*
X0096685Y0057008D01*
X0096702Y0057064D01*
X0096723Y0057118D01*
X0096747Y0057171D01*
X0096774Y0057223D01*
X0096805Y0057272D01*
X0096839Y0057319D01*
X0096876Y0057364D01*
X0096915Y0057407D01*
X0096958Y0057446D01*
X0097003Y0057483D01*
X0097050Y0057517D01*
X0097100Y0057548D01*
X0097151Y0057575D01*
X0097204Y0057599D01*
X0097258Y0057620D01*
X0097314Y0057637D01*
X0097371Y0057650D01*
X0097428Y0057659D01*
X0097486Y0057665D01*
X0097544Y0057667D01*
X0097602Y0057665D01*
X0097660Y0057659D01*
X0097717Y0057650D01*
X0097774Y0057637D01*
X0097830Y0057620D01*
X0097884Y0057599D01*
X0097937Y0057575D01*
X0097989Y0057548D01*
X0098038Y0057517D01*
X0098085Y0057483D01*
X0098130Y0057446D01*
X0098173Y0057407D01*
X0098212Y0057364D01*
X0098249Y0057319D01*
X0098283Y0057272D01*
X0098314Y0057223D01*
X0098341Y0057171D01*
X0098365Y0057118D01*
X0098386Y0057064D01*
X0098403Y0057008D01*
X0098416Y0056951D01*
X0098425Y0056894D01*
X0098431Y0056836D01*
X0098433Y0056778D01*
X0098433Y0055889D01*
X0098431Y0055831D01*
X0098425Y0055773D01*
X0098416Y0055716D01*
X0098403Y0055659D01*
X0098386Y0055603D01*
X0098365Y0055549D01*
X0098341Y0055496D01*
X0098314Y0055445D01*
X0098283Y0055395D01*
X0098249Y0055348D01*
X0098212Y0055303D01*
X0098173Y0055260D01*
X0098130Y0055221D01*
X0098085Y0055184D01*
X0098038Y0055150D01*
X0097989Y0055119D01*
X0097937Y0055092D01*
X0097884Y0055068D01*
X0097830Y0055047D01*
X0097774Y0055030D01*
X0097717Y0055017D01*
X0097660Y0055008D01*
X0097602Y0055002D01*
X0097544Y0055000D01*
X0097486Y0055002D01*
X0097428Y0055008D01*
X0097371Y0055017D01*
X0097314Y0055030D01*
X0097258Y0055047D01*
X0097204Y0055068D01*
X0097151Y0055092D01*
X0097100Y0055119D01*
X0097050Y0055150D01*
X0097003Y0055184D01*
X0096958Y0055221D01*
X0096915Y0055260D01*
X0096876Y0055303D01*
X0096839Y0055348D01*
X0096805Y0055395D01*
X0096774Y0055445D01*
X0096747Y0055496D01*
X0096723Y0055549D01*
X0096702Y0055603D01*
X0096685Y0055659D01*
X0096672Y0055716D01*
X0096663Y0055773D01*
X0096657Y0055831D01*
X0096655Y0055889D01*
X0092999Y0055000D02*
X0092999Y0059000D01*
X0093450Y0062500D02*
X0092339Y0062500D01*
X0092289Y0062502D01*
X0092240Y0062507D01*
X0092191Y0062517D01*
X0092142Y0062530D01*
X0092095Y0062546D01*
X0092050Y0062566D01*
X0092006Y0062589D01*
X0091963Y0062616D01*
X0091923Y0062646D01*
X0091885Y0062678D01*
X0091850Y0062713D01*
X0091818Y0062751D01*
X0091788Y0062791D01*
X0091761Y0062834D01*
X0091738Y0062878D01*
X0091718Y0062923D01*
X0091702Y0062970D01*
X0091689Y0063019D01*
X0091679Y0063068D01*
X0091674Y0063117D01*
X0091672Y0063167D01*
X0091672Y0064278D01*
X0091672Y0063833D02*
X0093450Y0063833D01*
X0093450Y0064278D01*
X0093448Y0064336D01*
X0093442Y0064394D01*
X0093433Y0064451D01*
X0093420Y0064508D01*
X0093403Y0064564D01*
X0093382Y0064618D01*
X0093358Y0064671D01*
X0093331Y0064723D01*
X0093300Y0064772D01*
X0093266Y0064819D01*
X0093229Y0064864D01*
X0093190Y0064907D01*
X0093147Y0064946D01*
X0093102Y0064983D01*
X0093055Y0065017D01*
X0093006Y0065048D01*
X0092954Y0065075D01*
X0092901Y0065099D01*
X0092847Y0065120D01*
X0092791Y0065137D01*
X0092734Y0065150D01*
X0092677Y0065159D01*
X0092619Y0065165D01*
X0092561Y0065167D01*
X0092503Y0065165D01*
X0092445Y0065159D01*
X0092388Y0065150D01*
X0092331Y0065137D01*
X0092275Y0065120D01*
X0092221Y0065099D01*
X0092168Y0065075D01*
X0092117Y0065048D01*
X0092067Y0065017D01*
X0092020Y0064983D01*
X0091975Y0064946D01*
X0091932Y0064907D01*
X0091893Y0064864D01*
X0091856Y0064819D01*
X0091822Y0064772D01*
X0091791Y0064723D01*
X0091764Y0064671D01*
X0091740Y0064618D01*
X0091719Y0064564D01*
X0091702Y0064508D01*
X0091689Y0064451D01*
X0091680Y0064394D01*
X0091674Y0064336D01*
X0091672Y0064278D01*
X0089700Y0065167D02*
X0088811Y0062500D01*
X0087922Y0065167D01*
X0086111Y0065167D02*
X0086111Y0062500D01*
X0084000Y0062500D02*
X0084000Y0064500D01*
X0083998Y0064550D01*
X0083993Y0064599D01*
X0083983Y0064648D01*
X0083970Y0064697D01*
X0083954Y0064744D01*
X0083934Y0064789D01*
X0083911Y0064834D01*
X0083884Y0064876D01*
X0083854Y0064916D01*
X0083822Y0064954D01*
X0083787Y0064989D01*
X0083749Y0065021D01*
X0083709Y0065051D01*
X0083667Y0065078D01*
X0083622Y0065101D01*
X0083577Y0065121D01*
X0083530Y0065137D01*
X0083481Y0065150D01*
X0083432Y0065160D01*
X0083383Y0065165D01*
X0083333Y0065167D01*
X0082222Y0065167D01*
X0082222Y0062500D01*
X0079722Y0063611D02*
X0079722Y0066500D01*
X0077500Y0066500D02*
X0077500Y0063611D01*
X0077502Y0063545D01*
X0077508Y0063480D01*
X0077518Y0063414D01*
X0077531Y0063350D01*
X0077548Y0063287D01*
X0077570Y0063224D01*
X0077594Y0063163D01*
X0077623Y0063104D01*
X0077654Y0063046D01*
X0077690Y0062990D01*
X0077728Y0062937D01*
X0077769Y0062886D01*
X0077814Y0062837D01*
X0077861Y0062791D01*
X0077911Y0062748D01*
X0077963Y0062708D01*
X0078018Y0062672D01*
X0078075Y0062638D01*
X0078133Y0062608D01*
X0078193Y0062581D01*
X0078255Y0062559D01*
X0078318Y0062539D01*
X0078382Y0062524D01*
X0078447Y0062512D01*
X0078512Y0062504D01*
X0078578Y0062500D01*
X0078644Y0062500D01*
X0078710Y0062504D01*
X0078775Y0062512D01*
X0078840Y0062524D01*
X0078904Y0062539D01*
X0078967Y0062559D01*
X0079029Y0062581D01*
X0079089Y0062608D01*
X0079147Y0062638D01*
X0079204Y0062672D01*
X0079259Y0062708D01*
X0079311Y0062748D01*
X0079361Y0062791D01*
X0079408Y0062837D01*
X0079453Y0062886D01*
X0079494Y0062937D01*
X0079532Y0062990D01*
X0079568Y0063046D01*
X0079599Y0063104D01*
X0079628Y0063163D01*
X0079652Y0063224D01*
X0079674Y0063287D01*
X0079691Y0063350D01*
X0079704Y0063414D01*
X0079714Y0063480D01*
X0079720Y0063545D01*
X0079722Y0063611D01*
X0086000Y0066278D02*
X0086222Y0066278D01*
X0086222Y0066500D01*
X0086000Y0066500D01*
X0086000Y0066278D01*
X0095768Y0065167D02*
X0095768Y0062500D01*
X0097101Y0064722D02*
X0097101Y0065167D01*
X0095768Y0065167D01*
X0099055Y0064056D02*
X0100167Y0063611D01*
X0100210Y0063592D01*
X0100251Y0063569D01*
X0100290Y0063543D01*
X0100327Y0063514D01*
X0100362Y0063482D01*
X0100393Y0063447D01*
X0100422Y0063410D01*
X0100448Y0063371D01*
X0100470Y0063329D01*
X0100489Y0063286D01*
X0100505Y0063242D01*
X0100516Y0063196D01*
X0100524Y0063150D01*
X0100528Y0063103D01*
X0100529Y0063056D01*
X0100525Y0063009D01*
X0100518Y0062963D01*
X0100507Y0062917D01*
X0100492Y0062873D01*
X0100474Y0062829D01*
X0100452Y0062788D01*
X0100427Y0062748D01*
X0100398Y0062711D01*
X0100367Y0062676D01*
X0100333Y0062643D01*
X0100296Y0062614D01*
X0100258Y0062587D01*
X0100217Y0062564D01*
X0100174Y0062544D01*
X0100130Y0062528D01*
X0100085Y0062515D01*
X0100038Y0062506D01*
X0099992Y0062501D01*
X0099945Y0062500D01*
X0100278Y0064944D02*
X0100192Y0064981D01*
X0100104Y0065015D01*
X0100016Y0065045D01*
X0099926Y0065073D01*
X0099835Y0065096D01*
X0099744Y0065117D01*
X0099651Y0065134D01*
X0099559Y0065147D01*
X0099465Y0065157D01*
X0099372Y0065164D01*
X0099278Y0065167D01*
X0099277Y0065167D02*
X0099230Y0065166D01*
X0099184Y0065161D01*
X0099137Y0065152D01*
X0099092Y0065139D01*
X0099048Y0065123D01*
X0099005Y0065103D01*
X0098964Y0065080D01*
X0098926Y0065053D01*
X0098889Y0065024D01*
X0098855Y0064991D01*
X0098824Y0064956D01*
X0098795Y0064919D01*
X0098770Y0064879D01*
X0098748Y0064838D01*
X0098730Y0064794D01*
X0098715Y0064750D01*
X0098704Y0064704D01*
X0098697Y0064658D01*
X0098693Y0064611D01*
X0098694Y0064564D01*
X0098698Y0064517D01*
X0098706Y0064471D01*
X0098717Y0064425D01*
X0098733Y0064381D01*
X0098752Y0064338D01*
X0098774Y0064296D01*
X0098800Y0064257D01*
X0098829Y0064220D01*
X0098860Y0064185D01*
X0098895Y0064153D01*
X0098932Y0064124D01*
X0098971Y0064098D01*
X0099012Y0064075D01*
X0099055Y0064056D01*
X0098722Y0062722D02*
X0098829Y0062685D01*
X0098938Y0062651D01*
X0099047Y0062621D01*
X0099157Y0062594D01*
X0099268Y0062570D01*
X0099380Y0062550D01*
X0099492Y0062533D01*
X0099605Y0062520D01*
X0099717Y0062509D01*
X0099831Y0062503D01*
X0099944Y0062499D01*
X0103359Y0062500D02*
X0104359Y0062500D01*
X0104359Y0064500D01*
X0104359Y0064056D02*
X0103359Y0064056D01*
X0104360Y0064500D02*
X0104358Y0064550D01*
X0104353Y0064599D01*
X0104343Y0064648D01*
X0104330Y0064697D01*
X0104314Y0064744D01*
X0104294Y0064789D01*
X0104271Y0064834D01*
X0104244Y0064876D01*
X0104214Y0064916D01*
X0104182Y0064954D01*
X0104147Y0064989D01*
X0104109Y0065021D01*
X0104069Y0065051D01*
X0104027Y0065078D01*
X0103982Y0065101D01*
X0103937Y0065121D01*
X0103890Y0065137D01*
X0103841Y0065150D01*
X0103792Y0065160D01*
X0103743Y0065165D01*
X0103693Y0065167D01*
X0102804Y0065167D01*
X0103359Y0064056D02*
X0103303Y0064054D01*
X0103248Y0064048D01*
X0103194Y0064038D01*
X0103140Y0064024D01*
X0103087Y0064007D01*
X0103036Y0063986D01*
X0102986Y0063961D01*
X0102938Y0063932D01*
X0102893Y0063901D01*
X0102850Y0063866D01*
X0102809Y0063828D01*
X0102771Y0063787D01*
X0102736Y0063744D01*
X0102705Y0063699D01*
X0102676Y0063651D01*
X0102651Y0063601D01*
X0102630Y0063550D01*
X0102613Y0063497D01*
X0102599Y0063443D01*
X0102589Y0063389D01*
X0102583Y0063334D01*
X0102581Y0063278D01*
X0102583Y0063222D01*
X0102589Y0063167D01*
X0102599Y0063113D01*
X0102613Y0063059D01*
X0102630Y0063006D01*
X0102651Y0062955D01*
X0102676Y0062905D01*
X0102705Y0062857D01*
X0102736Y0062812D01*
X0102771Y0062769D01*
X0102809Y0062728D01*
X0102850Y0062690D01*
X0102893Y0062655D01*
X0102938Y0062624D01*
X0102986Y0062595D01*
X0103036Y0062570D01*
X0103087Y0062549D01*
X0103140Y0062532D01*
X0103194Y0062518D01*
X0103248Y0062508D01*
X0103303Y0062502D01*
X0103359Y0062500D01*
X0106663Y0063167D02*
X0106663Y0066500D01*
X0106662Y0063167D02*
X0106664Y0063117D01*
X0106669Y0063068D01*
X0106679Y0063019D01*
X0106692Y0062970D01*
X0106708Y0062923D01*
X0106728Y0062878D01*
X0106751Y0062834D01*
X0106778Y0062791D01*
X0106808Y0062751D01*
X0106840Y0062713D01*
X0106875Y0062678D01*
X0106913Y0062646D01*
X0106953Y0062616D01*
X0106996Y0062589D01*
X0107040Y0062566D01*
X0107085Y0062546D01*
X0107132Y0062530D01*
X0107181Y0062517D01*
X0107230Y0062507D01*
X0107279Y0062502D01*
X0107329Y0062500D01*
X0104759Y0059000D02*
X0104759Y0055667D01*
X0104758Y0055667D02*
X0104760Y0055617D01*
X0104765Y0055568D01*
X0104775Y0055519D01*
X0104788Y0055470D01*
X0104804Y0055423D01*
X0104824Y0055378D01*
X0104847Y0055333D01*
X0104874Y0055291D01*
X0104904Y0055251D01*
X0104936Y0055213D01*
X0104971Y0055178D01*
X0105009Y0055146D01*
X0105049Y0055116D01*
X0105092Y0055089D01*
X0105136Y0055066D01*
X0105181Y0055046D01*
X0105228Y0055030D01*
X0105277Y0055017D01*
X0105326Y0055007D01*
X0105375Y0055002D01*
X0105425Y0055000D01*
X0105647Y0055000D01*
X0102483Y0055000D02*
X0102483Y0057667D01*
X0104314Y0057667D02*
X0105647Y0057667D01*
X0102483Y0055000D02*
X0101372Y0055000D01*
X0101322Y0055002D01*
X0101273Y0055007D01*
X0101224Y0055017D01*
X0101175Y0055030D01*
X0101128Y0055046D01*
X0101083Y0055066D01*
X0101039Y0055089D01*
X0100996Y0055116D01*
X0100956Y0055146D01*
X0100918Y0055178D01*
X0100883Y0055213D01*
X0100851Y0055251D01*
X0100821Y0055291D01*
X0100794Y0055334D01*
X0100771Y0055378D01*
X0100751Y0055423D01*
X0100735Y0055470D01*
X0100722Y0055519D01*
X0100712Y0055568D01*
X0100707Y0055617D01*
X0100705Y0055667D01*
X0100705Y0057667D01*
D11*
X0098000Y0051000D02*
X0101000Y0048000D01*
X0101000Y0043000D01*
X0099000Y0041000D01*
X0101000Y0039000D01*
X0101000Y0033000D01*
X0099000Y0031000D01*
X0101000Y0029000D01*
X0101000Y0024000D01*
X0098000Y0021000D01*
X0084000Y0021000D01*
X0081000Y0024000D01*
X0081000Y0029000D01*
X0083000Y0031000D01*
X0081000Y0033000D01*
X0081000Y0039000D01*
X0083000Y0041000D01*
X0081000Y0043000D01*
X0081000Y0048000D01*
X0084000Y0051000D01*
X0098000Y0051000D01*
D12*
X0008500Y0006000D02*
X0006000Y0008500D01*
X0006000Y0013500D01*
X0008500Y0016000D01*
X0013500Y0016000D01*
X0016000Y0013500D01*
X0018500Y0016000D01*
X0023500Y0016000D01*
X0026000Y0013500D01*
X0028500Y0016000D01*
X0033500Y0016000D01*
X0036000Y0013500D01*
X0038500Y0016000D01*
X0043500Y0016000D01*
X0046000Y0013500D01*
X0048500Y0016000D01*
X0053500Y0016000D01*
X0056000Y0013500D01*
X0058500Y0016000D01*
X0063500Y0016000D01*
X0066000Y0013500D01*
X0068500Y0016000D01*
X0073500Y0016000D01*
X0076000Y0013500D01*
X0076000Y0008500D01*
X0073500Y0006000D01*
X0068500Y0006000D01*
X0066000Y0008500D01*
X0063500Y0006000D01*
X0058500Y0006000D01*
X0056000Y0008500D01*
X0056000Y0013500D01*
X0056000Y0008500D02*
X0053500Y0006000D01*
X0048500Y0006000D01*
X0046000Y0008500D01*
X0043500Y0006000D01*
X0038500Y0006000D01*
X0036000Y0008500D01*
X0033500Y0006000D01*
X0028500Y0006000D01*
X0026000Y0008500D01*
X0026000Y0013500D01*
X0026000Y0008500D02*
X0023500Y0006000D01*
X0018500Y0006000D01*
X0016000Y0008500D01*
X0013500Y0006000D01*
X0008500Y0006000D01*
X0016000Y0008500D02*
X0016000Y0013500D01*
X0009504Y0023205D02*
X0009504Y0029110D01*
X0008520Y0029110D01*
X0009504Y0029110D02*
X0011472Y0029110D01*
X0011472Y0024189D01*
X0028205Y0024189D01*
X0028205Y0025173D01*
X0030173Y0025173D01*
X0030173Y0024189D01*
X0037063Y0024189D01*
X0037063Y0023205D01*
X0009504Y0023205D01*
X0011472Y0029110D02*
X0011472Y0033047D01*
X0009504Y0033047D01*
X0009504Y0048795D01*
X0072496Y0048795D01*
X0072496Y0042890D01*
X0073480Y0042890D01*
X0072496Y0042890D02*
X0070528Y0042890D01*
X0070528Y0047811D01*
X0065606Y0047811D01*
X0065606Y0046827D01*
X0063638Y0046827D01*
X0063638Y0047811D01*
X0057732Y0047811D01*
X0057732Y0046827D01*
X0055764Y0046827D01*
X0055764Y0047811D01*
X0049858Y0047811D01*
X0049858Y0046827D01*
X0047890Y0046827D01*
X0047890Y0047811D01*
X0041984Y0047811D01*
X0041984Y0046827D01*
X0040016Y0046827D01*
X0040016Y0047811D01*
X0034110Y0047811D01*
X0034110Y0046827D01*
X0032142Y0046827D01*
X0032142Y0047811D01*
X0026236Y0047811D01*
X0026236Y0046827D01*
X0024268Y0046827D01*
X0024268Y0047811D01*
X0018362Y0047811D01*
X0018362Y0046827D01*
X0016394Y0046827D01*
X0016394Y0047811D01*
X0011472Y0047811D01*
X0011472Y0033047D01*
X0009504Y0033047D02*
X0008520Y0033047D01*
X0037063Y0023205D02*
X0037063Y0021236D01*
X0044937Y0021236D02*
X0044937Y0023205D01*
X0072496Y0023205D01*
X0072496Y0039937D01*
X0073480Y0039937D01*
X0072496Y0039937D02*
X0070528Y0039937D01*
X0070528Y0042890D01*
X0070528Y0039937D02*
X0070528Y0024189D01*
X0053795Y0024189D01*
X0053795Y0025173D01*
X0051827Y0025173D01*
X0051827Y0024189D01*
X0044937Y0024189D01*
X0044937Y0023205D01*
X0046000Y0013500D02*
X0046000Y0008500D01*
X0036000Y0008500D02*
X0036000Y0013500D01*
X0066000Y0013500D02*
X0066000Y0008500D01*
X0101256Y0019100D02*
X0102700Y0019100D01*
X0101978Y0019100D02*
X0101978Y0021700D01*
X0101256Y0021122D01*
X0073500Y0056000D02*
X0068500Y0056000D01*
X0066000Y0058500D01*
X0063500Y0056000D01*
X0058500Y0056000D01*
X0056000Y0058500D01*
X0053500Y0056000D01*
X0048500Y0056000D01*
X0046000Y0058500D01*
X0043500Y0056000D01*
X0038500Y0056000D01*
X0036000Y0058500D01*
X0033500Y0056000D01*
X0028500Y0056000D01*
X0026000Y0058500D01*
X0023500Y0056000D01*
X0018500Y0056000D01*
X0016000Y0058500D01*
X0013500Y0056000D01*
X0008500Y0056000D01*
X0006000Y0058500D01*
X0006000Y0063500D01*
X0008500Y0066000D01*
X0013500Y0066000D01*
X0016000Y0063500D01*
X0018500Y0066000D01*
X0023500Y0066000D01*
X0026000Y0063500D01*
X0026000Y0058500D01*
X0026000Y0063500D02*
X0028500Y0066000D01*
X0033500Y0066000D01*
X0036000Y0063500D01*
X0038500Y0066000D01*
X0043500Y0066000D01*
X0046000Y0063500D01*
X0048500Y0066000D01*
X0053500Y0066000D01*
X0056000Y0063500D01*
X0056000Y0058500D01*
X0056000Y0063500D02*
X0058500Y0066000D01*
X0063500Y0066000D01*
X0066000Y0063500D01*
X0068500Y0066000D01*
X0073500Y0066000D01*
X0076000Y0063500D01*
X0076000Y0058500D01*
X0073500Y0056000D01*
X0066000Y0058500D02*
X0066000Y0063500D01*
X0046000Y0063500D02*
X0046000Y0058500D01*
X0036000Y0058500D02*
X0036000Y0063500D01*
X0016000Y0063500D02*
X0016000Y0058500D01*
D13*
X0021000Y0061000D03*
X0011000Y0061000D03*
X0031000Y0061000D03*
X0041000Y0061000D03*
X0051000Y0061000D03*
X0061000Y0061000D03*
X0071000Y0061000D03*
X0071000Y0011000D03*
X0061000Y0011000D03*
X0051000Y0011000D03*
X0041000Y0011000D03*
X0031000Y0011000D03*
X0021000Y0011000D03*
X0011000Y0011000D03*
D14*
X0007929Y0021236D02*
X0007929Y0050764D01*
X0074071Y0050764D01*
X0074071Y0021236D01*
X0007929Y0021236D01*
D15*
X0017378Y0032063D03*
X0025252Y0032063D03*
X0033126Y0032063D03*
X0041000Y0032063D03*
X0048874Y0032063D03*
X0056748Y0032063D03*
X0064622Y0032063D03*
X0064622Y0039937D03*
X0056748Y0039937D03*
X0048874Y0039937D03*
X0041000Y0039937D03*
X0033126Y0039937D03*
X0025252Y0039937D03*
X0017378Y0039937D03*
D16*
X0003586Y0022500D02*
X0003588Y0022575D01*
X0003594Y0022649D01*
X0003604Y0022723D01*
X0003617Y0022796D01*
X0003635Y0022869D01*
X0003656Y0022940D01*
X0003681Y0023011D01*
X0003710Y0023080D01*
X0003743Y0023147D01*
X0003779Y0023212D01*
X0003818Y0023276D01*
X0003860Y0023337D01*
X0003906Y0023396D01*
X0003955Y0023453D01*
X0004007Y0023506D01*
X0004061Y0023557D01*
X0004118Y0023606D01*
X0004178Y0023650D01*
X0004240Y0023692D01*
X0004304Y0023731D01*
X0004370Y0023766D01*
X0004437Y0023797D01*
X0004507Y0023825D01*
X0004577Y0023849D01*
X0004649Y0023870D01*
X0004722Y0023886D01*
X0004795Y0023899D01*
X0004870Y0023908D01*
X0004944Y0023913D01*
X0005019Y0023914D01*
X0005093Y0023911D01*
X0005168Y0023904D01*
X0005241Y0023893D01*
X0005315Y0023879D01*
X0005387Y0023860D01*
X0005458Y0023838D01*
X0005528Y0023812D01*
X0005597Y0023782D01*
X0005663Y0023749D01*
X0005728Y0023712D01*
X0005791Y0023672D01*
X0005852Y0023628D01*
X0005910Y0023582D01*
X0005966Y0023532D01*
X0006019Y0023480D01*
X0006070Y0023425D01*
X0006117Y0023367D01*
X0006161Y0023307D01*
X0006202Y0023244D01*
X0006240Y0023180D01*
X0006274Y0023114D01*
X0006305Y0023045D01*
X0006332Y0022976D01*
X0006355Y0022905D01*
X0006374Y0022833D01*
X0006390Y0022760D01*
X0006402Y0022686D01*
X0006410Y0022612D01*
X0006414Y0022537D01*
X0006414Y0022463D01*
X0006410Y0022388D01*
X0006402Y0022314D01*
X0006390Y0022240D01*
X0006374Y0022167D01*
X0006355Y0022095D01*
X0006332Y0022024D01*
X0006305Y0021955D01*
X0006274Y0021886D01*
X0006240Y0021820D01*
X0006202Y0021756D01*
X0006161Y0021693D01*
X0006117Y0021633D01*
X0006070Y0021575D01*
X0006019Y0021520D01*
X0005966Y0021468D01*
X0005910Y0021418D01*
X0005852Y0021372D01*
X0005791Y0021328D01*
X0005728Y0021288D01*
X0005663Y0021251D01*
X0005597Y0021218D01*
X0005528Y0021188D01*
X0005458Y0021162D01*
X0005387Y0021140D01*
X0005315Y0021121D01*
X0005241Y0021107D01*
X0005168Y0021096D01*
X0005093Y0021089D01*
X0005019Y0021086D01*
X0004944Y0021087D01*
X0004870Y0021092D01*
X0004795Y0021101D01*
X0004722Y0021114D01*
X0004649Y0021130D01*
X0004577Y0021151D01*
X0004507Y0021175D01*
X0004437Y0021203D01*
X0004370Y0021234D01*
X0004304Y0021269D01*
X0004240Y0021308D01*
X0004178Y0021350D01*
X0004118Y0021394D01*
X0004061Y0021443D01*
X0004007Y0021494D01*
X0003955Y0021547D01*
X0003906Y0021604D01*
X0003860Y0021663D01*
X0003818Y0021724D01*
X0003779Y0021788D01*
X0003743Y0021853D01*
X0003710Y0021920D01*
X0003681Y0021989D01*
X0003656Y0022060D01*
X0003635Y0022131D01*
X0003617Y0022204D01*
X0003604Y0022277D01*
X0003594Y0022351D01*
X0003588Y0022425D01*
X0003586Y0022500D01*
M02*
