G75*
%MOIN*%
%OFA0B0*%
%FSLAX25Y25*%
%IPPOS*%
%LPD*%
%AMOC8*
5,1,8,0,0,1.08239X$1,22.5*
%
%ADD10C,0.00000*%
%ADD11R,0.08858X0.03543*%
%ADD12R,0.11024X0.03543*%
%ADD13R,0.03937X0.04331*%
%ADD14R,0.04331X0.03937*%
%ADD15C,0.07400*%
%ADD16C,0.01600*%
%ADD17C,0.04362*%
%ADD18OC8,0.04362*%
%ADD19C,0.01000*%
D10*
X0388333Y0003050D02*
X0388333Y0138050D01*
X0425833Y0138050D01*
X0425833Y0003050D01*
X0388333Y0003050D01*
X0389396Y0008550D02*
X0389398Y0008675D01*
X0389404Y0008800D01*
X0389414Y0008924D01*
X0389428Y0009048D01*
X0389445Y0009172D01*
X0389467Y0009295D01*
X0389493Y0009417D01*
X0389522Y0009539D01*
X0389555Y0009659D01*
X0389593Y0009778D01*
X0389633Y0009897D01*
X0389678Y0010013D01*
X0389726Y0010128D01*
X0389778Y0010242D01*
X0389834Y0010354D01*
X0389893Y0010464D01*
X0389955Y0010572D01*
X0390021Y0010679D01*
X0390090Y0010783D01*
X0390163Y0010884D01*
X0390238Y0010984D01*
X0390317Y0011081D01*
X0390399Y0011175D01*
X0390484Y0011267D01*
X0390571Y0011356D01*
X0390662Y0011442D01*
X0390755Y0011525D01*
X0390851Y0011606D01*
X0390949Y0011683D01*
X0391049Y0011757D01*
X0391152Y0011828D01*
X0391257Y0011895D01*
X0391365Y0011960D01*
X0391474Y0012020D01*
X0391585Y0012078D01*
X0391698Y0012131D01*
X0391812Y0012181D01*
X0391928Y0012228D01*
X0392045Y0012270D01*
X0392164Y0012309D01*
X0392284Y0012345D01*
X0392405Y0012376D01*
X0392527Y0012404D01*
X0392649Y0012427D01*
X0392773Y0012447D01*
X0392897Y0012463D01*
X0393021Y0012475D01*
X0393146Y0012483D01*
X0393271Y0012487D01*
X0393395Y0012487D01*
X0393520Y0012483D01*
X0393645Y0012475D01*
X0393769Y0012463D01*
X0393893Y0012447D01*
X0394017Y0012427D01*
X0394139Y0012404D01*
X0394261Y0012376D01*
X0394382Y0012345D01*
X0394502Y0012309D01*
X0394621Y0012270D01*
X0394738Y0012228D01*
X0394854Y0012181D01*
X0394968Y0012131D01*
X0395081Y0012078D01*
X0395192Y0012020D01*
X0395302Y0011960D01*
X0395409Y0011895D01*
X0395514Y0011828D01*
X0395617Y0011757D01*
X0395717Y0011683D01*
X0395815Y0011606D01*
X0395911Y0011525D01*
X0396004Y0011442D01*
X0396095Y0011356D01*
X0396182Y0011267D01*
X0396267Y0011175D01*
X0396349Y0011081D01*
X0396428Y0010984D01*
X0396503Y0010884D01*
X0396576Y0010783D01*
X0396645Y0010679D01*
X0396711Y0010572D01*
X0396773Y0010464D01*
X0396832Y0010354D01*
X0396888Y0010242D01*
X0396940Y0010128D01*
X0396988Y0010013D01*
X0397033Y0009897D01*
X0397073Y0009778D01*
X0397111Y0009659D01*
X0397144Y0009539D01*
X0397173Y0009417D01*
X0397199Y0009295D01*
X0397221Y0009172D01*
X0397238Y0009048D01*
X0397252Y0008924D01*
X0397262Y0008800D01*
X0397268Y0008675D01*
X0397270Y0008550D01*
X0397268Y0008425D01*
X0397262Y0008300D01*
X0397252Y0008176D01*
X0397238Y0008052D01*
X0397221Y0007928D01*
X0397199Y0007805D01*
X0397173Y0007683D01*
X0397144Y0007561D01*
X0397111Y0007441D01*
X0397073Y0007322D01*
X0397033Y0007203D01*
X0396988Y0007087D01*
X0396940Y0006972D01*
X0396888Y0006858D01*
X0396832Y0006746D01*
X0396773Y0006636D01*
X0396711Y0006528D01*
X0396645Y0006421D01*
X0396576Y0006317D01*
X0396503Y0006216D01*
X0396428Y0006116D01*
X0396349Y0006019D01*
X0396267Y0005925D01*
X0396182Y0005833D01*
X0396095Y0005744D01*
X0396004Y0005658D01*
X0395911Y0005575D01*
X0395815Y0005494D01*
X0395717Y0005417D01*
X0395617Y0005343D01*
X0395514Y0005272D01*
X0395409Y0005205D01*
X0395301Y0005140D01*
X0395192Y0005080D01*
X0395081Y0005022D01*
X0394968Y0004969D01*
X0394854Y0004919D01*
X0394738Y0004872D01*
X0394621Y0004830D01*
X0394502Y0004791D01*
X0394382Y0004755D01*
X0394261Y0004724D01*
X0394139Y0004696D01*
X0394017Y0004673D01*
X0393893Y0004653D01*
X0393769Y0004637D01*
X0393645Y0004625D01*
X0393520Y0004617D01*
X0393395Y0004613D01*
X0393271Y0004613D01*
X0393146Y0004617D01*
X0393021Y0004625D01*
X0392897Y0004637D01*
X0392773Y0004653D01*
X0392649Y0004673D01*
X0392527Y0004696D01*
X0392405Y0004724D01*
X0392284Y0004755D01*
X0392164Y0004791D01*
X0392045Y0004830D01*
X0391928Y0004872D01*
X0391812Y0004919D01*
X0391698Y0004969D01*
X0391585Y0005022D01*
X0391474Y0005080D01*
X0391364Y0005140D01*
X0391257Y0005205D01*
X0391152Y0005272D01*
X0391049Y0005343D01*
X0390949Y0005417D01*
X0390851Y0005494D01*
X0390755Y0005575D01*
X0390662Y0005658D01*
X0390571Y0005744D01*
X0390484Y0005833D01*
X0390399Y0005925D01*
X0390317Y0006019D01*
X0390238Y0006116D01*
X0390163Y0006216D01*
X0390090Y0006317D01*
X0390021Y0006421D01*
X0389955Y0006528D01*
X0389893Y0006636D01*
X0389834Y0006746D01*
X0389778Y0006858D01*
X0389726Y0006972D01*
X0389678Y0007087D01*
X0389633Y0007203D01*
X0389593Y0007322D01*
X0389555Y0007441D01*
X0389522Y0007561D01*
X0389493Y0007683D01*
X0389467Y0007805D01*
X0389445Y0007928D01*
X0389428Y0008052D01*
X0389414Y0008176D01*
X0389404Y0008300D01*
X0389398Y0008425D01*
X0389396Y0008550D01*
X0416896Y0008550D02*
X0416898Y0008675D01*
X0416904Y0008800D01*
X0416914Y0008924D01*
X0416928Y0009048D01*
X0416945Y0009172D01*
X0416967Y0009295D01*
X0416993Y0009417D01*
X0417022Y0009539D01*
X0417055Y0009659D01*
X0417093Y0009778D01*
X0417133Y0009897D01*
X0417178Y0010013D01*
X0417226Y0010128D01*
X0417278Y0010242D01*
X0417334Y0010354D01*
X0417393Y0010464D01*
X0417455Y0010572D01*
X0417521Y0010679D01*
X0417590Y0010783D01*
X0417663Y0010884D01*
X0417738Y0010984D01*
X0417817Y0011081D01*
X0417899Y0011175D01*
X0417984Y0011267D01*
X0418071Y0011356D01*
X0418162Y0011442D01*
X0418255Y0011525D01*
X0418351Y0011606D01*
X0418449Y0011683D01*
X0418549Y0011757D01*
X0418652Y0011828D01*
X0418757Y0011895D01*
X0418865Y0011960D01*
X0418974Y0012020D01*
X0419085Y0012078D01*
X0419198Y0012131D01*
X0419312Y0012181D01*
X0419428Y0012228D01*
X0419545Y0012270D01*
X0419664Y0012309D01*
X0419784Y0012345D01*
X0419905Y0012376D01*
X0420027Y0012404D01*
X0420149Y0012427D01*
X0420273Y0012447D01*
X0420397Y0012463D01*
X0420521Y0012475D01*
X0420646Y0012483D01*
X0420771Y0012487D01*
X0420895Y0012487D01*
X0421020Y0012483D01*
X0421145Y0012475D01*
X0421269Y0012463D01*
X0421393Y0012447D01*
X0421517Y0012427D01*
X0421639Y0012404D01*
X0421761Y0012376D01*
X0421882Y0012345D01*
X0422002Y0012309D01*
X0422121Y0012270D01*
X0422238Y0012228D01*
X0422354Y0012181D01*
X0422468Y0012131D01*
X0422581Y0012078D01*
X0422692Y0012020D01*
X0422802Y0011960D01*
X0422909Y0011895D01*
X0423014Y0011828D01*
X0423117Y0011757D01*
X0423217Y0011683D01*
X0423315Y0011606D01*
X0423411Y0011525D01*
X0423504Y0011442D01*
X0423595Y0011356D01*
X0423682Y0011267D01*
X0423767Y0011175D01*
X0423849Y0011081D01*
X0423928Y0010984D01*
X0424003Y0010884D01*
X0424076Y0010783D01*
X0424145Y0010679D01*
X0424211Y0010572D01*
X0424273Y0010464D01*
X0424332Y0010354D01*
X0424388Y0010242D01*
X0424440Y0010128D01*
X0424488Y0010013D01*
X0424533Y0009897D01*
X0424573Y0009778D01*
X0424611Y0009659D01*
X0424644Y0009539D01*
X0424673Y0009417D01*
X0424699Y0009295D01*
X0424721Y0009172D01*
X0424738Y0009048D01*
X0424752Y0008924D01*
X0424762Y0008800D01*
X0424768Y0008675D01*
X0424770Y0008550D01*
X0424768Y0008425D01*
X0424762Y0008300D01*
X0424752Y0008176D01*
X0424738Y0008052D01*
X0424721Y0007928D01*
X0424699Y0007805D01*
X0424673Y0007683D01*
X0424644Y0007561D01*
X0424611Y0007441D01*
X0424573Y0007322D01*
X0424533Y0007203D01*
X0424488Y0007087D01*
X0424440Y0006972D01*
X0424388Y0006858D01*
X0424332Y0006746D01*
X0424273Y0006636D01*
X0424211Y0006528D01*
X0424145Y0006421D01*
X0424076Y0006317D01*
X0424003Y0006216D01*
X0423928Y0006116D01*
X0423849Y0006019D01*
X0423767Y0005925D01*
X0423682Y0005833D01*
X0423595Y0005744D01*
X0423504Y0005658D01*
X0423411Y0005575D01*
X0423315Y0005494D01*
X0423217Y0005417D01*
X0423117Y0005343D01*
X0423014Y0005272D01*
X0422909Y0005205D01*
X0422801Y0005140D01*
X0422692Y0005080D01*
X0422581Y0005022D01*
X0422468Y0004969D01*
X0422354Y0004919D01*
X0422238Y0004872D01*
X0422121Y0004830D01*
X0422002Y0004791D01*
X0421882Y0004755D01*
X0421761Y0004724D01*
X0421639Y0004696D01*
X0421517Y0004673D01*
X0421393Y0004653D01*
X0421269Y0004637D01*
X0421145Y0004625D01*
X0421020Y0004617D01*
X0420895Y0004613D01*
X0420771Y0004613D01*
X0420646Y0004617D01*
X0420521Y0004625D01*
X0420397Y0004637D01*
X0420273Y0004653D01*
X0420149Y0004673D01*
X0420027Y0004696D01*
X0419905Y0004724D01*
X0419784Y0004755D01*
X0419664Y0004791D01*
X0419545Y0004830D01*
X0419428Y0004872D01*
X0419312Y0004919D01*
X0419198Y0004969D01*
X0419085Y0005022D01*
X0418974Y0005080D01*
X0418864Y0005140D01*
X0418757Y0005205D01*
X0418652Y0005272D01*
X0418549Y0005343D01*
X0418449Y0005417D01*
X0418351Y0005494D01*
X0418255Y0005575D01*
X0418162Y0005658D01*
X0418071Y0005744D01*
X0417984Y0005833D01*
X0417899Y0005925D01*
X0417817Y0006019D01*
X0417738Y0006116D01*
X0417663Y0006216D01*
X0417590Y0006317D01*
X0417521Y0006421D01*
X0417455Y0006528D01*
X0417393Y0006636D01*
X0417334Y0006746D01*
X0417278Y0006858D01*
X0417226Y0006972D01*
X0417178Y0007087D01*
X0417133Y0007203D01*
X0417093Y0007322D01*
X0417055Y0007441D01*
X0417022Y0007561D01*
X0416993Y0007683D01*
X0416967Y0007805D01*
X0416945Y0007928D01*
X0416928Y0008052D01*
X0416914Y0008176D01*
X0416904Y0008300D01*
X0416898Y0008425D01*
X0416896Y0008550D01*
D11*
X0417365Y0082320D03*
X0417365Y0087241D03*
X0417365Y0092359D03*
X0417365Y0097280D03*
X0396302Y0097280D03*
X0396302Y0092359D03*
X0396302Y0082320D03*
D12*
X0397385Y0087241D03*
D13*
X0420583Y0073146D03*
X0420583Y0066454D03*
X0420583Y0108954D03*
X0413083Y0108954D03*
X0401833Y0108954D03*
X0394333Y0108954D03*
X0394333Y0115646D03*
X0401833Y0115646D03*
X0413083Y0115646D03*
X0420583Y0115646D03*
D14*
X0411833Y0126454D03*
X0401833Y0126454D03*
X0401833Y0133146D03*
X0411833Y0133146D03*
D15*
X0411833Y0066050D03*
X0401833Y0066050D03*
X0401833Y0056050D03*
X0411833Y0056050D03*
X0411833Y0046050D03*
X0401833Y0046050D03*
X0401833Y0036050D03*
X0411833Y0036050D03*
D16*
X0419333Y0043550D01*
X0422986Y0044611D02*
X0424033Y0044611D01*
X0423114Y0044302D02*
X0422539Y0045692D01*
X0421475Y0046755D01*
X0420085Y0047331D01*
X0418581Y0047331D01*
X0417191Y0046755D01*
X0417133Y0046697D01*
X0417133Y0047104D01*
X0416760Y0048006D01*
X0424033Y0055280D01*
X0424033Y0013434D01*
X0421974Y0014287D01*
X0419692Y0014287D01*
X0417584Y0013414D01*
X0415970Y0011800D01*
X0415096Y0009691D01*
X0415096Y0007409D01*
X0415970Y0005300D01*
X0416420Y0004850D01*
X0397747Y0004850D01*
X0398197Y0005300D01*
X0399070Y0007409D01*
X0399070Y0009691D01*
X0398197Y0011800D01*
X0396583Y0013414D01*
X0394474Y0014287D01*
X0392192Y0014287D01*
X0390133Y0013434D01*
X0390133Y0054780D01*
X0390963Y0053950D01*
X0396907Y0048006D01*
X0396533Y0047104D01*
X0396533Y0044996D01*
X0397340Y0043048D01*
X0398831Y0041557D01*
X0400055Y0041050D01*
X0398831Y0040543D01*
X0397340Y0039052D01*
X0396533Y0037104D01*
X0396533Y0034996D01*
X0397340Y0033048D01*
X0398831Y0031557D01*
X0400779Y0030750D01*
X0402888Y0030750D01*
X0404836Y0031557D01*
X0406326Y0033048D01*
X0406833Y0034272D01*
X0407340Y0033048D01*
X0408831Y0031557D01*
X0410779Y0030750D01*
X0412888Y0030750D01*
X0414836Y0031557D01*
X0416326Y0033048D01*
X0417133Y0034996D01*
X0417133Y0037104D01*
X0416884Y0037706D01*
X0418946Y0039769D01*
X0420085Y0039769D01*
X0421475Y0040345D01*
X0422539Y0041408D01*
X0423114Y0042798D01*
X0423114Y0044302D01*
X0423114Y0043013D02*
X0424033Y0043013D01*
X0424033Y0041414D02*
X0422541Y0041414D01*
X0424033Y0039816D02*
X0420199Y0039816D01*
X0417395Y0038217D02*
X0424033Y0038217D01*
X0424033Y0036619D02*
X0417133Y0036619D01*
X0417133Y0035020D02*
X0424033Y0035020D01*
X0424033Y0033422D02*
X0416481Y0033422D01*
X0415102Y0031823D02*
X0424033Y0031823D01*
X0424033Y0030225D02*
X0390133Y0030225D01*
X0390133Y0031823D02*
X0398565Y0031823D01*
X0397185Y0033422D02*
X0390133Y0033422D01*
X0390133Y0035020D02*
X0396533Y0035020D01*
X0396533Y0036619D02*
X0390133Y0036619D01*
X0390133Y0038217D02*
X0396994Y0038217D01*
X0398104Y0039816D02*
X0390133Y0039816D01*
X0390133Y0041414D02*
X0399175Y0041414D01*
X0397375Y0043013D02*
X0390133Y0043013D01*
X0390133Y0044611D02*
X0396693Y0044611D01*
X0396533Y0046210D02*
X0390133Y0046210D01*
X0390133Y0047808D02*
X0396825Y0047808D01*
X0395507Y0049407D02*
X0390133Y0049407D01*
X0390133Y0051005D02*
X0393908Y0051005D01*
X0392310Y0052604D02*
X0390133Y0052604D01*
X0390133Y0054202D02*
X0390711Y0054202D01*
X0395052Y0055801D02*
X0396333Y0055801D01*
X0396333Y0055850D02*
X0396333Y0055617D01*
X0396469Y0054762D01*
X0396651Y0054203D01*
X0393933Y0056920D01*
X0393933Y0061430D01*
X0394733Y0062230D01*
X0394733Y0061430D01*
X0395983Y0060180D01*
X0395983Y0060180D01*
X0397172Y0058991D01*
X0397129Y0058933D01*
X0396736Y0058161D01*
X0396469Y0057338D01*
X0396333Y0056483D01*
X0396333Y0056250D01*
X0401633Y0056250D01*
X0401633Y0055850D01*
X0396333Y0055850D01*
X0396489Y0057399D02*
X0393933Y0057399D01*
X0393933Y0058998D02*
X0397166Y0058998D01*
X0395567Y0060596D02*
X0393933Y0060596D01*
X0394698Y0062195D02*
X0394733Y0062195D01*
X0392233Y0065670D02*
X0390963Y0064400D01*
X0390133Y0063570D01*
X0390133Y0087280D01*
X0390273Y0087141D01*
X0390273Y0084807D01*
X0390299Y0084780D01*
X0390273Y0084754D01*
X0390273Y0079885D01*
X0391210Y0078948D01*
X0400512Y0078948D01*
X0393463Y0071900D01*
X0392233Y0070670D01*
X0392233Y0065670D01*
X0391955Y0065392D02*
X0390133Y0065392D01*
X0390963Y0064400D02*
X0390963Y0064400D01*
X0390357Y0063793D02*
X0390133Y0063793D01*
X0390133Y0066990D02*
X0392233Y0066990D01*
X0392233Y0068589D02*
X0390133Y0068589D01*
X0390133Y0070187D02*
X0392233Y0070187D01*
X0393349Y0071786D02*
X0390133Y0071786D01*
X0390133Y0073384D02*
X0394948Y0073384D01*
X0396547Y0074983D02*
X0390133Y0074983D01*
X0390133Y0076582D02*
X0398145Y0076582D01*
X0399744Y0078180D02*
X0390133Y0078180D01*
X0390133Y0079779D02*
X0390379Y0079779D01*
X0390273Y0081377D02*
X0390133Y0081377D01*
X0390133Y0082976D02*
X0390273Y0082976D01*
X0390273Y0084574D02*
X0390133Y0084574D01*
X0390133Y0086173D02*
X0390273Y0086173D01*
X0396388Y0092273D02*
X0396388Y0092445D01*
X0402531Y0092445D01*
X0402531Y0094368D01*
X0402408Y0094825D01*
X0402331Y0094959D01*
X0402331Y0095200D01*
X0404713Y0095200D01*
X0405983Y0093930D01*
X0405983Y0090670D01*
X0404713Y0089400D01*
X0404496Y0089183D01*
X0404496Y0089675D01*
X0403559Y0090613D01*
X0402531Y0090613D01*
X0402531Y0092273D01*
X0396388Y0092273D01*
X0402531Y0092567D02*
X0405983Y0092567D01*
X0405983Y0090968D02*
X0402531Y0090968D01*
X0404496Y0089370D02*
X0404683Y0089370D01*
X0404713Y0089400D02*
X0404713Y0089400D01*
X0410583Y0088550D02*
X0410583Y0099800D01*
X0413083Y0102300D01*
X0413083Y0108954D01*
X0409515Y0108552D02*
X0405402Y0108552D01*
X0405402Y0110150D02*
X0409515Y0110150D01*
X0409515Y0111749D02*
X0405402Y0111749D01*
X0405402Y0111782D02*
X0404883Y0112300D01*
X0405402Y0112818D01*
X0405402Y0113650D01*
X0409515Y0113650D01*
X0409515Y0112818D01*
X0410033Y0112300D01*
X0409515Y0111782D01*
X0409515Y0106125D01*
X0410452Y0105188D01*
X0410683Y0105188D01*
X0410683Y0103294D01*
X0408549Y0101159D01*
X0408183Y0100277D01*
X0408183Y0097670D01*
X0406453Y0099400D01*
X0404713Y0099400D01*
X0402331Y0099400D01*
X0402331Y0099715D01*
X0402231Y0099815D01*
X0403193Y0100777D01*
X0403868Y0101452D01*
X0404233Y0102334D01*
X0404233Y0105188D01*
X0404465Y0105188D01*
X0405402Y0106125D01*
X0405402Y0111782D01*
X0405402Y0113347D02*
X0409515Y0113347D01*
X0411833Y0116050D02*
X0400583Y0116050D01*
X0401833Y0115646D01*
X0400583Y0116050D02*
X0393083Y0116050D01*
X0394333Y0115646D01*
X0390765Y0115312D02*
X0390765Y0112818D01*
X0391283Y0112300D01*
X0390765Y0111782D01*
X0390765Y0108355D01*
X0390133Y0107723D01*
X0390133Y0136250D01*
X0398540Y0136250D01*
X0398068Y0135778D01*
X0398068Y0130515D01*
X0398663Y0129920D01*
X0398563Y0129862D01*
X0398228Y0129527D01*
X0397991Y0129117D01*
X0397868Y0128659D01*
X0397868Y0126638D01*
X0401649Y0126638D01*
X0401649Y0126269D01*
X0397868Y0126269D01*
X0397868Y0124536D01*
X0397191Y0124255D01*
X0396128Y0123192D01*
X0395552Y0121802D01*
X0395552Y0120298D01*
X0395919Y0119412D01*
X0391702Y0119412D01*
X0390765Y0118475D01*
X0390765Y0116724D01*
X0390683Y0116527D01*
X0390683Y0116428D01*
X0390653Y0116333D01*
X0390683Y0115953D01*
X0390683Y0115573D01*
X0390721Y0115481D01*
X0390729Y0115381D01*
X0390765Y0115312D01*
X0390765Y0114946D02*
X0390133Y0114946D01*
X0390133Y0116544D02*
X0390690Y0116544D01*
X0390765Y0118143D02*
X0390133Y0118143D01*
X0390133Y0119741D02*
X0395783Y0119741D01*
X0395552Y0121340D02*
X0390133Y0121340D01*
X0390133Y0122938D02*
X0396023Y0122938D01*
X0397868Y0124537D02*
X0390133Y0124537D01*
X0390133Y0126135D02*
X0397868Y0126135D01*
X0397868Y0127734D02*
X0390133Y0127734D01*
X0390133Y0129332D02*
X0398115Y0129332D01*
X0398068Y0130931D02*
X0390133Y0130931D01*
X0390133Y0132529D02*
X0398068Y0132529D01*
X0398068Y0134128D02*
X0390133Y0134128D01*
X0390133Y0135726D02*
X0398068Y0135726D01*
X0401833Y0133146D02*
X0406583Y0133146D01*
X0406583Y0123550D01*
X0404083Y0121050D01*
X0399333Y0121050D01*
X0411833Y0121050D02*
X0411833Y0116050D01*
X0413083Y0115646D01*
X0420583Y0115646D01*
X0417015Y0118046D02*
X0416652Y0118046D01*
X0416652Y0118475D01*
X0415715Y0119412D01*
X0415247Y0119412D01*
X0415614Y0120298D01*
X0415614Y0121802D01*
X0415039Y0123192D01*
X0415003Y0123227D01*
X0415599Y0123822D01*
X0415599Y0129085D01*
X0414883Y0129800D01*
X0415599Y0130515D01*
X0415599Y0135778D01*
X0415126Y0136250D01*
X0424033Y0136250D01*
X0424033Y0118593D01*
X0423215Y0119412D01*
X0417952Y0119412D01*
X0417015Y0118475D01*
X0417015Y0118046D01*
X0417015Y0118143D02*
X0416652Y0118143D01*
X0415384Y0119741D02*
X0424033Y0119741D01*
X0424033Y0121340D02*
X0415614Y0121340D01*
X0415144Y0122938D02*
X0424033Y0122938D01*
X0424033Y0124537D02*
X0415599Y0124537D01*
X0415599Y0126135D02*
X0424033Y0126135D01*
X0424033Y0127734D02*
X0415599Y0127734D01*
X0415351Y0129332D02*
X0424033Y0129332D01*
X0424033Y0130931D02*
X0415599Y0130931D01*
X0415599Y0132529D02*
X0424033Y0132529D01*
X0424033Y0134128D02*
X0415599Y0134128D01*
X0415599Y0135726D02*
X0424033Y0135726D01*
X0411833Y0133146D02*
X0406583Y0133146D01*
X0411833Y0126454D02*
X0411833Y0121050D01*
X0390765Y0113347D02*
X0390133Y0113347D01*
X0390133Y0111749D02*
X0390765Y0111749D01*
X0390765Y0110150D02*
X0390133Y0110150D01*
X0390133Y0108552D02*
X0390765Y0108552D01*
X0401833Y0108954D02*
X0401833Y0102812D01*
X0396302Y0097280D01*
X0402531Y0094165D02*
X0405748Y0094165D01*
X0417365Y0092359D02*
X0417424Y0092300D01*
X0411833Y0087300D02*
X0410583Y0088550D01*
X0411833Y0087300D02*
X0417306Y0087300D01*
X0417365Y0087241D01*
X0417365Y0082320D02*
X0418083Y0082300D01*
X0420583Y0082300D01*
X0420583Y0073146D01*
X0411833Y0076050D02*
X0411833Y0076788D01*
X0417365Y0082320D01*
X0411833Y0076050D02*
X0411833Y0066050D01*
X0416815Y0064227D02*
X0416815Y0064051D01*
X0416937Y0063593D01*
X0417174Y0063183D01*
X0417510Y0062848D01*
X0417920Y0062611D01*
X0418378Y0062488D01*
X0420399Y0062488D01*
X0420399Y0066269D01*
X0420768Y0066269D01*
X0420768Y0062488D01*
X0421983Y0062488D01*
X0421983Y0059170D01*
X0416655Y0053842D01*
X0417133Y0054996D01*
X0417133Y0057104D01*
X0416326Y0059052D01*
X0414836Y0060543D01*
X0413612Y0061050D01*
X0414836Y0061557D01*
X0416326Y0063048D01*
X0416815Y0064227D01*
X0416884Y0063793D02*
X0416635Y0063793D01*
X0415474Y0062195D02*
X0421983Y0062195D01*
X0421983Y0060596D02*
X0414707Y0060596D01*
X0416349Y0058998D02*
X0421811Y0058998D01*
X0420213Y0057399D02*
X0417011Y0057399D01*
X0417133Y0055801D02*
X0418614Y0055801D01*
X0417016Y0054202D02*
X0416805Y0054202D01*
X0421357Y0052604D02*
X0424033Y0052604D01*
X0424033Y0054202D02*
X0422956Y0054202D01*
X0424033Y0051005D02*
X0419759Y0051005D01*
X0418160Y0049407D02*
X0424033Y0049407D01*
X0424033Y0047808D02*
X0416842Y0047808D01*
X0422021Y0046210D02*
X0424033Y0046210D01*
X0407185Y0033422D02*
X0406481Y0033422D01*
X0405102Y0031823D02*
X0408565Y0031823D01*
X0424033Y0028626D02*
X0390133Y0028626D01*
X0390133Y0027028D02*
X0424033Y0027028D01*
X0424033Y0025429D02*
X0390133Y0025429D01*
X0390133Y0023831D02*
X0424033Y0023831D01*
X0424033Y0022232D02*
X0390133Y0022232D01*
X0390133Y0020634D02*
X0424033Y0020634D01*
X0424033Y0019035D02*
X0390133Y0019035D01*
X0390133Y0017437D02*
X0424033Y0017437D01*
X0424033Y0015838D02*
X0390133Y0015838D01*
X0390133Y0014240D02*
X0392078Y0014240D01*
X0394589Y0014240D02*
X0419578Y0014240D01*
X0422089Y0014240D02*
X0424033Y0014240D01*
X0416811Y0012641D02*
X0397356Y0012641D01*
X0398511Y0011043D02*
X0415656Y0011043D01*
X0415096Y0009444D02*
X0399070Y0009444D01*
X0399070Y0007846D02*
X0415096Y0007846D01*
X0415578Y0006247D02*
X0398589Y0006247D01*
X0420399Y0063793D02*
X0420768Y0063793D01*
X0420768Y0065392D02*
X0420399Y0065392D01*
X0418083Y0097300D02*
X0417365Y0097280D01*
X0418083Y0097300D02*
X0418083Y0102300D01*
X0410683Y0103756D02*
X0404233Y0103756D01*
X0404160Y0102158D02*
X0409547Y0102158D01*
X0408300Y0100559D02*
X0402975Y0100559D01*
X0406892Y0098961D02*
X0408183Y0098961D01*
X0410286Y0105355D02*
X0404631Y0105355D01*
X0405402Y0106953D02*
X0409515Y0106953D01*
D17*
X0418083Y0102300D03*
X0411833Y0121050D03*
X0399333Y0121050D03*
X0411833Y0076050D03*
X0419333Y0043550D03*
D18*
X0393083Y0043550D03*
X0395583Y0058550D03*
X0418833Y0061050D03*
X0393083Y0077300D03*
X0404333Y0092300D03*
X0407333Y0107800D03*
X0394333Y0124800D03*
X0420583Y0124800D03*
X0419583Y0021050D03*
D19*
X0401833Y0036050D02*
X0406833Y0041050D01*
X0406833Y0058550D01*
X0404333Y0061050D01*
X0398083Y0061050D01*
X0396833Y0062300D01*
X0396833Y0068550D01*
X0405583Y0077300D01*
X0405583Y0087300D01*
X0408083Y0089800D01*
X0408083Y0094800D01*
X0405583Y0097300D01*
X0396833Y0097300D01*
X0396302Y0097280D01*
X0390083Y0090300D02*
X0390083Y0104704D01*
X0394333Y0108954D01*
X0420583Y0108954D02*
X0420583Y0107800D01*
X0424083Y0104300D01*
X0424083Y0092300D01*
X0417424Y0092300D01*
X0424083Y0092300D02*
X0424083Y0058300D01*
X0411833Y0046050D01*
X0401833Y0046050D02*
X0391833Y0056050D01*
X0391833Y0062300D01*
X0394333Y0064800D01*
X0394333Y0069800D01*
X0403083Y0078550D01*
X0403083Y0084800D01*
X0400642Y0087241D01*
X0397385Y0087241D01*
X0394392Y0087241D01*
X0394333Y0087300D01*
X0393083Y0087300D01*
X0390083Y0090300D01*
X0396833Y0087300D02*
X0396892Y0087241D01*
X0397385Y0087241D01*
X0408083Y0086050D02*
X0408083Y0072300D01*
X0406833Y0071050D01*
X0406833Y0063550D01*
X0411833Y0058550D01*
X0411833Y0056050D01*
X0408083Y0086050D02*
X0410583Y0088550D01*
M02*
