%
M48
M72
T01C0.03543
T02C0.04000
T03C0.09600
%
T01
X28000Y64000
X28000Y74000
X28000Y84000
X38000Y84000
X38000Y74000
X38000Y64000
T02
X48492Y62465
X48492Y69984
X48492Y87504
X48492Y94000
X17508Y94000
X17508Y77504
X17508Y66992
X17508Y36480
X18500Y22500
X28500Y22500
X38500Y22500
X48500Y22500
T03
X10500Y10500
X56500Y10500
X56500Y103500
X10000Y103500
M30
