G75*
%MOIN*%
%OFA0B0*%
%FSLAX25Y25*%
%IPPOS*%
%LPD*%
%AMOC8*
5,1,8,0,0,1.08239X$1,22.5*
%
%ADD10C,0.00500*%
%ADD11C,0.00300*%
%ADD12C,0.00800*%
%ADD13R,0.02000X0.02000*%
%ADD14C,0.00040*%
%ADD15C,0.00400*%
%ADD16R,0.01969X0.00492*%
%ADD17R,0.00886X0.01280*%
%ADD18R,0.00492X0.00886*%
%ADD19R,0.01673X0.00492*%
%ADD20R,0.01969X0.01378*%
%ADD21R,0.02362X0.00492*%
%ADD22R,0.06693X0.01181*%
%ADD23R,0.06693X0.02756*%
%ADD24R,0.01280X0.01673*%
%ADD25R,0.01378X0.01378*%
%ADD26C,0.00600*%
%ADD27R,0.03400X0.01600*%
D10*
X0016445Y0042201D02*
X0034555Y0042201D01*
X0034555Y0054799D01*
X0016445Y0054799D01*
X0016445Y0042201D01*
X0026000Y0059000D02*
X0023000Y0062000D01*
X0023000Y0067000D01*
X0025000Y0069000D01*
X0023000Y0071000D01*
X0023000Y0077000D01*
X0025000Y0079000D01*
X0023000Y0081000D01*
X0023000Y0086000D01*
X0026000Y0089000D01*
X0040000Y0089000D01*
X0043000Y0086000D01*
X0043000Y0081000D01*
X0041000Y0079000D01*
X0043000Y0077000D01*
X0043000Y0071000D01*
X0041000Y0069000D01*
X0043000Y0067000D01*
X0043000Y0062000D01*
X0040000Y0059000D01*
X0026000Y0059000D01*
X0051034Y0016750D02*
X0051034Y0015272D01*
X0051032Y0015233D01*
X0051027Y0015194D01*
X0051018Y0015157D01*
X0051006Y0015120D01*
X0050990Y0015084D01*
X0050971Y0015050D01*
X0050949Y0015018D01*
X0050924Y0014988D01*
X0050896Y0014960D01*
X0050866Y0014935D01*
X0050834Y0014913D01*
X0050800Y0014894D01*
X0050764Y0014878D01*
X0050727Y0014866D01*
X0050690Y0014857D01*
X0050651Y0014852D01*
X0050612Y0014850D01*
X0050401Y0014850D01*
X0052194Y0014850D02*
X0053250Y0014850D01*
X0052722Y0014850D02*
X0052722Y0016750D01*
X0052194Y0016328D01*
D11*
X0044850Y0056150D02*
X0042794Y0056150D01*
X0043822Y0056150D02*
X0043822Y0059850D01*
X0042794Y0059028D01*
D12*
X0013500Y0020000D02*
X0016000Y0017500D01*
X0021000Y0017500D01*
X0023500Y0020000D01*
X0026000Y0017500D01*
X0031000Y0017500D01*
X0033500Y0020000D01*
X0036000Y0017500D01*
X0041000Y0017500D01*
X0043500Y0020000D01*
X0046000Y0017500D01*
X0051000Y0017500D01*
X0053500Y0020000D01*
X0053500Y0025000D01*
X0051000Y0027500D01*
X0046000Y0027500D01*
X0043500Y0025000D01*
X0041000Y0027500D01*
X0036000Y0027500D01*
X0033500Y0025000D01*
X0031000Y0027500D01*
X0026000Y0027500D01*
X0023500Y0025000D01*
X0021000Y0027500D01*
X0016000Y0027500D01*
X0013500Y0025000D01*
X0013500Y0020000D01*
D13*
X0018500Y0022500D03*
X0028500Y0022500D03*
X0038500Y0022500D03*
X0048500Y0022500D03*
D14*
X0045754Y0033121D02*
X0045394Y0033121D01*
X0045395Y0033122D02*
X0045392Y0033196D01*
X0045385Y0033269D01*
X0045374Y0033342D01*
X0045360Y0033414D01*
X0045341Y0033485D01*
X0045319Y0033555D01*
X0045294Y0033624D01*
X0045264Y0033692D01*
X0045231Y0033758D01*
X0045195Y0033822D01*
X0045155Y0033884D01*
X0045113Y0033943D01*
X0045067Y0034001D01*
X0045018Y0034056D01*
X0044966Y0034108D01*
X0044912Y0034158D01*
X0044855Y0034204D01*
X0044795Y0034248D01*
X0044734Y0034288D01*
X0044670Y0034325D01*
X0044605Y0034359D01*
X0044538Y0034389D01*
X0044469Y0034416D01*
X0044399Y0034439D01*
X0044328Y0034458D01*
X0044256Y0034473D01*
X0044183Y0034485D01*
X0044110Y0034493D01*
X0044037Y0034497D01*
X0043963Y0034497D01*
X0043890Y0034493D01*
X0043817Y0034485D01*
X0043744Y0034473D01*
X0043672Y0034458D01*
X0043601Y0034439D01*
X0043531Y0034416D01*
X0043462Y0034389D01*
X0043395Y0034359D01*
X0043330Y0034325D01*
X0043266Y0034288D01*
X0043205Y0034248D01*
X0043145Y0034204D01*
X0043088Y0034158D01*
X0043034Y0034108D01*
X0042982Y0034056D01*
X0042933Y0034001D01*
X0042887Y0033943D01*
X0042845Y0033884D01*
X0042805Y0033822D01*
X0042769Y0033758D01*
X0042736Y0033692D01*
X0042706Y0033624D01*
X0042681Y0033555D01*
X0042659Y0033485D01*
X0042640Y0033414D01*
X0042626Y0033342D01*
X0042615Y0033269D01*
X0042608Y0033196D01*
X0042605Y0033122D01*
X0042246Y0033121D01*
X0042245Y0033122D01*
X0042248Y0033205D01*
X0042255Y0033288D01*
X0042266Y0033370D01*
X0042280Y0033451D01*
X0042299Y0033532D01*
X0042321Y0033612D01*
X0042347Y0033691D01*
X0042376Y0033768D01*
X0042410Y0033844D01*
X0042447Y0033919D01*
X0042487Y0033991D01*
X0042531Y0034062D01*
X0042577Y0034130D01*
X0042628Y0034196D01*
X0042681Y0034260D01*
X0042737Y0034321D01*
X0042796Y0034379D01*
X0042858Y0034434D01*
X0042922Y0034487D01*
X0042988Y0034536D01*
X0043057Y0034582D01*
X0043128Y0034625D01*
X0043201Y0034665D01*
X0043276Y0034701D01*
X0043352Y0034733D01*
X0043430Y0034762D01*
X0043509Y0034787D01*
X0043589Y0034808D01*
X0043670Y0034826D01*
X0043752Y0034839D01*
X0043834Y0034849D01*
X0043917Y0034855D01*
X0044000Y0034857D01*
X0044083Y0034855D01*
X0044166Y0034849D01*
X0044248Y0034839D01*
X0044330Y0034826D01*
X0044411Y0034808D01*
X0044491Y0034787D01*
X0044570Y0034762D01*
X0044648Y0034733D01*
X0044724Y0034701D01*
X0044799Y0034665D01*
X0044872Y0034625D01*
X0044943Y0034582D01*
X0045012Y0034536D01*
X0045078Y0034487D01*
X0045142Y0034434D01*
X0045204Y0034379D01*
X0045263Y0034321D01*
X0045319Y0034260D01*
X0045372Y0034196D01*
X0045423Y0034130D01*
X0045469Y0034062D01*
X0045513Y0033991D01*
X0045553Y0033919D01*
X0045590Y0033844D01*
X0045624Y0033768D01*
X0045653Y0033691D01*
X0045679Y0033612D01*
X0045701Y0033532D01*
X0045720Y0033451D01*
X0045734Y0033370D01*
X0045745Y0033288D01*
X0045752Y0033205D01*
X0045755Y0033122D01*
X0045718Y0033122D01*
X0045715Y0033203D01*
X0045708Y0033284D01*
X0045698Y0033364D01*
X0045684Y0033444D01*
X0045665Y0033524D01*
X0045644Y0033602D01*
X0045618Y0033679D01*
X0045589Y0033755D01*
X0045557Y0033829D01*
X0045521Y0033902D01*
X0045481Y0033973D01*
X0045438Y0034042D01*
X0045392Y0034108D01*
X0045343Y0034173D01*
X0045291Y0034235D01*
X0045236Y0034295D01*
X0045179Y0034352D01*
X0045118Y0034406D01*
X0045055Y0034458D01*
X0044990Y0034506D01*
X0044923Y0034551D01*
X0044853Y0034593D01*
X0044782Y0034632D01*
X0044709Y0034667D01*
X0044634Y0034699D01*
X0044558Y0034727D01*
X0044481Y0034751D01*
X0044402Y0034772D01*
X0044323Y0034789D01*
X0044243Y0034803D01*
X0044162Y0034812D01*
X0044081Y0034818D01*
X0044000Y0034820D01*
X0043919Y0034818D01*
X0043838Y0034812D01*
X0043757Y0034803D01*
X0043677Y0034789D01*
X0043598Y0034772D01*
X0043519Y0034751D01*
X0043442Y0034727D01*
X0043366Y0034699D01*
X0043291Y0034667D01*
X0043218Y0034632D01*
X0043147Y0034593D01*
X0043077Y0034551D01*
X0043010Y0034506D01*
X0042945Y0034458D01*
X0042882Y0034406D01*
X0042821Y0034352D01*
X0042764Y0034295D01*
X0042709Y0034235D01*
X0042657Y0034173D01*
X0042608Y0034108D01*
X0042562Y0034042D01*
X0042519Y0033973D01*
X0042479Y0033902D01*
X0042443Y0033829D01*
X0042411Y0033755D01*
X0042382Y0033679D01*
X0042356Y0033602D01*
X0042335Y0033524D01*
X0042316Y0033444D01*
X0042302Y0033364D01*
X0042292Y0033284D01*
X0042285Y0033203D01*
X0042282Y0033122D01*
X0042319Y0033122D01*
X0042322Y0033203D01*
X0042329Y0033283D01*
X0042339Y0033363D01*
X0042354Y0033442D01*
X0042372Y0033521D01*
X0042394Y0033598D01*
X0042420Y0033675D01*
X0042449Y0033750D01*
X0042482Y0033823D01*
X0042518Y0033895D01*
X0042558Y0033966D01*
X0042601Y0034034D01*
X0042647Y0034100D01*
X0042697Y0034163D01*
X0042749Y0034225D01*
X0042804Y0034283D01*
X0042862Y0034339D01*
X0042923Y0034393D01*
X0042986Y0034443D01*
X0043051Y0034490D01*
X0043119Y0034534D01*
X0043189Y0034574D01*
X0043260Y0034611D01*
X0043333Y0034645D01*
X0043408Y0034675D01*
X0043484Y0034702D01*
X0043562Y0034725D01*
X0043640Y0034744D01*
X0043719Y0034759D01*
X0043799Y0034771D01*
X0043879Y0034779D01*
X0043960Y0034783D01*
X0044040Y0034783D01*
X0044121Y0034779D01*
X0044201Y0034771D01*
X0044281Y0034759D01*
X0044360Y0034744D01*
X0044438Y0034725D01*
X0044516Y0034702D01*
X0044592Y0034675D01*
X0044667Y0034645D01*
X0044740Y0034611D01*
X0044811Y0034574D01*
X0044881Y0034534D01*
X0044949Y0034490D01*
X0045014Y0034443D01*
X0045077Y0034393D01*
X0045138Y0034339D01*
X0045196Y0034283D01*
X0045251Y0034225D01*
X0045303Y0034163D01*
X0045353Y0034100D01*
X0045399Y0034034D01*
X0045442Y0033966D01*
X0045482Y0033895D01*
X0045518Y0033823D01*
X0045551Y0033750D01*
X0045580Y0033675D01*
X0045606Y0033598D01*
X0045628Y0033521D01*
X0045646Y0033442D01*
X0045661Y0033363D01*
X0045671Y0033283D01*
X0045678Y0033203D01*
X0045681Y0033122D01*
X0045644Y0033122D01*
X0045641Y0033202D01*
X0045634Y0033282D01*
X0045623Y0033361D01*
X0045609Y0033440D01*
X0045591Y0033518D01*
X0045568Y0033595D01*
X0045543Y0033671D01*
X0045513Y0033745D01*
X0045480Y0033818D01*
X0045443Y0033889D01*
X0045403Y0033958D01*
X0045360Y0034026D01*
X0045313Y0034091D01*
X0045264Y0034154D01*
X0045211Y0034214D01*
X0045155Y0034272D01*
X0045097Y0034326D01*
X0045036Y0034378D01*
X0044973Y0034427D01*
X0044907Y0034473D01*
X0044839Y0034516D01*
X0044769Y0034555D01*
X0044698Y0034591D01*
X0044625Y0034623D01*
X0044550Y0034651D01*
X0044474Y0034676D01*
X0044396Y0034697D01*
X0044318Y0034715D01*
X0044239Y0034728D01*
X0044160Y0034738D01*
X0044080Y0034744D01*
X0044000Y0034746D01*
X0043920Y0034744D01*
X0043840Y0034738D01*
X0043761Y0034728D01*
X0043682Y0034715D01*
X0043604Y0034697D01*
X0043526Y0034676D01*
X0043450Y0034651D01*
X0043375Y0034623D01*
X0043302Y0034591D01*
X0043231Y0034555D01*
X0043161Y0034516D01*
X0043093Y0034473D01*
X0043027Y0034427D01*
X0042964Y0034378D01*
X0042903Y0034326D01*
X0042845Y0034272D01*
X0042789Y0034214D01*
X0042736Y0034154D01*
X0042687Y0034091D01*
X0042640Y0034026D01*
X0042597Y0033958D01*
X0042557Y0033889D01*
X0042520Y0033818D01*
X0042487Y0033745D01*
X0042457Y0033671D01*
X0042432Y0033595D01*
X0042409Y0033518D01*
X0042391Y0033440D01*
X0042377Y0033361D01*
X0042366Y0033282D01*
X0042359Y0033202D01*
X0042356Y0033122D01*
X0042393Y0033122D01*
X0042396Y0033201D01*
X0042403Y0033281D01*
X0042414Y0033359D01*
X0042428Y0033438D01*
X0042447Y0033515D01*
X0042469Y0033591D01*
X0042495Y0033666D01*
X0042525Y0033740D01*
X0042558Y0033812D01*
X0042595Y0033883D01*
X0042636Y0033951D01*
X0042679Y0034017D01*
X0042726Y0034082D01*
X0042776Y0034143D01*
X0042829Y0034203D01*
X0042885Y0034259D01*
X0042944Y0034313D01*
X0043005Y0034364D01*
X0043068Y0034411D01*
X0043134Y0034456D01*
X0043202Y0034497D01*
X0043272Y0034535D01*
X0043344Y0034569D01*
X0043417Y0034600D01*
X0043492Y0034627D01*
X0043568Y0034650D01*
X0043645Y0034669D01*
X0043723Y0034685D01*
X0043802Y0034697D01*
X0043881Y0034705D01*
X0043960Y0034709D01*
X0044040Y0034709D01*
X0044119Y0034705D01*
X0044198Y0034697D01*
X0044277Y0034685D01*
X0044355Y0034669D01*
X0044432Y0034650D01*
X0044508Y0034627D01*
X0044583Y0034600D01*
X0044656Y0034569D01*
X0044728Y0034535D01*
X0044798Y0034497D01*
X0044866Y0034456D01*
X0044932Y0034411D01*
X0044995Y0034364D01*
X0045056Y0034313D01*
X0045115Y0034259D01*
X0045171Y0034203D01*
X0045224Y0034143D01*
X0045274Y0034082D01*
X0045321Y0034017D01*
X0045364Y0033951D01*
X0045405Y0033883D01*
X0045442Y0033812D01*
X0045475Y0033740D01*
X0045505Y0033666D01*
X0045531Y0033591D01*
X0045553Y0033515D01*
X0045572Y0033438D01*
X0045586Y0033359D01*
X0045597Y0033281D01*
X0045604Y0033201D01*
X0045607Y0033122D01*
X0045570Y0033122D01*
X0045567Y0033201D01*
X0045560Y0033279D01*
X0045549Y0033358D01*
X0045534Y0033435D01*
X0045516Y0033512D01*
X0045493Y0033587D01*
X0045467Y0033662D01*
X0045437Y0033735D01*
X0045403Y0033806D01*
X0045366Y0033876D01*
X0045326Y0033943D01*
X0045282Y0034009D01*
X0045234Y0034072D01*
X0045184Y0034133D01*
X0045131Y0034191D01*
X0045075Y0034247D01*
X0045016Y0034299D01*
X0044954Y0034349D01*
X0044891Y0034395D01*
X0044824Y0034438D01*
X0044756Y0034478D01*
X0044686Y0034514D01*
X0044614Y0034547D01*
X0044541Y0034576D01*
X0044466Y0034601D01*
X0044390Y0034623D01*
X0044314Y0034640D01*
X0044236Y0034654D01*
X0044158Y0034664D01*
X0044079Y0034670D01*
X0044000Y0034672D01*
X0043921Y0034670D01*
X0043842Y0034664D01*
X0043764Y0034654D01*
X0043686Y0034640D01*
X0043610Y0034623D01*
X0043534Y0034601D01*
X0043459Y0034576D01*
X0043386Y0034547D01*
X0043314Y0034514D01*
X0043244Y0034478D01*
X0043176Y0034438D01*
X0043109Y0034395D01*
X0043046Y0034349D01*
X0042984Y0034299D01*
X0042925Y0034247D01*
X0042869Y0034191D01*
X0042816Y0034133D01*
X0042766Y0034072D01*
X0042718Y0034009D01*
X0042674Y0033943D01*
X0042634Y0033876D01*
X0042597Y0033806D01*
X0042563Y0033735D01*
X0042533Y0033662D01*
X0042507Y0033587D01*
X0042484Y0033512D01*
X0042466Y0033435D01*
X0042451Y0033358D01*
X0042440Y0033279D01*
X0042433Y0033201D01*
X0042430Y0033122D01*
X0042467Y0033122D01*
X0042470Y0033199D01*
X0042477Y0033276D01*
X0042488Y0033352D01*
X0042502Y0033428D01*
X0042520Y0033502D01*
X0042542Y0033576D01*
X0042568Y0033649D01*
X0042597Y0033720D01*
X0042630Y0033790D01*
X0042666Y0033858D01*
X0042706Y0033924D01*
X0042749Y0033988D01*
X0042795Y0034050D01*
X0042844Y0034109D01*
X0042896Y0034166D01*
X0042951Y0034220D01*
X0043008Y0034271D01*
X0043068Y0034319D01*
X0043131Y0034365D01*
X0043195Y0034407D01*
X0043262Y0034445D01*
X0043330Y0034481D01*
X0043400Y0034513D01*
X0043472Y0034541D01*
X0043545Y0034566D01*
X0043619Y0034587D01*
X0043694Y0034604D01*
X0043770Y0034618D01*
X0043846Y0034627D01*
X0043923Y0034633D01*
X0044000Y0034635D01*
X0044077Y0034633D01*
X0044154Y0034627D01*
X0044230Y0034618D01*
X0044306Y0034604D01*
X0044381Y0034587D01*
X0044455Y0034566D01*
X0044528Y0034541D01*
X0044600Y0034513D01*
X0044670Y0034481D01*
X0044738Y0034445D01*
X0044805Y0034407D01*
X0044869Y0034365D01*
X0044932Y0034319D01*
X0044992Y0034271D01*
X0045049Y0034220D01*
X0045104Y0034166D01*
X0045156Y0034109D01*
X0045205Y0034050D01*
X0045251Y0033988D01*
X0045294Y0033924D01*
X0045334Y0033858D01*
X0045370Y0033790D01*
X0045403Y0033720D01*
X0045432Y0033649D01*
X0045458Y0033576D01*
X0045480Y0033502D01*
X0045498Y0033428D01*
X0045512Y0033352D01*
X0045523Y0033276D01*
X0045530Y0033199D01*
X0045533Y0033122D01*
X0045496Y0033122D01*
X0045493Y0033198D01*
X0045486Y0033274D01*
X0045475Y0033350D01*
X0045461Y0033425D01*
X0045442Y0033499D01*
X0045420Y0033572D01*
X0045394Y0033644D01*
X0045365Y0033715D01*
X0045332Y0033783D01*
X0045295Y0033851D01*
X0045255Y0033916D01*
X0045212Y0033979D01*
X0045166Y0034039D01*
X0045117Y0034098D01*
X0045064Y0034153D01*
X0045009Y0034206D01*
X0044952Y0034256D01*
X0044891Y0034303D01*
X0044829Y0034347D01*
X0044764Y0034388D01*
X0044698Y0034425D01*
X0044629Y0034459D01*
X0044559Y0034490D01*
X0044487Y0034516D01*
X0044415Y0034539D01*
X0044341Y0034559D01*
X0044266Y0034574D01*
X0044190Y0034586D01*
X0044114Y0034594D01*
X0044038Y0034598D01*
X0043962Y0034598D01*
X0043886Y0034594D01*
X0043810Y0034586D01*
X0043734Y0034574D01*
X0043659Y0034559D01*
X0043585Y0034539D01*
X0043513Y0034516D01*
X0043441Y0034490D01*
X0043371Y0034459D01*
X0043302Y0034425D01*
X0043236Y0034388D01*
X0043171Y0034347D01*
X0043109Y0034303D01*
X0043048Y0034256D01*
X0042991Y0034206D01*
X0042936Y0034153D01*
X0042883Y0034098D01*
X0042834Y0034039D01*
X0042788Y0033979D01*
X0042745Y0033916D01*
X0042705Y0033851D01*
X0042668Y0033783D01*
X0042635Y0033715D01*
X0042606Y0033644D01*
X0042580Y0033572D01*
X0042558Y0033499D01*
X0042539Y0033425D01*
X0042525Y0033350D01*
X0042514Y0033274D01*
X0042507Y0033198D01*
X0042504Y0033122D01*
X0042541Y0033122D01*
X0042544Y0033198D01*
X0042551Y0033273D01*
X0042562Y0033348D01*
X0042577Y0033422D01*
X0042595Y0033496D01*
X0042617Y0033568D01*
X0042643Y0033639D01*
X0042673Y0033709D01*
X0042706Y0033777D01*
X0042743Y0033843D01*
X0042783Y0033907D01*
X0042827Y0033969D01*
X0042873Y0034029D01*
X0042923Y0034086D01*
X0042975Y0034141D01*
X0043031Y0034192D01*
X0043089Y0034241D01*
X0043149Y0034287D01*
X0043212Y0034330D01*
X0043276Y0034369D01*
X0043343Y0034405D01*
X0043411Y0034437D01*
X0043482Y0034466D01*
X0043553Y0034491D01*
X0043626Y0034512D01*
X0043699Y0034530D01*
X0043774Y0034543D01*
X0043849Y0034553D01*
X0043924Y0034559D01*
X0044000Y0034561D01*
X0044076Y0034559D01*
X0044151Y0034553D01*
X0044226Y0034543D01*
X0044301Y0034530D01*
X0044374Y0034512D01*
X0044447Y0034491D01*
X0044518Y0034466D01*
X0044589Y0034437D01*
X0044657Y0034405D01*
X0044724Y0034369D01*
X0044788Y0034330D01*
X0044851Y0034287D01*
X0044911Y0034241D01*
X0044969Y0034192D01*
X0045025Y0034141D01*
X0045077Y0034086D01*
X0045127Y0034029D01*
X0045173Y0033969D01*
X0045217Y0033907D01*
X0045257Y0033843D01*
X0045294Y0033777D01*
X0045327Y0033709D01*
X0045357Y0033639D01*
X0045383Y0033568D01*
X0045405Y0033496D01*
X0045423Y0033422D01*
X0045438Y0033348D01*
X0045449Y0033273D01*
X0045456Y0033198D01*
X0045459Y0033122D01*
X0045422Y0033122D01*
X0045419Y0033197D01*
X0045412Y0033272D01*
X0045401Y0033346D01*
X0045386Y0033419D01*
X0045367Y0033492D01*
X0045345Y0033564D01*
X0045319Y0033634D01*
X0045289Y0033703D01*
X0045255Y0033770D01*
X0045218Y0033835D01*
X0045178Y0033899D01*
X0045134Y0033960D01*
X0045088Y0034018D01*
X0045038Y0034074D01*
X0044985Y0034128D01*
X0044929Y0034178D01*
X0044871Y0034226D01*
X0044811Y0034270D01*
X0044748Y0034311D01*
X0044683Y0034349D01*
X0044617Y0034383D01*
X0044548Y0034414D01*
X0044478Y0034441D01*
X0044407Y0034465D01*
X0044335Y0034484D01*
X0044261Y0034500D01*
X0044187Y0034512D01*
X0044112Y0034520D01*
X0044038Y0034524D01*
X0043962Y0034524D01*
X0043888Y0034520D01*
X0043813Y0034512D01*
X0043739Y0034500D01*
X0043665Y0034484D01*
X0043593Y0034465D01*
X0043522Y0034441D01*
X0043452Y0034414D01*
X0043383Y0034383D01*
X0043317Y0034349D01*
X0043252Y0034311D01*
X0043189Y0034270D01*
X0043129Y0034226D01*
X0043071Y0034178D01*
X0043015Y0034128D01*
X0042962Y0034074D01*
X0042912Y0034018D01*
X0042866Y0033960D01*
X0042822Y0033899D01*
X0042782Y0033835D01*
X0042745Y0033770D01*
X0042711Y0033703D01*
X0042681Y0033634D01*
X0042655Y0033564D01*
X0042633Y0033492D01*
X0042614Y0033419D01*
X0042599Y0033346D01*
X0042588Y0033272D01*
X0042581Y0033197D01*
X0042578Y0033122D01*
D15*
X0040850Y0035760D02*
X0040850Y0043240D01*
X0045771Y0033890D02*
X0045773Y0033929D01*
X0045779Y0033968D01*
X0045789Y0034006D01*
X0045802Y0034043D01*
X0045819Y0034078D01*
X0045839Y0034112D01*
X0045863Y0034143D01*
X0045890Y0034172D01*
X0045919Y0034198D01*
X0045951Y0034221D01*
X0045985Y0034241D01*
X0046021Y0034257D01*
X0046058Y0034269D01*
X0046097Y0034278D01*
X0046136Y0034283D01*
X0046175Y0034284D01*
X0046214Y0034281D01*
X0046253Y0034274D01*
X0046290Y0034263D01*
X0046327Y0034249D01*
X0046362Y0034231D01*
X0046395Y0034210D01*
X0046426Y0034185D01*
X0046454Y0034158D01*
X0046479Y0034128D01*
X0046501Y0034095D01*
X0046520Y0034061D01*
X0046535Y0034025D01*
X0046547Y0033987D01*
X0046555Y0033949D01*
X0046559Y0033910D01*
X0046559Y0033870D01*
X0046555Y0033831D01*
X0046547Y0033793D01*
X0046535Y0033755D01*
X0046520Y0033719D01*
X0046501Y0033685D01*
X0046479Y0033652D01*
X0046454Y0033622D01*
X0046426Y0033595D01*
X0046395Y0033570D01*
X0046362Y0033549D01*
X0046327Y0033531D01*
X0046290Y0033517D01*
X0046253Y0033506D01*
X0046214Y0033499D01*
X0046175Y0033496D01*
X0046136Y0033497D01*
X0046097Y0033502D01*
X0046058Y0033511D01*
X0046021Y0033523D01*
X0045985Y0033539D01*
X0045951Y0033559D01*
X0045919Y0033582D01*
X0045890Y0033608D01*
X0045863Y0033637D01*
X0045839Y0033668D01*
X0045819Y0033702D01*
X0045802Y0033737D01*
X0045789Y0033774D01*
X0045779Y0033812D01*
X0045773Y0033851D01*
X0045771Y0033890D01*
X0047150Y0035760D02*
X0047150Y0043240D01*
D16*
X0046362Y0033250D03*
D17*
X0046904Y0034037D03*
D18*
X0045526Y0034234D03*
D19*
X0045722Y0034431D03*
D20*
X0041638Y0033693D03*
D21*
X0041835Y0034431D03*
D22*
X0044000Y0035169D03*
D23*
X0044000Y0044618D03*
D24*
X0041293Y0037285D03*
X0046707Y0037285D03*
D25*
X0044000Y0038811D03*
D26*
X0051598Y0037201D02*
X0051598Y0033799D01*
X0054402Y0033799D02*
X0054402Y0037201D01*
D27*
X0053000Y0038000D03*
X0053000Y0033000D03*
M02*
