G75*
%MOIN*%
%OFA0B0*%
%FSLAX25Y25*%
%IPPOS*%
%LPD*%
%AMOC8*
5,1,8,0,0,1.08239X$1,22.5*
%
%ADD10C,0.00400*%
D10*
X0016625Y0043700D02*
X0018669Y0043700D01*
X0016625Y0046767D01*
X0018669Y0046767D01*
X0020861Y0044467D02*
X0020859Y0044412D01*
X0020853Y0044358D01*
X0020843Y0044304D01*
X0020830Y0044251D01*
X0020813Y0044199D01*
X0020792Y0044148D01*
X0020767Y0044099D01*
X0020739Y0044052D01*
X0020708Y0044007D01*
X0020674Y0043965D01*
X0020636Y0043925D01*
X0020596Y0043887D01*
X0020554Y0043853D01*
X0020509Y0043822D01*
X0020462Y0043794D01*
X0020413Y0043769D01*
X0020362Y0043748D01*
X0020310Y0043731D01*
X0020257Y0043718D01*
X0020203Y0043708D01*
X0020149Y0043702D01*
X0020094Y0043700D01*
X0020860Y0044467D02*
X0020860Y0048300D01*
X0021180Y0051200D02*
X0021180Y0054267D01*
X0021052Y0055544D02*
X0021308Y0055544D01*
X0021308Y0055800D01*
X0021052Y0055800D01*
X0021052Y0055544D01*
X0022886Y0055800D02*
X0023908Y0051200D01*
X0024930Y0054267D01*
X0025952Y0051200D01*
X0026975Y0055800D01*
X0031258Y0053500D02*
X0031258Y0051200D01*
X0031258Y0053500D02*
X0031260Y0053555D01*
X0031266Y0053609D01*
X0031276Y0053663D01*
X0031289Y0053716D01*
X0031306Y0053768D01*
X0031327Y0053819D01*
X0031352Y0053868D01*
X0031380Y0053915D01*
X0031411Y0053960D01*
X0031445Y0054002D01*
X0031483Y0054042D01*
X0031523Y0054080D01*
X0031565Y0054114D01*
X0031610Y0054145D01*
X0031657Y0054173D01*
X0031706Y0054198D01*
X0031757Y0054219D01*
X0031809Y0054236D01*
X0031862Y0054249D01*
X0031916Y0054259D01*
X0031970Y0054265D01*
X0032025Y0054267D01*
X0033302Y0054267D01*
X0033302Y0051200D01*
X0034893Y0053756D02*
X0034893Y0054267D01*
X0036426Y0054267D01*
X0036426Y0051200D01*
X0038458Y0051200D02*
X0039736Y0051200D01*
X0039791Y0051202D01*
X0039845Y0051208D01*
X0039899Y0051218D01*
X0039952Y0051231D01*
X0040004Y0051248D01*
X0040055Y0051269D01*
X0040104Y0051294D01*
X0040151Y0051322D01*
X0040196Y0051353D01*
X0040238Y0051387D01*
X0040278Y0051425D01*
X0040316Y0051465D01*
X0040350Y0051507D01*
X0040381Y0051552D01*
X0040409Y0051599D01*
X0040434Y0051648D01*
X0040455Y0051699D01*
X0040472Y0051751D01*
X0040485Y0051804D01*
X0040495Y0051858D01*
X0040501Y0051912D01*
X0040503Y0051967D01*
X0040502Y0051967D02*
X0040502Y0053244D01*
X0040502Y0052733D02*
X0038458Y0052733D01*
X0038458Y0053244D01*
X0038460Y0053307D01*
X0038466Y0053370D01*
X0038475Y0053432D01*
X0038489Y0053493D01*
X0038506Y0053554D01*
X0038527Y0053613D01*
X0038552Y0053671D01*
X0038580Y0053728D01*
X0038611Y0053782D01*
X0038646Y0053834D01*
X0038684Y0053885D01*
X0038725Y0053933D01*
X0038769Y0053978D01*
X0038815Y0054020D01*
X0038864Y0054060D01*
X0038915Y0054096D01*
X0038969Y0054129D01*
X0039024Y0054159D01*
X0039082Y0054185D01*
X0039140Y0054208D01*
X0039200Y0054227D01*
X0039261Y0054242D01*
X0039323Y0054254D01*
X0039386Y0054262D01*
X0039449Y0054266D01*
X0039511Y0054266D01*
X0039574Y0054262D01*
X0039637Y0054254D01*
X0039699Y0054242D01*
X0039760Y0054227D01*
X0039820Y0054208D01*
X0039878Y0054185D01*
X0039936Y0054159D01*
X0039991Y0054129D01*
X0040045Y0054096D01*
X0040096Y0054060D01*
X0040145Y0054020D01*
X0040191Y0053978D01*
X0040235Y0053933D01*
X0040276Y0053885D01*
X0040314Y0053834D01*
X0040349Y0053782D01*
X0040380Y0053728D01*
X0040408Y0053671D01*
X0040433Y0053613D01*
X0040454Y0053554D01*
X0040471Y0053493D01*
X0040485Y0053432D01*
X0040494Y0053370D01*
X0040500Y0053307D01*
X0040502Y0053244D01*
X0042508Y0053500D02*
X0042508Y0051200D01*
X0042508Y0053500D02*
X0042510Y0053555D01*
X0042516Y0053609D01*
X0042526Y0053663D01*
X0042539Y0053716D01*
X0042556Y0053768D01*
X0042577Y0053819D01*
X0042602Y0053868D01*
X0042630Y0053915D01*
X0042661Y0053960D01*
X0042695Y0054002D01*
X0042733Y0054042D01*
X0042773Y0054080D01*
X0042815Y0054114D01*
X0042860Y0054145D01*
X0042907Y0054173D01*
X0042956Y0054198D01*
X0043007Y0054219D01*
X0043059Y0054236D01*
X0043112Y0054249D01*
X0043166Y0054259D01*
X0043220Y0054265D01*
X0043275Y0054267D01*
X0044552Y0054267D01*
X0044552Y0055800D02*
X0044552Y0051200D01*
X0046400Y0051200D02*
X0046656Y0051200D01*
X0046711Y0051202D01*
X0046765Y0051208D01*
X0046819Y0051218D01*
X0046872Y0051231D01*
X0046924Y0051248D01*
X0046975Y0051269D01*
X0047024Y0051294D01*
X0047071Y0051322D01*
X0047116Y0051353D01*
X0047158Y0051387D01*
X0047198Y0051425D01*
X0047236Y0051465D01*
X0047270Y0051507D01*
X0047301Y0051552D01*
X0047329Y0051599D01*
X0047354Y0051648D01*
X0047375Y0051699D01*
X0047392Y0051751D01*
X0047405Y0051804D01*
X0047415Y0051858D01*
X0047421Y0051912D01*
X0047423Y0051967D01*
X0047422Y0051967D02*
X0047422Y0055800D01*
X0047933Y0054267D02*
X0046400Y0054267D01*
X0048993Y0054267D02*
X0048993Y0053756D01*
X0048993Y0054267D02*
X0050526Y0054267D01*
X0050526Y0051200D01*
X0050896Y0048300D02*
X0050896Y0043700D01*
X0049618Y0043700D01*
X0049563Y0043702D01*
X0049509Y0043708D01*
X0049455Y0043718D01*
X0049402Y0043731D01*
X0049350Y0043748D01*
X0049299Y0043769D01*
X0049250Y0043794D01*
X0049203Y0043822D01*
X0049158Y0043853D01*
X0049116Y0043887D01*
X0049076Y0043925D01*
X0049038Y0043965D01*
X0049004Y0044007D01*
X0048973Y0044052D01*
X0048945Y0044099D01*
X0048920Y0044148D01*
X0048899Y0044199D01*
X0048882Y0044251D01*
X0048869Y0044304D01*
X0048859Y0044358D01*
X0048853Y0044412D01*
X0048851Y0044467D01*
X0048852Y0044467D02*
X0048852Y0046000D01*
X0048851Y0046000D02*
X0048853Y0046052D01*
X0048858Y0046104D01*
X0048867Y0046156D01*
X0048879Y0046207D01*
X0048895Y0046257D01*
X0048915Y0046306D01*
X0048937Y0046353D01*
X0048963Y0046399D01*
X0048991Y0046442D01*
X0049023Y0046484D01*
X0049057Y0046524D01*
X0049094Y0046561D01*
X0049134Y0046595D01*
X0049176Y0046627D01*
X0049219Y0046655D01*
X0049265Y0046681D01*
X0049312Y0046704D01*
X0049361Y0046723D01*
X0049411Y0046739D01*
X0049462Y0046751D01*
X0049514Y0046760D01*
X0049566Y0046765D01*
X0049618Y0046767D01*
X0050896Y0046767D01*
X0052925Y0045744D02*
X0052925Y0044722D01*
X0052927Y0044659D01*
X0052933Y0044596D01*
X0052942Y0044534D01*
X0052956Y0044473D01*
X0052973Y0044412D01*
X0052994Y0044353D01*
X0053019Y0044295D01*
X0053047Y0044238D01*
X0053078Y0044184D01*
X0053113Y0044132D01*
X0053151Y0044081D01*
X0053192Y0044033D01*
X0053236Y0043988D01*
X0053282Y0043946D01*
X0053331Y0043906D01*
X0053382Y0043870D01*
X0053436Y0043837D01*
X0053491Y0043807D01*
X0053549Y0043781D01*
X0053607Y0043758D01*
X0053667Y0043739D01*
X0053728Y0043724D01*
X0053790Y0043712D01*
X0053853Y0043704D01*
X0053916Y0043700D01*
X0053978Y0043700D01*
X0054041Y0043704D01*
X0054104Y0043712D01*
X0054166Y0043724D01*
X0054227Y0043739D01*
X0054287Y0043758D01*
X0054345Y0043781D01*
X0054403Y0043807D01*
X0054458Y0043837D01*
X0054512Y0043870D01*
X0054563Y0043906D01*
X0054612Y0043946D01*
X0054658Y0043988D01*
X0054702Y0044033D01*
X0054743Y0044081D01*
X0054781Y0044132D01*
X0054816Y0044184D01*
X0054847Y0044238D01*
X0054875Y0044295D01*
X0054900Y0044353D01*
X0054921Y0044412D01*
X0054938Y0044473D01*
X0054952Y0044534D01*
X0054961Y0044596D01*
X0054967Y0044659D01*
X0054969Y0044722D01*
X0054969Y0045744D01*
X0054967Y0045807D01*
X0054961Y0045870D01*
X0054952Y0045932D01*
X0054938Y0045993D01*
X0054921Y0046054D01*
X0054900Y0046113D01*
X0054875Y0046171D01*
X0054847Y0046228D01*
X0054816Y0046282D01*
X0054781Y0046334D01*
X0054743Y0046385D01*
X0054702Y0046433D01*
X0054658Y0046478D01*
X0054612Y0046520D01*
X0054563Y0046560D01*
X0054512Y0046596D01*
X0054458Y0046629D01*
X0054403Y0046659D01*
X0054345Y0046685D01*
X0054287Y0046708D01*
X0054227Y0046727D01*
X0054166Y0046742D01*
X0054104Y0046754D01*
X0054041Y0046762D01*
X0053978Y0046766D01*
X0053916Y0046766D01*
X0053853Y0046762D01*
X0053790Y0046754D01*
X0053728Y0046742D01*
X0053667Y0046727D01*
X0053607Y0046708D01*
X0053549Y0046685D01*
X0053491Y0046659D01*
X0053436Y0046629D01*
X0053382Y0046596D01*
X0053331Y0046560D01*
X0053282Y0046520D01*
X0053236Y0046478D01*
X0053192Y0046433D01*
X0053151Y0046385D01*
X0053113Y0046334D01*
X0053078Y0046282D01*
X0053047Y0046228D01*
X0053019Y0046171D01*
X0052994Y0046113D01*
X0052973Y0046054D01*
X0052956Y0045993D01*
X0052942Y0045932D01*
X0052933Y0045870D01*
X0052927Y0045807D01*
X0052925Y0045744D01*
X0052558Y0052222D02*
X0052558Y0053244D01*
X0052560Y0053307D01*
X0052566Y0053370D01*
X0052575Y0053432D01*
X0052589Y0053493D01*
X0052606Y0053554D01*
X0052627Y0053613D01*
X0052652Y0053671D01*
X0052680Y0053728D01*
X0052711Y0053782D01*
X0052746Y0053834D01*
X0052784Y0053885D01*
X0052825Y0053933D01*
X0052869Y0053978D01*
X0052915Y0054020D01*
X0052964Y0054060D01*
X0053015Y0054096D01*
X0053069Y0054129D01*
X0053124Y0054159D01*
X0053182Y0054185D01*
X0053240Y0054208D01*
X0053300Y0054227D01*
X0053361Y0054242D01*
X0053423Y0054254D01*
X0053486Y0054262D01*
X0053549Y0054266D01*
X0053611Y0054266D01*
X0053674Y0054262D01*
X0053737Y0054254D01*
X0053799Y0054242D01*
X0053860Y0054227D01*
X0053920Y0054208D01*
X0053978Y0054185D01*
X0054036Y0054159D01*
X0054091Y0054129D01*
X0054145Y0054096D01*
X0054196Y0054060D01*
X0054245Y0054020D01*
X0054291Y0053978D01*
X0054335Y0053933D01*
X0054376Y0053885D01*
X0054414Y0053834D01*
X0054449Y0053782D01*
X0054480Y0053728D01*
X0054508Y0053671D01*
X0054533Y0053613D01*
X0054554Y0053554D01*
X0054571Y0053493D01*
X0054585Y0053432D01*
X0054594Y0053370D01*
X0054600Y0053307D01*
X0054602Y0053244D01*
X0054602Y0052222D01*
X0054600Y0052159D01*
X0054594Y0052096D01*
X0054585Y0052034D01*
X0054571Y0051973D01*
X0054554Y0051912D01*
X0054533Y0051853D01*
X0054508Y0051795D01*
X0054480Y0051738D01*
X0054449Y0051684D01*
X0054414Y0051632D01*
X0054376Y0051581D01*
X0054335Y0051533D01*
X0054291Y0051488D01*
X0054245Y0051446D01*
X0054196Y0051406D01*
X0054145Y0051370D01*
X0054091Y0051337D01*
X0054036Y0051307D01*
X0053978Y0051281D01*
X0053920Y0051258D01*
X0053860Y0051239D01*
X0053799Y0051224D01*
X0053737Y0051212D01*
X0053674Y0051204D01*
X0053611Y0051200D01*
X0053549Y0051200D01*
X0053486Y0051204D01*
X0053423Y0051212D01*
X0053361Y0051224D01*
X0053300Y0051239D01*
X0053240Y0051258D01*
X0053182Y0051281D01*
X0053124Y0051307D01*
X0053069Y0051337D01*
X0053015Y0051370D01*
X0052964Y0051406D01*
X0052915Y0051446D01*
X0052869Y0051488D01*
X0052825Y0051533D01*
X0052784Y0051581D01*
X0052746Y0051632D01*
X0052711Y0051684D01*
X0052680Y0051738D01*
X0052652Y0051795D01*
X0052627Y0051853D01*
X0052606Y0051912D01*
X0052589Y0051973D01*
X0052575Y0052034D01*
X0052566Y0052096D01*
X0052560Y0052159D01*
X0052558Y0052222D01*
X0056652Y0051200D02*
X0056652Y0055800D01*
X0059208Y0055800D02*
X0056652Y0051200D01*
X0057930Y0048300D02*
X0059208Y0048300D01*
X0059208Y0043700D01*
X0057930Y0043700D01*
X0057860Y0043702D01*
X0057789Y0043708D01*
X0057720Y0043717D01*
X0057651Y0043731D01*
X0057582Y0043748D01*
X0057515Y0043769D01*
X0057449Y0043794D01*
X0057385Y0043822D01*
X0057322Y0043854D01*
X0057261Y0043889D01*
X0057202Y0043928D01*
X0057145Y0043969D01*
X0057091Y0044014D01*
X0057039Y0044062D01*
X0056990Y0044112D01*
X0056943Y0044166D01*
X0056900Y0044221D01*
X0056860Y0044279D01*
X0056823Y0044339D01*
X0056790Y0044401D01*
X0056760Y0044465D01*
X0056733Y0044530D01*
X0056710Y0044596D01*
X0056691Y0044664D01*
X0056676Y0044733D01*
X0056664Y0044802D01*
X0056656Y0044872D01*
X0056652Y0044943D01*
X0056652Y0045013D01*
X0056656Y0045084D01*
X0056664Y0045154D01*
X0056676Y0045223D01*
X0056691Y0045292D01*
X0056710Y0045360D01*
X0056733Y0045426D01*
X0056760Y0045491D01*
X0056790Y0045555D01*
X0056823Y0045617D01*
X0056860Y0045677D01*
X0056900Y0045735D01*
X0056943Y0045790D01*
X0056990Y0045844D01*
X0057039Y0045894D01*
X0057091Y0045942D01*
X0057145Y0045987D01*
X0057202Y0046028D01*
X0057261Y0046067D01*
X0057322Y0046102D01*
X0057385Y0046134D01*
X0057449Y0046162D01*
X0057515Y0046187D01*
X0057582Y0046208D01*
X0057651Y0046225D01*
X0057720Y0046239D01*
X0057789Y0046248D01*
X0057860Y0046254D01*
X0057930Y0046256D01*
X0059208Y0046256D01*
X0057930Y0046256D02*
X0057867Y0046258D01*
X0057804Y0046264D01*
X0057742Y0046273D01*
X0057681Y0046287D01*
X0057620Y0046304D01*
X0057561Y0046325D01*
X0057503Y0046350D01*
X0057446Y0046378D01*
X0057392Y0046409D01*
X0057340Y0046444D01*
X0057289Y0046482D01*
X0057241Y0046523D01*
X0057196Y0046567D01*
X0057154Y0046613D01*
X0057114Y0046662D01*
X0057078Y0046713D01*
X0057045Y0046767D01*
X0057015Y0046822D01*
X0056989Y0046880D01*
X0056966Y0046938D01*
X0056947Y0046998D01*
X0056932Y0047059D01*
X0056920Y0047121D01*
X0056912Y0047184D01*
X0056908Y0047247D01*
X0056908Y0047309D01*
X0056912Y0047372D01*
X0056920Y0047435D01*
X0056932Y0047497D01*
X0056947Y0047558D01*
X0056966Y0047618D01*
X0056989Y0047676D01*
X0057015Y0047734D01*
X0057045Y0047789D01*
X0057078Y0047843D01*
X0057114Y0047894D01*
X0057154Y0047943D01*
X0057196Y0047989D01*
X0057241Y0048033D01*
X0057289Y0048074D01*
X0057340Y0048112D01*
X0057392Y0048147D01*
X0057446Y0048178D01*
X0057503Y0048206D01*
X0057561Y0048231D01*
X0057620Y0048252D01*
X0057681Y0048269D01*
X0057742Y0048283D01*
X0057804Y0048292D01*
X0057867Y0048298D01*
X0057930Y0048300D01*
X0059208Y0051200D02*
X0059208Y0055800D01*
X0046846Y0048300D02*
X0046846Y0043700D01*
X0045568Y0043700D01*
X0045513Y0043702D01*
X0045459Y0043708D01*
X0045405Y0043718D01*
X0045352Y0043731D01*
X0045300Y0043748D01*
X0045249Y0043769D01*
X0045200Y0043794D01*
X0045153Y0043822D01*
X0045108Y0043853D01*
X0045066Y0043887D01*
X0045026Y0043925D01*
X0044988Y0043965D01*
X0044954Y0044007D01*
X0044923Y0044052D01*
X0044895Y0044099D01*
X0044870Y0044148D01*
X0044849Y0044199D01*
X0044832Y0044251D01*
X0044819Y0044304D01*
X0044809Y0044358D01*
X0044803Y0044412D01*
X0044801Y0044467D01*
X0044802Y0044467D02*
X0044802Y0046000D01*
X0044801Y0046000D02*
X0044803Y0046052D01*
X0044808Y0046104D01*
X0044817Y0046156D01*
X0044829Y0046207D01*
X0044845Y0046257D01*
X0044865Y0046306D01*
X0044887Y0046353D01*
X0044913Y0046399D01*
X0044941Y0046442D01*
X0044973Y0046484D01*
X0045007Y0046524D01*
X0045044Y0046561D01*
X0045084Y0046595D01*
X0045126Y0046627D01*
X0045169Y0046655D01*
X0045215Y0046681D01*
X0045262Y0046704D01*
X0045311Y0046723D01*
X0045361Y0046739D01*
X0045412Y0046751D01*
X0045464Y0046760D01*
X0045516Y0046765D01*
X0045568Y0046767D01*
X0046846Y0046767D01*
X0043119Y0046767D02*
X0042097Y0043700D01*
X0042608Y0042167D02*
X0041075Y0046767D01*
X0042608Y0042167D02*
X0043119Y0042167D01*
X0036436Y0046383D02*
X0035030Y0045617D01*
X0035541Y0043700D02*
X0035631Y0043702D01*
X0035720Y0043707D01*
X0035809Y0043717D01*
X0035898Y0043730D01*
X0035986Y0043746D01*
X0036074Y0043767D01*
X0036160Y0043791D01*
X0036246Y0043818D01*
X0036330Y0043849D01*
X0036413Y0043884D01*
X0036494Y0043922D01*
X0036574Y0043963D01*
X0036651Y0044007D01*
X0036727Y0044055D01*
X0036801Y0044106D01*
X0036873Y0044160D01*
X0036943Y0044217D01*
X0037010Y0044276D01*
X0037074Y0044339D01*
X0035030Y0045616D02*
X0034976Y0045582D01*
X0034925Y0045545D01*
X0034876Y0045505D01*
X0034829Y0045462D01*
X0034786Y0045416D01*
X0034745Y0045368D01*
X0034707Y0045317D01*
X0034672Y0045264D01*
X0034640Y0045209D01*
X0034612Y0045152D01*
X0034588Y0045094D01*
X0034567Y0045034D01*
X0034550Y0044973D01*
X0034536Y0044911D01*
X0034527Y0044848D01*
X0034521Y0044785D01*
X0034519Y0044722D01*
X0034521Y0044660D01*
X0034526Y0044599D01*
X0034536Y0044538D01*
X0034549Y0044477D01*
X0034565Y0044418D01*
X0034585Y0044360D01*
X0034609Y0044303D01*
X0034636Y0044247D01*
X0034666Y0044193D01*
X0034700Y0044141D01*
X0034736Y0044092D01*
X0034776Y0044044D01*
X0034818Y0043999D01*
X0034863Y0043957D01*
X0034911Y0043917D01*
X0034960Y0043881D01*
X0035012Y0043847D01*
X0035066Y0043817D01*
X0035122Y0043790D01*
X0035179Y0043766D01*
X0035237Y0043746D01*
X0035296Y0043730D01*
X0035357Y0043717D01*
X0035418Y0043707D01*
X0035479Y0043702D01*
X0035541Y0043700D01*
X0034775Y0047917D02*
X0034842Y0047965D01*
X0034910Y0048010D01*
X0034981Y0048052D01*
X0035054Y0048090D01*
X0035128Y0048126D01*
X0035203Y0048159D01*
X0035280Y0048188D01*
X0035358Y0048214D01*
X0035437Y0048237D01*
X0035517Y0048256D01*
X0035598Y0048272D01*
X0035679Y0048284D01*
X0035761Y0048293D01*
X0035843Y0048298D01*
X0035925Y0048300D01*
X0035987Y0048298D01*
X0036048Y0048293D01*
X0036109Y0048283D01*
X0036170Y0048270D01*
X0036229Y0048254D01*
X0036287Y0048234D01*
X0036344Y0048210D01*
X0036400Y0048183D01*
X0036454Y0048153D01*
X0036506Y0048119D01*
X0036555Y0048083D01*
X0036603Y0048043D01*
X0036648Y0048001D01*
X0036690Y0047956D01*
X0036730Y0047908D01*
X0036766Y0047859D01*
X0036800Y0047807D01*
X0036830Y0047753D01*
X0036857Y0047697D01*
X0036881Y0047640D01*
X0036901Y0047582D01*
X0036917Y0047523D01*
X0036930Y0047462D01*
X0036940Y0047401D01*
X0036945Y0047340D01*
X0036947Y0047278D01*
X0036945Y0047215D01*
X0036939Y0047152D01*
X0036930Y0047089D01*
X0036916Y0047027D01*
X0036899Y0046966D01*
X0036878Y0046906D01*
X0036854Y0046848D01*
X0036826Y0046791D01*
X0036794Y0046736D01*
X0036759Y0046683D01*
X0036721Y0046632D01*
X0036680Y0046584D01*
X0036637Y0046538D01*
X0036590Y0046495D01*
X0036541Y0046455D01*
X0036490Y0046418D01*
X0036436Y0046384D01*
X0032764Y0046000D02*
X0032764Y0044467D01*
X0032762Y0044412D01*
X0032756Y0044358D01*
X0032746Y0044304D01*
X0032733Y0044251D01*
X0032716Y0044199D01*
X0032695Y0044148D01*
X0032670Y0044099D01*
X0032642Y0044052D01*
X0032611Y0044007D01*
X0032577Y0043965D01*
X0032539Y0043925D01*
X0032499Y0043887D01*
X0032457Y0043853D01*
X0032412Y0043822D01*
X0032365Y0043794D01*
X0032316Y0043769D01*
X0032265Y0043748D01*
X0032213Y0043731D01*
X0032160Y0043718D01*
X0032106Y0043708D01*
X0032052Y0043702D01*
X0031997Y0043700D01*
X0030975Y0043700D01*
X0032764Y0046000D02*
X0032762Y0046055D01*
X0032756Y0046109D01*
X0032746Y0046163D01*
X0032733Y0046216D01*
X0032716Y0046268D01*
X0032695Y0046319D01*
X0032670Y0046368D01*
X0032642Y0046415D01*
X0032611Y0046460D01*
X0032577Y0046502D01*
X0032539Y0046542D01*
X0032499Y0046580D01*
X0032457Y0046614D01*
X0032412Y0046645D01*
X0032365Y0046673D01*
X0032316Y0046698D01*
X0032265Y0046719D01*
X0032213Y0046736D01*
X0032160Y0046749D01*
X0032106Y0046759D01*
X0032052Y0046765D01*
X0031997Y0046767D01*
X0030975Y0046767D01*
X0029169Y0046767D02*
X0027891Y0046767D01*
X0027836Y0046765D01*
X0027782Y0046759D01*
X0027728Y0046749D01*
X0027675Y0046736D01*
X0027623Y0046719D01*
X0027572Y0046698D01*
X0027523Y0046673D01*
X0027476Y0046645D01*
X0027431Y0046614D01*
X0027389Y0046580D01*
X0027349Y0046542D01*
X0027311Y0046502D01*
X0027277Y0046460D01*
X0027246Y0046415D01*
X0027218Y0046368D01*
X0027193Y0046319D01*
X0027172Y0046268D01*
X0027155Y0046216D01*
X0027142Y0046163D01*
X0027132Y0046109D01*
X0027126Y0046055D01*
X0027124Y0046000D01*
X0027125Y0046000D02*
X0027125Y0043700D01*
X0029169Y0043700D02*
X0029169Y0048300D01*
X0024969Y0046767D02*
X0024969Y0044467D01*
X0024970Y0044467D02*
X0024968Y0044412D01*
X0024962Y0044358D01*
X0024952Y0044304D01*
X0024939Y0044251D01*
X0024922Y0044199D01*
X0024901Y0044148D01*
X0024876Y0044099D01*
X0024848Y0044052D01*
X0024817Y0044007D01*
X0024783Y0043965D01*
X0024745Y0043925D01*
X0024705Y0043887D01*
X0024663Y0043853D01*
X0024618Y0043822D01*
X0024571Y0043794D01*
X0024522Y0043769D01*
X0024471Y0043748D01*
X0024419Y0043731D01*
X0024366Y0043718D01*
X0024312Y0043708D01*
X0024258Y0043702D01*
X0024203Y0043700D01*
X0022925Y0043700D01*
X0022925Y0046767D01*
X0019376Y0051967D02*
X0019376Y0053500D01*
X0019374Y0053555D01*
X0019368Y0053609D01*
X0019358Y0053663D01*
X0019345Y0053716D01*
X0019328Y0053768D01*
X0019307Y0053819D01*
X0019282Y0053868D01*
X0019254Y0053915D01*
X0019223Y0053960D01*
X0019189Y0054002D01*
X0019151Y0054042D01*
X0019111Y0054080D01*
X0019069Y0054114D01*
X0019024Y0054145D01*
X0018977Y0054173D01*
X0018928Y0054198D01*
X0018877Y0054219D01*
X0018825Y0054236D01*
X0018772Y0054249D01*
X0018718Y0054259D01*
X0018664Y0054265D01*
X0018609Y0054267D01*
X0017331Y0054267D01*
X0017331Y0055800D02*
X0017331Y0051200D01*
X0018609Y0051200D01*
X0018664Y0051202D01*
X0018718Y0051208D01*
X0018772Y0051218D01*
X0018825Y0051231D01*
X0018877Y0051248D01*
X0018928Y0051269D01*
X0018977Y0051294D01*
X0019024Y0051322D01*
X0019069Y0051353D01*
X0019111Y0051387D01*
X0019151Y0051425D01*
X0019189Y0051465D01*
X0019223Y0051507D01*
X0019254Y0051552D01*
X0019282Y0051599D01*
X0019307Y0051648D01*
X0019328Y0051699D01*
X0019345Y0051751D01*
X0019358Y0051804D01*
X0019368Y0051858D01*
X0019374Y0051912D01*
X0019376Y0051967D01*
X0015326Y0051967D02*
X0015326Y0053500D01*
X0015324Y0053555D01*
X0015318Y0053609D01*
X0015308Y0053663D01*
X0015295Y0053716D01*
X0015278Y0053768D01*
X0015257Y0053819D01*
X0015232Y0053868D01*
X0015204Y0053915D01*
X0015173Y0053960D01*
X0015139Y0054002D01*
X0015101Y0054042D01*
X0015061Y0054080D01*
X0015019Y0054114D01*
X0014974Y0054145D01*
X0014927Y0054173D01*
X0014878Y0054198D01*
X0014827Y0054219D01*
X0014775Y0054236D01*
X0014722Y0054249D01*
X0014668Y0054259D01*
X0014614Y0054265D01*
X0014559Y0054267D01*
X0013281Y0054267D01*
X0013281Y0050433D01*
X0013283Y0050378D01*
X0013289Y0050324D01*
X0013299Y0050270D01*
X0013312Y0050217D01*
X0013329Y0050165D01*
X0013350Y0050114D01*
X0013375Y0050065D01*
X0013403Y0050018D01*
X0013434Y0049973D01*
X0013468Y0049931D01*
X0013506Y0049891D01*
X0013546Y0049853D01*
X0013588Y0049819D01*
X0013633Y0049788D01*
X0013680Y0049760D01*
X0013729Y0049735D01*
X0013780Y0049714D01*
X0013832Y0049697D01*
X0013885Y0049684D01*
X0013939Y0049674D01*
X0013993Y0049668D01*
X0014048Y0049666D01*
X0014048Y0049667D02*
X0015070Y0049667D01*
X0014559Y0051200D02*
X0013281Y0051200D01*
X0014559Y0051200D02*
X0014614Y0051202D01*
X0014668Y0051208D01*
X0014722Y0051218D01*
X0014775Y0051231D01*
X0014827Y0051248D01*
X0014878Y0051269D01*
X0014927Y0051294D01*
X0014974Y0051322D01*
X0015019Y0051353D01*
X0015061Y0051387D01*
X0015101Y0051425D01*
X0015139Y0051465D01*
X0015173Y0051507D01*
X0015204Y0051552D01*
X0015232Y0051599D01*
X0015257Y0051648D01*
X0015278Y0051699D01*
X0015295Y0051751D01*
X0015308Y0051804D01*
X0015318Y0051858D01*
X0015324Y0051912D01*
X0015326Y0051967D01*
X0011253Y0051967D02*
X0011253Y0053244D01*
X0011253Y0052733D02*
X0009208Y0052733D01*
X0009208Y0053244D01*
X0009210Y0053307D01*
X0009216Y0053370D01*
X0009225Y0053432D01*
X0009239Y0053493D01*
X0009256Y0053554D01*
X0009277Y0053613D01*
X0009302Y0053671D01*
X0009330Y0053728D01*
X0009361Y0053782D01*
X0009396Y0053834D01*
X0009434Y0053885D01*
X0009475Y0053933D01*
X0009519Y0053978D01*
X0009565Y0054020D01*
X0009614Y0054060D01*
X0009665Y0054096D01*
X0009719Y0054129D01*
X0009774Y0054159D01*
X0009832Y0054185D01*
X0009890Y0054208D01*
X0009950Y0054227D01*
X0010011Y0054242D01*
X0010073Y0054254D01*
X0010136Y0054262D01*
X0010199Y0054266D01*
X0010261Y0054266D01*
X0010324Y0054262D01*
X0010387Y0054254D01*
X0010449Y0054242D01*
X0010510Y0054227D01*
X0010570Y0054208D01*
X0010628Y0054185D01*
X0010686Y0054159D01*
X0010741Y0054129D01*
X0010795Y0054096D01*
X0010846Y0054060D01*
X0010895Y0054020D01*
X0010941Y0053978D01*
X0010985Y0053933D01*
X0011026Y0053885D01*
X0011064Y0053834D01*
X0011099Y0053782D01*
X0011130Y0053728D01*
X0011158Y0053671D01*
X0011183Y0053613D01*
X0011204Y0053554D01*
X0011221Y0053493D01*
X0011235Y0053432D01*
X0011244Y0053370D01*
X0011250Y0053307D01*
X0011252Y0053244D01*
X0011253Y0051967D02*
X0011251Y0051912D01*
X0011245Y0051858D01*
X0011235Y0051804D01*
X0011222Y0051751D01*
X0011205Y0051699D01*
X0011184Y0051648D01*
X0011159Y0051599D01*
X0011131Y0051552D01*
X0011100Y0051507D01*
X0011066Y0051465D01*
X0011028Y0051425D01*
X0010988Y0051387D01*
X0010946Y0051353D01*
X0010901Y0051322D01*
X0010854Y0051294D01*
X0010805Y0051269D01*
X0010754Y0051248D01*
X0010702Y0051231D01*
X0010649Y0051218D01*
X0010595Y0051208D01*
X0010541Y0051202D01*
X0010486Y0051200D01*
X0009208Y0051200D01*
X0007222Y0051967D02*
X0007222Y0055800D01*
X0007733Y0054267D02*
X0006200Y0054267D01*
X0007223Y0051967D02*
X0007221Y0051912D01*
X0007215Y0051858D01*
X0007205Y0051804D01*
X0007192Y0051751D01*
X0007175Y0051699D01*
X0007154Y0051648D01*
X0007129Y0051599D01*
X0007101Y0051552D01*
X0007070Y0051507D01*
X0007036Y0051465D01*
X0006998Y0051425D01*
X0006958Y0051387D01*
X0006916Y0051353D01*
X0006871Y0051322D01*
X0006824Y0051294D01*
X0006775Y0051269D01*
X0006724Y0051248D01*
X0006672Y0051231D01*
X0006619Y0051218D01*
X0006565Y0051208D01*
X0006511Y0051202D01*
X0006456Y0051200D01*
X0006200Y0051200D01*
M02*
