G75*
%MOIN*%
%OFA0B0*%
%FSLAX25Y25*%
%IPPOS*%
%LPD*%
%AMOC8*
5,1,8,0,0,1.08239X$1,22.5*
%
%ADD10C,0.00000*%
D10*
X0001000Y0008874D02*
X0001000Y0105126D01*
X0001002Y0105316D01*
X0001009Y0105506D01*
X0001021Y0105696D01*
X0001037Y0105886D01*
X0001057Y0106075D01*
X0001083Y0106264D01*
X0001112Y0106452D01*
X0001147Y0106639D01*
X0001186Y0106825D01*
X0001229Y0107010D01*
X0001277Y0107195D01*
X0001329Y0107378D01*
X0001385Y0107559D01*
X0001446Y0107739D01*
X0001512Y0107918D01*
X0001581Y0108095D01*
X0001655Y0108271D01*
X0001733Y0108444D01*
X0001816Y0108616D01*
X0001902Y0108785D01*
X0001992Y0108953D01*
X0002087Y0109118D01*
X0002185Y0109281D01*
X0002288Y0109441D01*
X0002394Y0109599D01*
X0002504Y0109754D01*
X0002617Y0109907D01*
X0002735Y0110057D01*
X0002856Y0110203D01*
X0002980Y0110347D01*
X0003108Y0110488D01*
X0003239Y0110626D01*
X0003374Y0110761D01*
X0003512Y0110892D01*
X0003653Y0111020D01*
X0003797Y0111144D01*
X0003943Y0111265D01*
X0004093Y0111383D01*
X0004246Y0111496D01*
X0004401Y0111606D01*
X0004559Y0111712D01*
X0004719Y0111815D01*
X0004882Y0111913D01*
X0005047Y0112008D01*
X0005215Y0112098D01*
X0005384Y0112184D01*
X0005556Y0112267D01*
X0005729Y0112345D01*
X0005905Y0112419D01*
X0006082Y0112488D01*
X0006261Y0112554D01*
X0006441Y0112615D01*
X0006622Y0112671D01*
X0006805Y0112723D01*
X0006990Y0112771D01*
X0007175Y0112814D01*
X0007361Y0112853D01*
X0007548Y0112888D01*
X0007736Y0112917D01*
X0007925Y0112943D01*
X0008114Y0112963D01*
X0008304Y0112979D01*
X0008494Y0112991D01*
X0008684Y0112998D01*
X0008874Y0113000D01*
X0058126Y0113000D01*
X0058316Y0112998D01*
X0058506Y0112991D01*
X0058696Y0112979D01*
X0058886Y0112963D01*
X0059075Y0112943D01*
X0059264Y0112917D01*
X0059452Y0112888D01*
X0059639Y0112853D01*
X0059825Y0112814D01*
X0060010Y0112771D01*
X0060195Y0112723D01*
X0060378Y0112671D01*
X0060559Y0112615D01*
X0060739Y0112554D01*
X0060918Y0112488D01*
X0061095Y0112419D01*
X0061271Y0112345D01*
X0061444Y0112267D01*
X0061616Y0112184D01*
X0061785Y0112098D01*
X0061953Y0112008D01*
X0062118Y0111913D01*
X0062281Y0111815D01*
X0062441Y0111712D01*
X0062599Y0111606D01*
X0062754Y0111496D01*
X0062907Y0111383D01*
X0063057Y0111265D01*
X0063203Y0111144D01*
X0063347Y0111020D01*
X0063488Y0110892D01*
X0063626Y0110761D01*
X0063761Y0110626D01*
X0063892Y0110488D01*
X0064020Y0110347D01*
X0064144Y0110203D01*
X0064265Y0110057D01*
X0064383Y0109907D01*
X0064496Y0109754D01*
X0064606Y0109599D01*
X0064712Y0109441D01*
X0064815Y0109281D01*
X0064913Y0109118D01*
X0065008Y0108953D01*
X0065098Y0108785D01*
X0065184Y0108616D01*
X0065267Y0108444D01*
X0065345Y0108271D01*
X0065419Y0108095D01*
X0065488Y0107918D01*
X0065554Y0107739D01*
X0065615Y0107559D01*
X0065671Y0107378D01*
X0065723Y0107195D01*
X0065771Y0107010D01*
X0065814Y0106825D01*
X0065853Y0106639D01*
X0065888Y0106452D01*
X0065917Y0106264D01*
X0065943Y0106075D01*
X0065963Y0105886D01*
X0065979Y0105696D01*
X0065991Y0105506D01*
X0065998Y0105316D01*
X0066000Y0105126D01*
X0066000Y0008874D01*
X0065998Y0008684D01*
X0065991Y0008494D01*
X0065979Y0008304D01*
X0065963Y0008114D01*
X0065943Y0007925D01*
X0065917Y0007736D01*
X0065888Y0007548D01*
X0065853Y0007361D01*
X0065814Y0007175D01*
X0065771Y0006990D01*
X0065723Y0006805D01*
X0065671Y0006622D01*
X0065615Y0006441D01*
X0065554Y0006261D01*
X0065488Y0006082D01*
X0065419Y0005905D01*
X0065345Y0005729D01*
X0065267Y0005556D01*
X0065184Y0005384D01*
X0065098Y0005215D01*
X0065008Y0005047D01*
X0064913Y0004882D01*
X0064815Y0004719D01*
X0064712Y0004559D01*
X0064606Y0004401D01*
X0064496Y0004246D01*
X0064383Y0004093D01*
X0064265Y0003943D01*
X0064144Y0003797D01*
X0064020Y0003653D01*
X0063892Y0003512D01*
X0063761Y0003374D01*
X0063626Y0003239D01*
X0063488Y0003108D01*
X0063347Y0002980D01*
X0063203Y0002856D01*
X0063057Y0002735D01*
X0062907Y0002617D01*
X0062754Y0002504D01*
X0062599Y0002394D01*
X0062441Y0002288D01*
X0062281Y0002185D01*
X0062118Y0002087D01*
X0061953Y0001992D01*
X0061785Y0001902D01*
X0061616Y0001816D01*
X0061444Y0001733D01*
X0061271Y0001655D01*
X0061095Y0001581D01*
X0060918Y0001512D01*
X0060739Y0001446D01*
X0060559Y0001385D01*
X0060378Y0001329D01*
X0060195Y0001277D01*
X0060010Y0001229D01*
X0059825Y0001186D01*
X0059639Y0001147D01*
X0059452Y0001112D01*
X0059264Y0001083D01*
X0059075Y0001057D01*
X0058886Y0001037D01*
X0058696Y0001021D01*
X0058506Y0001009D01*
X0058316Y0001002D01*
X0058126Y0001000D01*
X0008874Y0001000D01*
X0008684Y0001002D01*
X0008494Y0001009D01*
X0008304Y0001021D01*
X0008114Y0001037D01*
X0007925Y0001057D01*
X0007736Y0001083D01*
X0007548Y0001112D01*
X0007361Y0001147D01*
X0007175Y0001186D01*
X0006990Y0001229D01*
X0006805Y0001277D01*
X0006622Y0001329D01*
X0006441Y0001385D01*
X0006261Y0001446D01*
X0006082Y0001512D01*
X0005905Y0001581D01*
X0005729Y0001655D01*
X0005556Y0001733D01*
X0005384Y0001816D01*
X0005215Y0001902D01*
X0005047Y0001992D01*
X0004882Y0002087D01*
X0004719Y0002185D01*
X0004559Y0002288D01*
X0004401Y0002394D01*
X0004246Y0002504D01*
X0004093Y0002617D01*
X0003943Y0002735D01*
X0003797Y0002856D01*
X0003653Y0002980D01*
X0003512Y0003108D01*
X0003374Y0003239D01*
X0003239Y0003374D01*
X0003108Y0003512D01*
X0002980Y0003653D01*
X0002856Y0003797D01*
X0002735Y0003943D01*
X0002617Y0004093D01*
X0002504Y0004246D01*
X0002394Y0004401D01*
X0002288Y0004559D01*
X0002185Y0004719D01*
X0002087Y0004882D01*
X0001992Y0005047D01*
X0001902Y0005215D01*
X0001816Y0005384D01*
X0001733Y0005556D01*
X0001655Y0005729D01*
X0001581Y0005905D01*
X0001512Y0006082D01*
X0001446Y0006261D01*
X0001385Y0006441D01*
X0001329Y0006622D01*
X0001277Y0006805D01*
X0001229Y0006990D01*
X0001186Y0007175D01*
X0001147Y0007361D01*
X0001112Y0007548D01*
X0001083Y0007736D01*
X0001057Y0007925D01*
X0001037Y0008114D01*
X0001021Y0008304D01*
X0001009Y0008494D01*
X0001002Y0008684D01*
X0001000Y0008874D01*
M02*
