G75*
%MOIN*%
%OFA0B0*%
%FSLAX25Y25*%
%IPPOS*%
%LPD*%
%AMOC8*
5,1,8,0,0,1.08239X$1,22.5*
%
%ADD10C,0.00800*%
D10*
X0392434Y0022113D02*
X0398733Y0022113D01*
X0391646Y0028806D02*
X0391636Y0028866D01*
X0391630Y0028926D01*
X0391627Y0028987D01*
X0391628Y0029047D01*
X0391632Y0029108D01*
X0391641Y0029168D01*
X0391652Y0029227D01*
X0391668Y0029286D01*
X0391687Y0029344D01*
X0391709Y0029400D01*
X0391735Y0029455D01*
X0391764Y0029508D01*
X0391796Y0029560D01*
X0391831Y0029609D01*
X0391869Y0029657D01*
X0391910Y0029701D01*
X0391953Y0029744D01*
X0391999Y0029783D01*
X0392047Y0029820D01*
X0392098Y0029854D01*
X0392150Y0029884D01*
X0392204Y0029912D01*
X0392260Y0029936D01*
X0392317Y0029957D01*
X0392375Y0029974D01*
X0392434Y0029988D01*
X0398733Y0029988D02*
X0398792Y0029974D01*
X0398850Y0029957D01*
X0398907Y0029936D01*
X0398963Y0029912D01*
X0399017Y0029884D01*
X0399069Y0029854D01*
X0399120Y0029820D01*
X0399168Y0029783D01*
X0399214Y0029744D01*
X0399257Y0029701D01*
X0399298Y0029657D01*
X0399336Y0029609D01*
X0399371Y0029560D01*
X0399403Y0029508D01*
X0399432Y0029455D01*
X0399458Y0029400D01*
X0399480Y0029344D01*
X0399499Y0029286D01*
X0399515Y0029227D01*
X0399526Y0029168D01*
X0399535Y0029108D01*
X0399539Y0029047D01*
X0399540Y0028987D01*
X0399537Y0028926D01*
X0399531Y0028866D01*
X0399521Y0028806D01*
X0399521Y0023294D02*
X0399531Y0023234D01*
X0399537Y0023174D01*
X0399540Y0023113D01*
X0399539Y0023053D01*
X0399535Y0022992D01*
X0399526Y0022932D01*
X0399515Y0022873D01*
X0399499Y0022814D01*
X0399480Y0022756D01*
X0399458Y0022700D01*
X0399432Y0022645D01*
X0399403Y0022592D01*
X0399371Y0022540D01*
X0399336Y0022491D01*
X0399298Y0022443D01*
X0399257Y0022399D01*
X0399214Y0022356D01*
X0399168Y0022317D01*
X0399120Y0022280D01*
X0399069Y0022246D01*
X0399017Y0022216D01*
X0398963Y0022188D01*
X0398907Y0022164D01*
X0398850Y0022143D01*
X0398792Y0022126D01*
X0398733Y0022112D01*
X0392434Y0022112D02*
X0392375Y0022126D01*
X0392317Y0022143D01*
X0392260Y0022164D01*
X0392204Y0022188D01*
X0392150Y0022216D01*
X0392098Y0022246D01*
X0392047Y0022280D01*
X0391999Y0022317D01*
X0391953Y0022356D01*
X0391910Y0022399D01*
X0391869Y0022443D01*
X0391831Y0022491D01*
X0391796Y0022540D01*
X0391764Y0022592D01*
X0391735Y0022645D01*
X0391709Y0022700D01*
X0391687Y0022756D01*
X0391668Y0022814D01*
X0391652Y0022873D01*
X0391641Y0022932D01*
X0391632Y0022992D01*
X0391628Y0023053D01*
X0391627Y0023113D01*
X0391630Y0023174D01*
X0391636Y0023234D01*
X0391646Y0023294D01*
X0392434Y0029987D02*
X0398733Y0029987D01*
X0395833Y0063550D02*
X0395833Y0068550D01*
M02*
