G75*
%MOIN*%
%OFA0B0*%
%FSLAX25Y25*%
%IPPOS*%
%LPD*%
%AMOC8*
5,1,8,0,0,1.08239X$1,22.5*
%
%ADD10R,0.05000X0.10000*%
%ADD11R,0.02500X0.05000*%
%ADD12C,0.02578*%
%ADD13C,0.01200*%
%ADD14C,0.01000*%
D10*
X0173833Y0066433D03*
X0180833Y0066433D03*
X0187333Y0066433D03*
X0194333Y0066433D03*
D11*
X0187033Y0102433D03*
X0183833Y0102433D03*
X0180633Y0102433D03*
D12*
X0173833Y0059433D03*
X0180833Y0059433D03*
X0187333Y0059433D03*
X0178333Y0079933D03*
X0187603Y0094703D03*
X0183833Y0097933D03*
X0173333Y0113433D03*
X0189184Y0125083D03*
X0178833Y0125933D03*
X0191333Y0135300D03*
X0196343Y0134943D03*
X0199833Y0134933D03*
X0199833Y0113933D03*
D13*
X0189184Y0125083D02*
X0187033Y0122932D01*
X0187033Y0102433D01*
X0187033Y0095272D01*
X0187603Y0094703D01*
X0194333Y0087972D01*
X0194333Y0066433D01*
X0180633Y0082233D02*
X0178333Y0079933D01*
X0180633Y0082233D02*
X0180633Y0102433D01*
X0180633Y0124133D01*
X0178833Y0125933D01*
X0186948Y0134047D01*
X0190081Y0134047D01*
X0191333Y0135300D01*
X0196343Y0134943D02*
X0189184Y0127783D01*
X0189184Y0125083D01*
X0183833Y0102433D02*
X0183833Y0097933D01*
D14*
X0173333Y0113433D02*
X0173333Y0080933D01*
X0180833Y0073433D01*
X0180833Y0066433D01*
X0180833Y0059433D01*
X0187333Y0059433D02*
X0197333Y0059433D01*
X0199833Y0061933D01*
X0199833Y0113933D01*
X0199833Y0134933D01*
X0187333Y0066433D02*
X0187333Y0059433D01*
X0173833Y0059433D02*
X0173833Y0066433D01*
M02*
