G75*
%MOIN*%
%OFA0B0*%
%FSLAX25Y25*%
%IPPOS*%
%LPD*%
%AMOC8*
5,1,8,0,0,1.08239X$1,22.5*
%
%ADD10C,0.00500*%
%ADD11C,0.00400*%
%ADD12C,0.00600*%
%ADD13C,0.03200*%
%ADD14C,0.01200*%
%ADD15R,0.02362X0.01181*%
%ADD16R,0.03400X0.01600*%
%ADD17R,0.01969X0.02559*%
%ADD18C,0.00800*%
%ADD19R,0.02067X0.01181*%
%ADD20R,0.02000X0.03500*%
%ADD21R,0.03740X0.01969*%
%ADD22R,0.02559X0.01969*%
D10*
X0198381Y0040433D02*
X0198381Y0041784D01*
X0198831Y0042235D01*
X0199282Y0042235D01*
X0199732Y0041784D01*
X0199732Y0040433D01*
X0201083Y0040433D02*
X0198381Y0040433D01*
X0199732Y0041784D02*
X0200183Y0042235D01*
X0200633Y0042235D01*
X0201083Y0041784D01*
X0201083Y0040433D01*
X0201083Y0043380D02*
X0201083Y0043830D01*
X0200633Y0043830D01*
X0200633Y0043380D01*
X0201083Y0043380D01*
X0200633Y0047799D02*
X0201083Y0048250D01*
X0201083Y0049151D01*
X0200633Y0049601D01*
X0200183Y0049601D01*
X0199732Y0049151D01*
X0199732Y0048250D01*
X0199282Y0047799D01*
X0198831Y0047799D01*
X0198381Y0048250D01*
X0198381Y0049151D01*
X0198831Y0049601D01*
X0199732Y0050746D02*
X0200633Y0050746D01*
X0201083Y0051196D01*
X0201083Y0052547D01*
X0201083Y0053692D02*
X0198381Y0053692D01*
X0199282Y0054143D02*
X0199282Y0055044D01*
X0199732Y0055494D01*
X0201083Y0055494D01*
X0200633Y0056639D02*
X0201083Y0057089D01*
X0201083Y0058440D01*
X0199282Y0058440D01*
X0198381Y0059585D02*
X0198381Y0060036D01*
X0201083Y0060036D01*
X0201083Y0060486D02*
X0201083Y0059585D01*
X0201083Y0061550D02*
X0201083Y0063351D01*
X0199282Y0063351D02*
X0201083Y0061550D01*
X0199282Y0061550D02*
X0199282Y0063351D01*
X0199282Y0056639D02*
X0200633Y0056639D01*
X0199282Y0054143D02*
X0199732Y0053692D01*
X0199282Y0052547D02*
X0199282Y0051196D01*
X0199732Y0050746D01*
D11*
X0167132Y0041218D02*
X0167132Y0039883D01*
X0167132Y0040550D02*
X0169133Y0040550D01*
X0169133Y0042093D02*
X0167132Y0042093D01*
X0167132Y0043094D01*
X0167465Y0043427D01*
X0168132Y0043427D01*
X0168466Y0043094D01*
X0168466Y0042093D01*
X0168132Y0044303D02*
X0168132Y0045637D01*
X0167132Y0046513D02*
X0169133Y0046513D01*
X0169133Y0047514D01*
X0168800Y0047847D01*
X0167465Y0047847D01*
X0167132Y0047514D01*
X0167132Y0046513D01*
X0168132Y0048723D02*
X0168800Y0048723D01*
X0169133Y0049056D01*
X0169133Y0049723D01*
X0168800Y0050057D01*
X0168132Y0050057D01*
X0167799Y0049723D01*
X0167799Y0049056D01*
X0168132Y0048723D01*
X0167799Y0050932D02*
X0168800Y0050932D01*
X0169133Y0051266D01*
X0168800Y0051600D01*
X0169133Y0051933D01*
X0168800Y0052267D01*
X0167799Y0052267D01*
X0167799Y0053142D02*
X0167799Y0054143D01*
X0168132Y0054477D01*
X0169133Y0054477D01*
X0169133Y0055352D02*
X0167132Y0055352D01*
X0168132Y0055352D02*
X0168132Y0056687D01*
X0168132Y0057562D02*
X0168800Y0057562D01*
X0169133Y0057896D01*
X0169133Y0058563D01*
X0168800Y0058897D01*
X0168132Y0058897D01*
X0167799Y0058563D01*
X0167799Y0057896D01*
X0168132Y0057562D01*
X0167132Y0056687D02*
X0169133Y0056687D01*
X0169133Y0059772D02*
X0169133Y0060439D01*
X0169133Y0060106D02*
X0167132Y0060106D01*
X0167132Y0059772D01*
X0168132Y0061245D02*
X0167799Y0061579D01*
X0167799Y0062246D01*
X0168132Y0062580D01*
X0168466Y0062580D01*
X0168466Y0061245D01*
X0168800Y0061245D02*
X0168132Y0061245D01*
X0168800Y0061245D02*
X0169133Y0061579D01*
X0169133Y0062246D01*
X0167799Y0065665D02*
X0169133Y0066332D01*
X0167799Y0066999D01*
X0167465Y0067875D02*
X0167132Y0068208D01*
X0167132Y0068876D01*
X0167465Y0069209D01*
X0167799Y0069209D01*
X0169133Y0067875D01*
X0169133Y0069209D01*
X0167684Y0078531D02*
X0167684Y0081335D01*
X0171034Y0081335D02*
X0171034Y0078531D01*
X0169133Y0053142D02*
X0167799Y0053142D01*
D12*
X0170630Y0046185D02*
X0174033Y0046185D01*
X0172899Y0045051D01*
X0174033Y0043916D01*
X0170630Y0043916D01*
X0170630Y0042502D02*
X0174033Y0042502D01*
X0170630Y0040233D01*
X0174033Y0040233D01*
X0190233Y0077333D02*
X0201433Y0077333D01*
X0201433Y0082533D01*
X0190233Y0082533D01*
X0190233Y0077333D01*
X0187215Y0078969D02*
X0187215Y0080898D01*
X0185451Y0080898D02*
X0185451Y0078969D01*
X0182522Y0115835D02*
X0176144Y0115835D01*
X0176144Y0116205D01*
X0176144Y0115835D02*
X0176144Y0127031D01*
X0176144Y0126661D01*
X0176144Y0127031D02*
X0182522Y0127031D01*
X0182522Y0126661D01*
X0182522Y0127031D02*
X0182522Y0115835D01*
X0182522Y0116205D01*
X0182522Y0119378D02*
X0182522Y0119748D01*
X0182522Y0123118D02*
X0182522Y0123488D01*
X0177168Y0125370D02*
X0177170Y0125409D01*
X0177176Y0125448D01*
X0177186Y0125486D01*
X0177199Y0125523D01*
X0177216Y0125558D01*
X0177236Y0125592D01*
X0177260Y0125623D01*
X0177287Y0125652D01*
X0177316Y0125678D01*
X0177348Y0125701D01*
X0177382Y0125721D01*
X0177418Y0125737D01*
X0177455Y0125749D01*
X0177494Y0125758D01*
X0177533Y0125763D01*
X0177572Y0125764D01*
X0177611Y0125761D01*
X0177650Y0125754D01*
X0177687Y0125743D01*
X0177724Y0125729D01*
X0177759Y0125711D01*
X0177792Y0125690D01*
X0177823Y0125665D01*
X0177851Y0125638D01*
X0177876Y0125608D01*
X0177898Y0125575D01*
X0177917Y0125541D01*
X0177932Y0125505D01*
X0177944Y0125467D01*
X0177952Y0125429D01*
X0177956Y0125390D01*
X0177956Y0125350D01*
X0177952Y0125311D01*
X0177944Y0125273D01*
X0177932Y0125235D01*
X0177917Y0125199D01*
X0177898Y0125165D01*
X0177876Y0125132D01*
X0177851Y0125102D01*
X0177823Y0125075D01*
X0177792Y0125050D01*
X0177759Y0125029D01*
X0177724Y0125011D01*
X0177687Y0124997D01*
X0177650Y0124986D01*
X0177611Y0124979D01*
X0177572Y0124976D01*
X0177533Y0124977D01*
X0177494Y0124982D01*
X0177455Y0124991D01*
X0177418Y0125003D01*
X0177382Y0125019D01*
X0177348Y0125039D01*
X0177316Y0125062D01*
X0177287Y0125088D01*
X0177260Y0125117D01*
X0177236Y0125148D01*
X0177216Y0125182D01*
X0177199Y0125217D01*
X0177186Y0125254D01*
X0177176Y0125292D01*
X0177170Y0125331D01*
X0177168Y0125370D01*
X0176144Y0123488D02*
X0176144Y0123118D01*
X0176144Y0119748D02*
X0176144Y0119378D01*
X0169715Y0121969D02*
X0169715Y0123898D01*
X0167951Y0123898D02*
X0167951Y0121969D01*
X0185451Y0132969D02*
X0185451Y0134898D01*
X0187215Y0134898D02*
X0187215Y0132969D01*
X0189735Y0131244D02*
X0190105Y0131244D01*
X0189735Y0131244D02*
X0189735Y0137622D01*
X0190105Y0137622D01*
X0189735Y0137622D02*
X0200932Y0137622D01*
X0200562Y0137622D01*
X0200932Y0137622D02*
X0200932Y0131244D01*
X0200562Y0131244D01*
X0200932Y0131244D02*
X0189735Y0131244D01*
X0191002Y0132661D02*
X0191004Y0132700D01*
X0191010Y0132739D01*
X0191020Y0132777D01*
X0191033Y0132814D01*
X0191050Y0132849D01*
X0191070Y0132883D01*
X0191094Y0132914D01*
X0191121Y0132943D01*
X0191150Y0132969D01*
X0191182Y0132992D01*
X0191216Y0133012D01*
X0191252Y0133028D01*
X0191289Y0133040D01*
X0191328Y0133049D01*
X0191367Y0133054D01*
X0191406Y0133055D01*
X0191445Y0133052D01*
X0191484Y0133045D01*
X0191521Y0133034D01*
X0191558Y0133020D01*
X0191593Y0133002D01*
X0191626Y0132981D01*
X0191657Y0132956D01*
X0191685Y0132929D01*
X0191710Y0132899D01*
X0191732Y0132866D01*
X0191751Y0132832D01*
X0191766Y0132796D01*
X0191778Y0132758D01*
X0191786Y0132720D01*
X0191790Y0132681D01*
X0191790Y0132641D01*
X0191786Y0132602D01*
X0191778Y0132564D01*
X0191766Y0132526D01*
X0191751Y0132490D01*
X0191732Y0132456D01*
X0191710Y0132423D01*
X0191685Y0132393D01*
X0191657Y0132366D01*
X0191626Y0132341D01*
X0191593Y0132320D01*
X0191558Y0132302D01*
X0191521Y0132288D01*
X0191484Y0132277D01*
X0191445Y0132270D01*
X0191406Y0132267D01*
X0191367Y0132268D01*
X0191328Y0132273D01*
X0191289Y0132282D01*
X0191252Y0132294D01*
X0191216Y0132310D01*
X0191182Y0132330D01*
X0191150Y0132353D01*
X0191121Y0132379D01*
X0191094Y0132408D01*
X0191070Y0132439D01*
X0191050Y0132473D01*
X0191033Y0132508D01*
X0191020Y0132545D01*
X0191010Y0132583D01*
X0191004Y0132622D01*
X0191002Y0132661D01*
X0193278Y0131244D02*
X0193648Y0131244D01*
X0197018Y0131244D02*
X0197388Y0131244D01*
X0197388Y0137622D02*
X0197018Y0137622D01*
X0193648Y0137622D02*
X0193278Y0137622D01*
X0180735Y0137884D02*
X0180735Y0134482D01*
X0177932Y0134482D02*
X0177932Y0137884D01*
X0171735Y0137884D02*
X0171735Y0134482D01*
X0168932Y0134482D02*
X0168932Y0137884D01*
X0191951Y0121148D02*
X0191951Y0119219D01*
X0193715Y0119219D02*
X0193715Y0121148D01*
X0196701Y0121148D02*
X0196701Y0119219D01*
X0198465Y0119219D02*
X0198465Y0121148D01*
X0194143Y0214098D02*
X0193075Y0214098D01*
X0194143Y0214098D02*
X0195210Y0215166D01*
X0195210Y0220503D01*
X0197385Y0220503D02*
X0197385Y0219436D01*
X0198453Y0219436D01*
X0198453Y0220503D01*
X0197385Y0220503D01*
X0197385Y0217301D02*
X0197385Y0216233D01*
X0198453Y0216233D01*
X0198453Y0217301D01*
X0197385Y0217301D01*
X0195210Y0216233D02*
X0192007Y0216233D01*
X0190940Y0217301D01*
X0190940Y0220503D01*
X0188765Y0219436D02*
X0188765Y0217301D01*
X0187697Y0216233D01*
X0184494Y0216233D01*
X0184494Y0222639D01*
X0184494Y0220503D02*
X0187697Y0220503D01*
X0188765Y0219436D01*
X0187829Y0226233D02*
X0186761Y0227301D01*
X0186761Y0229436D01*
X0187829Y0230503D01*
X0189964Y0230503D01*
X0191032Y0229436D01*
X0191032Y0227301D01*
X0189964Y0226233D01*
X0187829Y0226233D01*
X0184586Y0226233D02*
X0181383Y0226233D01*
X0180316Y0227301D01*
X0180316Y0229436D01*
X0181383Y0230503D01*
X0184586Y0230503D01*
X0178141Y0229436D02*
X0178141Y0228368D01*
X0173870Y0228368D01*
X0173870Y0227301D02*
X0173870Y0229436D01*
X0174938Y0230503D01*
X0177073Y0230503D01*
X0178141Y0229436D01*
X0174938Y0226233D02*
X0173870Y0227301D01*
X0174938Y0226233D02*
X0177073Y0226233D01*
X0175874Y0222639D02*
X0175874Y0216233D01*
X0172671Y0216233D01*
X0171603Y0217301D01*
X0171603Y0219436D01*
X0172671Y0220503D01*
X0175874Y0220503D01*
X0169428Y0219436D02*
X0169428Y0218368D01*
X0165158Y0218368D01*
X0165158Y0217301D02*
X0165158Y0219436D01*
X0166225Y0220503D01*
X0168361Y0220503D01*
X0169428Y0219436D01*
X0166225Y0216233D02*
X0165158Y0217301D01*
X0166225Y0216233D02*
X0168361Y0216233D01*
X0162983Y0216233D02*
X0162983Y0219436D01*
X0161915Y0220503D01*
X0158712Y0220503D01*
X0158712Y0216233D01*
X0156537Y0216233D02*
X0153334Y0216233D01*
X0152267Y0217301D01*
X0152267Y0219436D01*
X0153334Y0220503D01*
X0156537Y0220503D01*
X0156537Y0215166D01*
X0155470Y0214098D01*
X0154402Y0214098D01*
X0150105Y0216233D02*
X0147970Y0216233D01*
X0149037Y0216233D02*
X0149037Y0220503D01*
X0147970Y0220503D01*
X0145795Y0220503D02*
X0142592Y0220503D01*
X0141524Y0219436D01*
X0142592Y0218368D01*
X0144727Y0218368D01*
X0145795Y0217301D01*
X0144727Y0216233D01*
X0141524Y0216233D01*
X0139349Y0218368D02*
X0135079Y0218368D01*
X0135079Y0217301D02*
X0135079Y0219436D01*
X0136146Y0220503D01*
X0138282Y0220503D01*
X0139349Y0219436D01*
X0139349Y0218368D01*
X0138282Y0216233D02*
X0136146Y0216233D01*
X0135079Y0217301D01*
X0132904Y0217301D02*
X0131836Y0216233D01*
X0128633Y0216233D01*
X0128633Y0222639D01*
X0131836Y0222639D01*
X0132904Y0221571D01*
X0132904Y0217301D01*
X0135191Y0226233D02*
X0138393Y0226233D01*
X0140569Y0226233D02*
X0140569Y0230503D01*
X0140569Y0228368D02*
X0142704Y0230503D01*
X0143771Y0230503D01*
X0145940Y0229436D02*
X0147007Y0230503D01*
X0149143Y0230503D01*
X0150210Y0229436D01*
X0150210Y0228368D01*
X0145940Y0228368D01*
X0145940Y0227301D02*
X0145940Y0229436D01*
X0145940Y0227301D02*
X0147007Y0226233D01*
X0149143Y0226233D01*
X0149037Y0223706D02*
X0149037Y0222639D01*
X0153453Y0226233D02*
X0152385Y0227301D01*
X0153453Y0228368D01*
X0156656Y0228368D01*
X0156656Y0229436D02*
X0156656Y0226233D01*
X0153453Y0226233D01*
X0153453Y0230503D02*
X0155588Y0230503D01*
X0156656Y0229436D01*
X0158831Y0230503D02*
X0160966Y0230503D01*
X0159898Y0231571D02*
X0159898Y0227301D01*
X0160966Y0226233D01*
X0163128Y0226233D02*
X0165263Y0226233D01*
X0164195Y0226233D02*
X0164195Y0230503D01*
X0163128Y0230503D01*
X0164195Y0232639D02*
X0164195Y0233706D01*
X0163676Y0236233D02*
X0161541Y0236233D01*
X0160474Y0237301D01*
X0160474Y0239436D01*
X0161541Y0240503D01*
X0163676Y0240503D01*
X0164744Y0239436D01*
X0164744Y0238368D01*
X0160474Y0238368D01*
X0158299Y0240503D02*
X0156163Y0236233D01*
X0154028Y0240503D01*
X0150799Y0240503D02*
X0150799Y0236233D01*
X0151866Y0236233D02*
X0149731Y0236233D01*
X0147569Y0236233D02*
X0146502Y0237301D01*
X0146502Y0241571D01*
X0147569Y0240503D02*
X0145434Y0240503D01*
X0143259Y0239436D02*
X0143259Y0236233D01*
X0140056Y0236233D01*
X0138989Y0237301D01*
X0140056Y0238368D01*
X0143259Y0238368D01*
X0143259Y0239436D02*
X0142191Y0240503D01*
X0140056Y0240503D01*
X0136814Y0239436D02*
X0136814Y0238368D01*
X0132543Y0238368D01*
X0132543Y0237301D02*
X0132543Y0239436D01*
X0133611Y0240503D01*
X0135746Y0240503D01*
X0136814Y0239436D01*
X0133611Y0236233D02*
X0132543Y0237301D01*
X0133611Y0236233D02*
X0135746Y0236233D01*
X0131948Y0232639D02*
X0127678Y0226233D01*
X0121232Y0226233D02*
X0125502Y0232639D01*
X0123929Y0236233D02*
X0124997Y0237301D01*
X0123929Y0236233D02*
X0121794Y0236233D01*
X0120727Y0237301D01*
X0120727Y0241571D01*
X0121794Y0242639D01*
X0123929Y0242639D01*
X0124997Y0241571D01*
X0127172Y0240503D02*
X0127172Y0236233D01*
X0127172Y0238368D02*
X0129307Y0240503D01*
X0130375Y0240503D01*
X0135191Y0230503D02*
X0134123Y0229436D01*
X0134123Y0227301D01*
X0135191Y0226233D01*
X0135191Y0230503D02*
X0138393Y0230503D01*
X0149731Y0240503D02*
X0150799Y0240503D01*
X0150799Y0242639D02*
X0150799Y0243706D01*
X0167425Y0230503D02*
X0169560Y0226233D01*
X0171695Y0230503D01*
X0174432Y0236233D02*
X0176567Y0236233D01*
X0177635Y0237301D01*
X0179810Y0237301D02*
X0180878Y0236233D01*
X0183013Y0236233D01*
X0184081Y0237301D01*
X0184081Y0239436D01*
X0183013Y0240503D01*
X0180878Y0240503D01*
X0179810Y0239436D01*
X0179810Y0237301D01*
X0174432Y0236233D02*
X0173365Y0237301D01*
X0173365Y0241571D01*
X0174432Y0242639D01*
X0176567Y0242639D01*
X0177635Y0241571D01*
X0186256Y0240503D02*
X0187323Y0240503D01*
X0188391Y0239436D01*
X0189458Y0240503D01*
X0190526Y0239436D01*
X0190526Y0236233D01*
X0188391Y0236233D02*
X0188391Y0239436D01*
X0186256Y0240503D02*
X0186256Y0236233D01*
X0192701Y0236233D02*
X0192701Y0240503D01*
X0193769Y0240503D01*
X0194836Y0239436D01*
X0195904Y0240503D01*
X0196972Y0239436D01*
X0196972Y0236233D01*
X0194836Y0236233D02*
X0194836Y0239436D01*
X0199147Y0239436D02*
X0199147Y0237301D01*
X0200214Y0236233D01*
X0202349Y0236233D01*
X0203417Y0237301D01*
X0203417Y0239436D01*
X0202349Y0240503D01*
X0200214Y0240503D01*
X0199147Y0239436D01*
X0205592Y0240503D02*
X0208795Y0240503D01*
X0209863Y0239436D01*
X0209863Y0236233D01*
X0212038Y0236233D02*
X0215240Y0236233D01*
X0216308Y0237301D01*
X0215240Y0238368D01*
X0213105Y0238368D01*
X0212038Y0239436D01*
X0213105Y0240503D01*
X0216308Y0240503D01*
X0224929Y0240503D02*
X0224929Y0236233D01*
X0229199Y0236233D02*
X0229199Y0240503D01*
X0227064Y0242639D01*
X0224929Y0240503D01*
X0224929Y0239436D02*
X0229199Y0239436D01*
X0231374Y0240503D02*
X0233509Y0240503D01*
X0232442Y0241571D02*
X0232442Y0237301D01*
X0233509Y0236233D01*
X0236739Y0237301D02*
X0237806Y0236233D01*
X0236739Y0237301D02*
X0236739Y0241571D01*
X0237806Y0240503D02*
X0235671Y0240503D01*
X0239968Y0240503D02*
X0239968Y0236233D01*
X0239968Y0238368D02*
X0242103Y0240503D01*
X0243171Y0240503D01*
X0245339Y0240503D02*
X0246407Y0240503D01*
X0246407Y0236233D01*
X0245339Y0236233D02*
X0247475Y0236233D01*
X0249636Y0236233D02*
X0252839Y0236233D01*
X0253907Y0237301D01*
X0253907Y0239436D01*
X0252839Y0240503D01*
X0249636Y0240503D01*
X0249636Y0242639D02*
X0249636Y0236233D01*
X0251190Y0232639D02*
X0246919Y0226233D01*
X0244744Y0226233D02*
X0241541Y0226233D01*
X0240474Y0227301D01*
X0240474Y0229436D01*
X0241541Y0230503D01*
X0244744Y0230503D01*
X0244744Y0225166D01*
X0243676Y0224098D01*
X0242609Y0224098D01*
X0235103Y0226233D02*
X0235103Y0230503D01*
X0235103Y0228368D02*
X0237238Y0230503D01*
X0238305Y0230503D01*
X0232927Y0229436D02*
X0232927Y0227301D01*
X0231860Y0226233D01*
X0229725Y0226233D01*
X0228657Y0227301D01*
X0228657Y0229436D01*
X0229725Y0230503D01*
X0231860Y0230503D01*
X0232927Y0229436D01*
X0226502Y0227301D02*
X0226502Y0226233D01*
X0225434Y0226233D01*
X0225434Y0227301D01*
X0226502Y0227301D01*
X0223259Y0227301D02*
X0222191Y0226233D01*
X0218989Y0226233D01*
X0216814Y0226233D02*
X0216814Y0229436D01*
X0215746Y0230503D01*
X0212543Y0230503D01*
X0212543Y0226233D01*
X0210368Y0227301D02*
X0210368Y0229436D01*
X0209301Y0230503D01*
X0207165Y0230503D01*
X0206098Y0229436D01*
X0206098Y0227301D01*
X0207165Y0226233D01*
X0209301Y0226233D01*
X0210368Y0227301D01*
X0203923Y0226233D02*
X0203923Y0229436D01*
X0202855Y0230503D01*
X0201787Y0229436D01*
X0201787Y0226233D01*
X0199652Y0226233D02*
X0199652Y0230503D01*
X0200720Y0230503D01*
X0201787Y0229436D01*
X0197477Y0229436D02*
X0197477Y0226233D01*
X0195342Y0226233D02*
X0195342Y0229436D01*
X0196410Y0230503D01*
X0197477Y0229436D01*
X0195342Y0229436D02*
X0194274Y0230503D01*
X0193207Y0230503D01*
X0193207Y0226233D01*
X0205592Y0236233D02*
X0205592Y0240503D01*
X0218989Y0229436D02*
X0220056Y0230503D01*
X0223259Y0230503D01*
X0222191Y0228368D02*
X0220056Y0228368D01*
X0218989Y0229436D01*
X0222191Y0228368D02*
X0223259Y0227301D01*
X0246407Y0242639D02*
X0246407Y0243706D01*
X0256082Y0240503D02*
X0256082Y0237301D01*
X0257150Y0236233D01*
X0260352Y0236233D01*
X0260352Y0240503D01*
X0262527Y0240503D02*
X0264663Y0240503D01*
X0263595Y0241571D02*
X0263595Y0237301D01*
X0264663Y0236233D01*
X0266824Y0236233D02*
X0268960Y0236233D01*
X0267892Y0236233D02*
X0267892Y0240503D01*
X0266824Y0240503D01*
X0267892Y0242639D02*
X0267892Y0243706D01*
X0271121Y0239436D02*
X0271121Y0237301D01*
X0272189Y0236233D01*
X0274324Y0236233D01*
X0275392Y0237301D01*
X0275392Y0239436D01*
X0274324Y0240503D01*
X0272189Y0240503D01*
X0271121Y0239436D01*
X0277567Y0240503D02*
X0280770Y0240503D01*
X0281837Y0239436D01*
X0281837Y0236233D01*
X0277567Y0236233D02*
X0277567Y0240503D01*
X0290458Y0240503D02*
X0291526Y0239436D01*
X0293661Y0239436D01*
X0294728Y0238368D01*
X0294728Y0237301D01*
X0293661Y0236233D01*
X0291526Y0236233D01*
X0290458Y0237301D01*
X0290458Y0240503D02*
X0290458Y0241571D01*
X0291526Y0242639D01*
X0293661Y0242639D01*
X0294728Y0241571D01*
X0296903Y0242639D02*
X0296903Y0236233D01*
X0301174Y0236233D02*
X0301174Y0239436D01*
X0300106Y0240503D01*
X0297971Y0240503D01*
X0296903Y0239436D01*
X0303349Y0237301D02*
X0304417Y0238368D01*
X0307619Y0238368D01*
X0307619Y0239436D02*
X0307619Y0236233D01*
X0304417Y0236233D01*
X0303349Y0237301D01*
X0304417Y0240503D02*
X0306552Y0240503D01*
X0307619Y0239436D01*
X0309794Y0240503D02*
X0309794Y0236233D01*
X0309794Y0238368D02*
X0311930Y0240503D01*
X0312997Y0240503D01*
X0315166Y0239436D02*
X0315166Y0237301D01*
X0316233Y0236233D01*
X0318368Y0236233D01*
X0319436Y0238368D02*
X0315166Y0238368D01*
X0315166Y0239436D02*
X0316233Y0240503D01*
X0318368Y0240503D01*
X0319436Y0239436D01*
X0319436Y0238368D01*
X0321611Y0239436D02*
X0325881Y0239436D01*
X0328057Y0239436D02*
X0332327Y0239436D01*
X0332327Y0240503D02*
X0332327Y0236233D01*
X0334502Y0236233D02*
X0336637Y0236233D01*
X0335570Y0236233D02*
X0335570Y0242639D01*
X0334502Y0242639D01*
X0332327Y0240503D02*
X0330192Y0242639D01*
X0328057Y0240503D01*
X0328057Y0236233D01*
X0327481Y0230503D02*
X0326414Y0229436D01*
X0327481Y0228368D01*
X0329616Y0228368D01*
X0330684Y0227301D01*
X0329616Y0226233D01*
X0326414Y0226233D01*
X0324239Y0229436D02*
X0319968Y0229436D01*
X0317793Y0230503D02*
X0317793Y0225166D01*
X0316725Y0224098D01*
X0315658Y0224098D01*
X0314590Y0226233D02*
X0317793Y0226233D01*
X0314590Y0226233D02*
X0313523Y0227301D01*
X0313523Y0230503D01*
X0311348Y0229436D02*
X0310280Y0230503D01*
X0307077Y0230503D01*
X0307077Y0232639D02*
X0307077Y0226233D01*
X0310280Y0226233D01*
X0311348Y0227301D01*
X0311348Y0229436D01*
X0304902Y0232639D02*
X0300632Y0226233D01*
X0298457Y0227301D02*
X0297389Y0226233D01*
X0294186Y0226233D01*
X0295254Y0228368D02*
X0294186Y0229436D01*
X0295254Y0230503D01*
X0298457Y0230503D01*
X0297389Y0228368D02*
X0295254Y0228368D01*
X0297389Y0228368D02*
X0298457Y0227301D01*
X0292011Y0228368D02*
X0287741Y0228368D01*
X0287741Y0227301D02*
X0287741Y0229436D01*
X0288808Y0230503D01*
X0290943Y0230503D01*
X0292011Y0229436D01*
X0292011Y0228368D01*
X0290943Y0226233D02*
X0288808Y0226233D01*
X0287741Y0227301D01*
X0285566Y0227301D02*
X0284498Y0228368D01*
X0282363Y0228368D01*
X0281295Y0229436D01*
X0282363Y0230503D01*
X0285566Y0230503D01*
X0285566Y0227301D02*
X0284498Y0226233D01*
X0281295Y0226233D01*
X0279120Y0226233D02*
X0279120Y0229436D01*
X0278052Y0230503D01*
X0274850Y0230503D01*
X0274850Y0226233D01*
X0272675Y0228368D02*
X0268404Y0228368D01*
X0268404Y0227301D02*
X0268404Y0229436D01*
X0269472Y0230503D01*
X0271607Y0230503D01*
X0272675Y0229436D01*
X0272675Y0228368D01*
X0271607Y0226233D02*
X0269472Y0226233D01*
X0268404Y0227301D01*
X0266229Y0226233D02*
X0263026Y0226233D01*
X0261959Y0227301D01*
X0261959Y0229436D01*
X0263026Y0230503D01*
X0266229Y0230503D01*
X0258729Y0230503D02*
X0258729Y0226233D01*
X0257662Y0226233D02*
X0259797Y0226233D01*
X0255500Y0226233D02*
X0253365Y0226233D01*
X0254432Y0226233D02*
X0254432Y0232639D01*
X0253365Y0232639D01*
X0257662Y0230503D02*
X0258729Y0230503D01*
X0258729Y0232639D02*
X0258729Y0233706D01*
X0327481Y0230503D02*
X0330684Y0230503D01*
X0333927Y0230503D02*
X0336062Y0230503D01*
X0337130Y0229436D01*
X0337130Y0226233D01*
X0333927Y0226233D01*
X0332859Y0227301D01*
X0333927Y0228368D01*
X0337130Y0228368D01*
X0339305Y0226233D02*
X0343575Y0232639D01*
X0343096Y0236233D02*
X0343096Y0242639D01*
X0339867Y0242639D02*
X0339867Y0243706D01*
X0339867Y0240503D02*
X0338799Y0240503D01*
X0339867Y0240503D02*
X0339867Y0236233D01*
X0340934Y0236233D02*
X0338799Y0236233D01*
X0343096Y0238368D02*
X0346299Y0240503D01*
X0348467Y0239436D02*
X0348467Y0237301D01*
X0349535Y0236233D01*
X0351670Y0236233D01*
X0352738Y0238368D02*
X0348467Y0238368D01*
X0348467Y0239436D02*
X0349535Y0240503D01*
X0351670Y0240503D01*
X0352738Y0239436D01*
X0352738Y0238368D01*
X0346299Y0236233D02*
X0343096Y0238368D01*
X0348953Y0232639D02*
X0345750Y0229436D01*
X0350021Y0229436D01*
X0352196Y0227301D02*
X0353263Y0227301D01*
X0353263Y0226233D01*
X0352196Y0226233D01*
X0352196Y0227301D01*
X0355418Y0227301D02*
X0356486Y0226233D01*
X0358621Y0226233D01*
X0359689Y0227301D01*
X0359689Y0231571D01*
X0355418Y0227301D01*
X0355418Y0231571D01*
X0356486Y0232639D01*
X0358621Y0232639D01*
X0359689Y0231571D01*
X0364561Y0236233D02*
X0364561Y0242639D01*
X0361358Y0239436D01*
X0365629Y0239436D01*
X0367804Y0237301D02*
X0368871Y0237301D01*
X0368871Y0236233D01*
X0367804Y0236233D01*
X0367804Y0237301D01*
X0371027Y0237301D02*
X0372094Y0236233D01*
X0374229Y0236233D01*
X0375297Y0237301D01*
X0375297Y0241571D01*
X0371027Y0237301D01*
X0371027Y0241571D01*
X0372094Y0242639D01*
X0374229Y0242639D01*
X0375297Y0241571D01*
X0383918Y0242639D02*
X0383918Y0236233D01*
X0388188Y0236233D01*
X0390363Y0236233D02*
X0392498Y0236233D01*
X0391431Y0236233D02*
X0391431Y0240503D01*
X0390363Y0240503D01*
X0391431Y0242639D02*
X0391431Y0243706D01*
X0394660Y0239436D02*
X0394660Y0237301D01*
X0395728Y0236233D01*
X0398930Y0236233D01*
X0401106Y0237301D02*
X0401106Y0239436D01*
X0402173Y0240503D01*
X0404308Y0240503D01*
X0405376Y0239436D01*
X0405376Y0238368D01*
X0401106Y0238368D01*
X0401106Y0237301D02*
X0402173Y0236233D01*
X0404308Y0236233D01*
X0407551Y0236233D02*
X0407551Y0240503D01*
X0410754Y0240503D01*
X0411821Y0239436D01*
X0411821Y0236233D01*
X0413997Y0236233D02*
X0417199Y0236233D01*
X0418267Y0237301D01*
X0417199Y0238368D01*
X0415064Y0238368D01*
X0413997Y0239436D01*
X0415064Y0240503D01*
X0418267Y0240503D01*
X0420442Y0239436D02*
X0421510Y0240503D01*
X0423645Y0240503D01*
X0424712Y0239436D01*
X0424712Y0238368D01*
X0420442Y0238368D01*
X0420442Y0237301D02*
X0420442Y0239436D01*
X0420442Y0237301D02*
X0421510Y0236233D01*
X0423645Y0236233D01*
X0398930Y0240503D02*
X0395728Y0240503D01*
X0394660Y0239436D01*
X0366134Y0232639D02*
X0361864Y0226233D01*
X0348953Y0226233D02*
X0348953Y0232639D01*
X0119077Y0230503D02*
X0119077Y0229436D01*
X0118009Y0229436D01*
X0118009Y0230503D01*
X0119077Y0230503D01*
X0119077Y0227301D02*
X0119077Y0226233D01*
X0118009Y0226233D01*
X0118009Y0227301D01*
X0119077Y0227301D01*
X0115834Y0227301D02*
X0114767Y0226233D01*
X0111564Y0226233D01*
X0112631Y0228368D02*
X0111564Y0229436D01*
X0112631Y0230503D01*
X0115834Y0230503D01*
X0114767Y0228368D02*
X0112631Y0228368D01*
X0114767Y0228368D02*
X0115834Y0227301D01*
X0109389Y0227301D02*
X0108321Y0226233D01*
X0105118Y0226233D01*
X0105118Y0224098D02*
X0105118Y0230503D01*
X0108321Y0230503D01*
X0109389Y0229436D01*
X0109389Y0227301D01*
X0102956Y0226233D02*
X0101889Y0227301D01*
X0101889Y0231571D01*
X0102956Y0230503D02*
X0100821Y0230503D01*
X0098659Y0230503D02*
X0096524Y0230503D01*
X0097592Y0231571D02*
X0097592Y0227301D01*
X0098659Y0226233D01*
X0094349Y0226233D02*
X0094349Y0229436D01*
X0093282Y0230503D01*
X0091146Y0230503D01*
X0090079Y0229436D01*
X0090079Y0232639D02*
X0090079Y0226233D01*
X0085276Y0236233D02*
X0085276Y0240503D01*
X0085276Y0238368D02*
X0087411Y0240503D01*
X0088479Y0240503D01*
X0083101Y0239436D02*
X0083101Y0238368D01*
X0078831Y0238368D01*
X0078831Y0237301D02*
X0078831Y0239436D01*
X0079898Y0240503D01*
X0082034Y0240503D01*
X0083101Y0239436D01*
X0079898Y0236233D02*
X0078831Y0237301D01*
X0079898Y0236233D02*
X0082034Y0236233D01*
X0076656Y0236233D02*
X0073453Y0236233D01*
X0072385Y0237301D01*
X0072385Y0239436D01*
X0073453Y0240503D01*
X0076656Y0240503D01*
X0076656Y0242639D02*
X0076656Y0236233D01*
X0070210Y0236233D02*
X0070210Y0239436D01*
X0069143Y0240503D01*
X0065940Y0240503D01*
X0065940Y0236233D01*
X0063765Y0236233D02*
X0063765Y0240503D01*
X0059494Y0240503D02*
X0059494Y0237301D01*
X0060562Y0236233D01*
X0063765Y0236233D01*
X0050874Y0236233D02*
X0050874Y0242639D01*
X0050874Y0240503D02*
X0047671Y0240503D01*
X0046603Y0239436D01*
X0046603Y0237301D01*
X0047671Y0236233D01*
X0050874Y0236233D01*
X0044428Y0238368D02*
X0040158Y0238368D01*
X0040158Y0237301D02*
X0040158Y0239436D01*
X0041225Y0240503D01*
X0043361Y0240503D01*
X0044428Y0239436D01*
X0044428Y0238368D01*
X0043361Y0236233D02*
X0041225Y0236233D01*
X0040158Y0237301D01*
X0037983Y0237301D02*
X0036915Y0236233D01*
X0033712Y0236233D01*
X0031537Y0236233D02*
X0028334Y0236233D01*
X0027267Y0237301D01*
X0028334Y0238368D01*
X0031537Y0238368D01*
X0031537Y0239436D02*
X0031537Y0236233D01*
X0033712Y0239436D02*
X0034780Y0238368D01*
X0036915Y0238368D01*
X0037983Y0237301D01*
X0037983Y0240503D02*
X0034780Y0240503D01*
X0033712Y0239436D01*
X0031537Y0239436D02*
X0030470Y0240503D01*
X0028334Y0240503D01*
X0025092Y0239436D02*
X0025092Y0238368D01*
X0020821Y0238368D01*
X0020821Y0237301D02*
X0020821Y0239436D01*
X0021889Y0240503D01*
X0024024Y0240503D01*
X0025092Y0239436D01*
X0021889Y0236233D02*
X0020821Y0237301D01*
X0021889Y0236233D02*
X0024024Y0236233D01*
X0018659Y0236233D02*
X0016524Y0236233D01*
X0017592Y0236233D02*
X0017592Y0242639D01*
X0016524Y0242639D01*
X0014349Y0239436D02*
X0014349Y0238368D01*
X0010079Y0238368D01*
X0010079Y0237301D02*
X0010079Y0239436D01*
X0011146Y0240503D01*
X0013282Y0240503D01*
X0014349Y0239436D01*
X0011146Y0236233D02*
X0010079Y0237301D01*
X0011146Y0236233D02*
X0013282Y0236233D01*
X0007904Y0236233D02*
X0005768Y0238368D01*
X0006836Y0238368D02*
X0003633Y0238368D01*
X0003633Y0236233D02*
X0003633Y0242639D01*
X0006836Y0242639D01*
X0007904Y0241571D01*
X0007904Y0239436D01*
X0006836Y0238368D01*
X0097093Y0240503D02*
X0099228Y0240503D01*
X0098161Y0241571D02*
X0098161Y0237301D01*
X0099228Y0236233D01*
X0101390Y0236233D02*
X0101390Y0242639D01*
X0102458Y0240503D02*
X0104593Y0240503D01*
X0105660Y0239436D01*
X0105660Y0236233D01*
X0107836Y0237301D02*
X0107836Y0239436D01*
X0108903Y0240503D01*
X0111038Y0240503D01*
X0112106Y0239436D01*
X0112106Y0238368D01*
X0107836Y0238368D01*
X0107836Y0237301D02*
X0108903Y0236233D01*
X0111038Y0236233D01*
X0102458Y0240503D02*
X0101390Y0239436D01*
D13*
X0179833Y0109683D02*
X0179835Y0109727D01*
X0179841Y0109771D01*
X0179851Y0109814D01*
X0179864Y0109856D01*
X0179881Y0109897D01*
X0179902Y0109936D01*
X0179926Y0109973D01*
X0179953Y0110008D01*
X0179983Y0110040D01*
X0180016Y0110070D01*
X0180052Y0110096D01*
X0180089Y0110120D01*
X0180129Y0110139D01*
X0180170Y0110156D01*
X0180213Y0110168D01*
X0180256Y0110177D01*
X0180300Y0110182D01*
X0180344Y0110183D01*
X0180388Y0110180D01*
X0180432Y0110173D01*
X0180475Y0110162D01*
X0180517Y0110148D01*
X0180557Y0110130D01*
X0180596Y0110108D01*
X0180632Y0110084D01*
X0180666Y0110056D01*
X0180698Y0110025D01*
X0180727Y0109991D01*
X0180753Y0109955D01*
X0180775Y0109917D01*
X0180794Y0109877D01*
X0180809Y0109835D01*
X0180821Y0109793D01*
X0180829Y0109749D01*
X0180833Y0109705D01*
X0180833Y0109661D01*
X0180829Y0109617D01*
X0180821Y0109573D01*
X0180809Y0109531D01*
X0180794Y0109489D01*
X0180775Y0109449D01*
X0180753Y0109411D01*
X0180727Y0109375D01*
X0180698Y0109341D01*
X0180666Y0109310D01*
X0180632Y0109282D01*
X0180596Y0109258D01*
X0180557Y0109236D01*
X0180517Y0109218D01*
X0180475Y0109204D01*
X0180432Y0109193D01*
X0180388Y0109186D01*
X0180344Y0109183D01*
X0180300Y0109184D01*
X0180256Y0109189D01*
X0180213Y0109198D01*
X0180170Y0109210D01*
X0180129Y0109227D01*
X0180089Y0109246D01*
X0180052Y0109270D01*
X0180016Y0109296D01*
X0179983Y0109326D01*
X0179953Y0109358D01*
X0179926Y0109393D01*
X0179902Y0109430D01*
X0179881Y0109469D01*
X0179864Y0109510D01*
X0179851Y0109552D01*
X0179841Y0109595D01*
X0179835Y0109639D01*
X0179833Y0109683D01*
D14*
X0171235Y0112419D02*
X0171235Y0114388D01*
X0196432Y0114388D01*
X0196432Y0112419D01*
X0196432Y0091947D02*
X0196432Y0089978D01*
X0171235Y0089978D01*
X0171235Y0091947D01*
D15*
X0186352Y0081543D03*
X0186352Y0078343D03*
X0192852Y0118593D03*
X0192852Y0121793D03*
X0197602Y0121793D03*
X0197602Y0118593D03*
X0186352Y0132343D03*
X0186352Y0135543D03*
X0168814Y0124524D03*
X0168814Y0121324D03*
D16*
X0170333Y0133683D03*
X0170333Y0138683D03*
X0179333Y0138683D03*
X0179333Y0133683D03*
D17*
X0191593Y0129807D03*
X0195333Y0129807D03*
X0199073Y0129807D03*
X0199073Y0139059D03*
X0195333Y0139059D03*
X0191593Y0139059D03*
D18*
X0180696Y0083772D02*
X0175971Y0083772D01*
X0175971Y0076094D01*
X0180696Y0076094D01*
X0180696Y0083772D01*
X0190322Y0080327D02*
X0190322Y0077177D01*
X0192684Y0077177D01*
X0198983Y0077177D02*
X0201345Y0077177D01*
X0201345Y0080327D01*
D19*
X0182024Y0082492D03*
X0182024Y0077374D03*
X0174642Y0077374D03*
X0174642Y0079933D03*
X0174642Y0082492D03*
D20*
X0177333Y0082183D03*
D21*
X0169353Y0082249D03*
X0169353Y0077649D03*
D22*
X0174707Y0117693D03*
X0174707Y0121433D03*
X0174707Y0125173D03*
X0183959Y0125173D03*
X0183959Y0121433D03*
X0183959Y0117693D03*
M02*
