G75*
%MOIN*%
%OFA0B0*%
%FSLAX25Y25*%
%IPPOS*%
%LPD*%
%AMOC8*
5,1,8,0,0,1.08239X$1,22.5*
%
%ADD10C,0.08374*%
%ADD11R,0.09358X0.04043*%
%ADD12R,0.11524X0.04043*%
%ADD13R,0.04043X0.03256*%
%ADD14R,0.04831X0.04437*%
%ADD15R,0.02665X0.05224*%
%ADD16R,0.05500X0.10500*%
%ADD17R,0.03650X0.01878*%
%ADD18R,0.04437X0.04831*%
%ADD19R,0.05224X0.02665*%
%ADD20R,0.03650X0.04043*%
%ADD21C,0.03078*%
D10*
X0165333Y0035008D03*
X0202833Y0035008D03*
D11*
X0194365Y0094703D03*
X0194365Y0099624D03*
X0194365Y0104742D03*
X0194365Y0109663D03*
X0173302Y0109663D03*
X0173302Y0104742D03*
X0173302Y0094703D03*
D12*
X0174385Y0099624D03*
D13*
X0186333Y0082492D03*
X0186333Y0077374D03*
X0192833Y0117624D03*
X0197583Y0117624D03*
X0197583Y0122742D03*
X0192833Y0122742D03*
X0186333Y0131374D03*
X0186333Y0136492D03*
X0168833Y0125492D03*
X0168833Y0120374D03*
D14*
X0170333Y0132837D03*
X0179333Y0132837D03*
X0179333Y0139530D03*
X0170333Y0139530D03*
D15*
X0191593Y0139551D03*
X0195333Y0139551D03*
X0199073Y0139551D03*
X0199073Y0129315D03*
X0195333Y0129315D03*
X0191593Y0129315D03*
D16*
X0194333Y0066433D03*
X0187333Y0066433D03*
X0180833Y0066433D03*
X0173833Y0066433D03*
D17*
X0174593Y0077374D03*
X0174593Y0079933D03*
X0174593Y0082492D03*
X0182073Y0082492D03*
X0182073Y0077374D03*
D18*
X0169333Y0076587D03*
X0169333Y0083280D03*
D19*
X0174215Y0117693D03*
X0174215Y0121433D03*
X0174215Y0125173D03*
X0184451Y0125173D03*
X0184451Y0121433D03*
X0184451Y0117693D03*
D20*
X0192093Y0083870D03*
X0199573Y0083870D03*
X0195833Y0075602D03*
D21*
X0178333Y0079933D03*
X0187603Y0094703D03*
X0183833Y0097933D03*
X0173333Y0113433D03*
X0189184Y0125083D03*
X0178833Y0125933D03*
X0191333Y0135300D03*
X0196343Y0134943D03*
X0199833Y0134933D03*
X0199833Y0113933D03*
X0187333Y0059433D03*
X0180833Y0059433D03*
X0173833Y0059433D03*
M02*
