G75*
%MOIN*%
%OFA0B0*%
%FSLAX25Y25*%
%IPPOS*%
%LPD*%
%AMOC8*
5,1,8,0,0,1.08239X$1,22.5*
%
%ADD10C,0.06400*%
%ADD11C,0.06000*%
%ADD12C,0.01000*%
D10*
X0086000Y0026000D03*
X0096000Y0026000D03*
X0096000Y0036000D03*
X0086000Y0036000D03*
X0086000Y0046000D03*
X0096000Y0046000D03*
D11*
X0011000Y0011000D03*
X0021000Y0011000D03*
X0031000Y0011000D03*
X0041000Y0011000D03*
X0051000Y0011000D03*
X0061000Y0011000D03*
X0071000Y0011000D03*
X0071000Y0061000D03*
X0061000Y0061000D03*
X0051000Y0061000D03*
X0041000Y0061000D03*
X0031000Y0061000D03*
X0021000Y0061000D03*
X0011000Y0061000D03*
D12*
X0021000Y0061000D02*
X0025202Y0061000D01*
X0029302Y0056900D01*
X0065100Y0056900D01*
X0086000Y0036000D01*
X0091000Y0041000D02*
X0086000Y0046000D01*
X0091000Y0041000D02*
X0091000Y0022500D01*
X0075400Y0006900D01*
X0019302Y0006900D01*
X0015202Y0011000D01*
X0011000Y0011000D01*
X0021000Y0011000D02*
X0025000Y0011000D01*
X0029500Y0015500D01*
X0075500Y0015500D01*
X0086000Y0026000D01*
X0096000Y0046000D02*
X0081000Y0061000D01*
X0071000Y0061000D01*
M02*
