G75*
%MOIN*%
%OFA0B0*%
%FSLAX25Y25*%
%IPPOS*%
%LPD*%
%AMOC8*
5,1,8,0,0,1.08239X$1,22.5*
%
%ADD10C,0.00500*%
D10*
X0045187Y0040350D02*
X0044287Y0043050D01*
X0045487Y0043050D02*
X0044887Y0041250D01*
X0045187Y0040350D02*
X0045487Y0040350D01*
X0046665Y0041700D02*
X0046665Y0042600D01*
X0046667Y0042642D01*
X0046673Y0042683D01*
X0046682Y0042723D01*
X0046695Y0042763D01*
X0046712Y0042801D01*
X0046732Y0042837D01*
X0046756Y0042871D01*
X0046782Y0042903D01*
X0046812Y0042933D01*
X0046844Y0042959D01*
X0046878Y0042983D01*
X0046914Y0043003D01*
X0046952Y0043020D01*
X0046992Y0043033D01*
X0047032Y0043042D01*
X0047073Y0043048D01*
X0047115Y0043050D01*
X0047865Y0043050D01*
X0049257Y0042600D02*
X0049257Y0041700D01*
X0049259Y0041658D01*
X0049265Y0041617D01*
X0049274Y0041577D01*
X0049287Y0041537D01*
X0049304Y0041499D01*
X0049324Y0041463D01*
X0049348Y0041429D01*
X0049374Y0041397D01*
X0049404Y0041367D01*
X0049436Y0041341D01*
X0049470Y0041317D01*
X0049506Y0041297D01*
X0049544Y0041280D01*
X0049584Y0041267D01*
X0049624Y0041258D01*
X0049665Y0041252D01*
X0049707Y0041250D01*
X0050457Y0041250D01*
X0050457Y0043950D01*
X0050457Y0043050D02*
X0049707Y0043050D01*
X0049665Y0043048D01*
X0049624Y0043042D01*
X0049584Y0043033D01*
X0049544Y0043020D01*
X0049506Y0043003D01*
X0049470Y0042983D01*
X0049436Y0042959D01*
X0049404Y0042933D01*
X0049374Y0042903D01*
X0049348Y0042871D01*
X0049324Y0042837D01*
X0049304Y0042801D01*
X0049287Y0042763D01*
X0049274Y0042723D01*
X0049265Y0042683D01*
X0049259Y0042642D01*
X0049257Y0042600D01*
X0047865Y0041250D02*
X0047115Y0041250D01*
X0047073Y0041252D01*
X0047032Y0041258D01*
X0046992Y0041267D01*
X0046952Y0041280D01*
X0046914Y0041297D01*
X0046878Y0041317D01*
X0046844Y0041341D01*
X0046812Y0041367D01*
X0046782Y0041397D01*
X0046756Y0041429D01*
X0046732Y0041463D01*
X0046712Y0041499D01*
X0046695Y0041537D01*
X0046682Y0041577D01*
X0046673Y0041617D01*
X0046667Y0041658D01*
X0046665Y0041700D01*
X0047865Y0041250D02*
X0047865Y0043950D01*
X0047822Y0046050D02*
X0047672Y0046050D01*
X0047822Y0046050D02*
X0047864Y0046052D01*
X0047905Y0046058D01*
X0047945Y0046067D01*
X0047985Y0046080D01*
X0048023Y0046097D01*
X0048059Y0046117D01*
X0048093Y0046141D01*
X0048125Y0046167D01*
X0048155Y0046197D01*
X0048181Y0046229D01*
X0048205Y0046263D01*
X0048225Y0046299D01*
X0048242Y0046337D01*
X0048255Y0046377D01*
X0048264Y0046417D01*
X0048270Y0046458D01*
X0048272Y0046500D01*
X0048272Y0048750D01*
X0048572Y0047850D02*
X0047672Y0047850D01*
X0046384Y0047850D02*
X0045634Y0047850D01*
X0045592Y0047848D01*
X0045551Y0047842D01*
X0045511Y0047833D01*
X0045471Y0047820D01*
X0045433Y0047803D01*
X0045397Y0047783D01*
X0045363Y0047759D01*
X0045331Y0047733D01*
X0045301Y0047703D01*
X0045275Y0047671D01*
X0045251Y0047637D01*
X0045231Y0047601D01*
X0045214Y0047563D01*
X0045201Y0047523D01*
X0045192Y0047483D01*
X0045186Y0047442D01*
X0045184Y0047400D01*
X0045184Y0046050D01*
X0046384Y0046050D02*
X0046384Y0048750D01*
X0043792Y0047250D02*
X0043792Y0046500D01*
X0043790Y0046458D01*
X0043784Y0046417D01*
X0043775Y0046377D01*
X0043762Y0046337D01*
X0043745Y0046299D01*
X0043725Y0046263D01*
X0043701Y0046229D01*
X0043675Y0046197D01*
X0043645Y0046167D01*
X0043613Y0046141D01*
X0043579Y0046117D01*
X0043543Y0046097D01*
X0043505Y0046080D01*
X0043465Y0046067D01*
X0043425Y0046058D01*
X0043384Y0046052D01*
X0043342Y0046050D01*
X0042592Y0046050D01*
X0041175Y0046050D02*
X0041175Y0047850D01*
X0040275Y0047850D01*
X0040275Y0047550D01*
X0039184Y0047850D02*
X0038434Y0047850D01*
X0038392Y0047848D01*
X0038351Y0047842D01*
X0038311Y0047833D01*
X0038271Y0047820D01*
X0038233Y0047803D01*
X0038197Y0047783D01*
X0038163Y0047759D01*
X0038131Y0047733D01*
X0038101Y0047703D01*
X0038075Y0047671D01*
X0038051Y0047637D01*
X0038031Y0047601D01*
X0038014Y0047563D01*
X0038001Y0047523D01*
X0037992Y0047483D01*
X0037986Y0047442D01*
X0037984Y0047400D01*
X0037984Y0046050D01*
X0039184Y0046050D02*
X0039184Y0047850D01*
X0042592Y0047250D02*
X0042592Y0046950D01*
X0043792Y0046950D01*
X0043792Y0047250D02*
X0043790Y0047298D01*
X0043784Y0047346D01*
X0043775Y0047394D01*
X0043761Y0047440D01*
X0043744Y0047485D01*
X0043723Y0047529D01*
X0043699Y0047571D01*
X0043672Y0047610D01*
X0043641Y0047648D01*
X0043608Y0047683D01*
X0043571Y0047715D01*
X0043533Y0047744D01*
X0043492Y0047770D01*
X0043449Y0047792D01*
X0043405Y0047811D01*
X0043359Y0047826D01*
X0043312Y0047838D01*
X0043264Y0047846D01*
X0043216Y0047850D01*
X0043168Y0047850D01*
X0043120Y0047846D01*
X0043072Y0047838D01*
X0043025Y0047826D01*
X0042979Y0047811D01*
X0042935Y0047792D01*
X0042892Y0047770D01*
X0042851Y0047744D01*
X0042813Y0047715D01*
X0042776Y0047683D01*
X0042743Y0047648D01*
X0042712Y0047610D01*
X0042685Y0047571D01*
X0042661Y0047529D01*
X0042640Y0047485D01*
X0042623Y0047440D01*
X0042609Y0047394D01*
X0042600Y0047346D01*
X0042594Y0047298D01*
X0042592Y0047250D01*
X0040930Y0043950D02*
X0040977Y0043948D01*
X0041024Y0043943D01*
X0041070Y0043933D01*
X0041115Y0043921D01*
X0041160Y0043904D01*
X0041202Y0043885D01*
X0041243Y0043862D01*
X0041283Y0043835D01*
X0041320Y0043806D01*
X0041354Y0043774D01*
X0041386Y0043740D01*
X0041415Y0043703D01*
X0041442Y0043663D01*
X0041465Y0043622D01*
X0041484Y0043580D01*
X0041501Y0043535D01*
X0041513Y0043490D01*
X0041523Y0043444D01*
X0041528Y0043397D01*
X0041530Y0043350D01*
X0041230Y0042825D02*
X0040405Y0042375D01*
X0040705Y0041250D02*
X0040772Y0041252D01*
X0040838Y0041257D01*
X0040904Y0041266D01*
X0040970Y0041278D01*
X0041035Y0041294D01*
X0041099Y0041313D01*
X0041161Y0041335D01*
X0041223Y0041361D01*
X0041283Y0041390D01*
X0041342Y0041422D01*
X0041398Y0041457D01*
X0041453Y0041494D01*
X0041506Y0041535D01*
X0041556Y0041579D01*
X0041605Y0041625D01*
X0040405Y0042375D02*
X0040364Y0042348D01*
X0040325Y0042319D01*
X0040289Y0042286D01*
X0040256Y0042251D01*
X0040225Y0042213D01*
X0040198Y0042173D01*
X0040174Y0042131D01*
X0040153Y0042087D01*
X0040136Y0042041D01*
X0040122Y0041995D01*
X0040113Y0041947D01*
X0040107Y0041899D01*
X0040105Y0041850D01*
X0040107Y0041803D01*
X0040112Y0041756D01*
X0040122Y0041710D01*
X0040134Y0041665D01*
X0040151Y0041620D01*
X0040170Y0041578D01*
X0040193Y0041537D01*
X0040220Y0041497D01*
X0040249Y0041460D01*
X0040281Y0041426D01*
X0040315Y0041394D01*
X0040352Y0041365D01*
X0040392Y0041338D01*
X0040433Y0041315D01*
X0040475Y0041296D01*
X0040520Y0041279D01*
X0040565Y0041267D01*
X0040611Y0041257D01*
X0040658Y0041252D01*
X0040705Y0041250D01*
X0040255Y0043725D02*
X0040309Y0043763D01*
X0040365Y0043798D01*
X0040423Y0043829D01*
X0040482Y0043857D01*
X0040543Y0043881D01*
X0040606Y0043902D01*
X0040669Y0043919D01*
X0040734Y0043933D01*
X0040799Y0043942D01*
X0040864Y0043948D01*
X0040930Y0043950D01*
X0041530Y0043350D02*
X0041528Y0043301D01*
X0041522Y0043253D01*
X0041513Y0043205D01*
X0041499Y0043159D01*
X0041482Y0043113D01*
X0041461Y0043069D01*
X0041437Y0043027D01*
X0041410Y0042987D01*
X0041379Y0042949D01*
X0041346Y0042914D01*
X0041310Y0042881D01*
X0041271Y0042852D01*
X0041230Y0042825D01*
X0038858Y0042600D02*
X0038858Y0041700D01*
X0038856Y0041658D01*
X0038850Y0041617D01*
X0038841Y0041577D01*
X0038828Y0041537D01*
X0038811Y0041499D01*
X0038791Y0041463D01*
X0038767Y0041429D01*
X0038741Y0041397D01*
X0038711Y0041367D01*
X0038679Y0041341D01*
X0038645Y0041317D01*
X0038609Y0041297D01*
X0038571Y0041280D01*
X0038531Y0041267D01*
X0038491Y0041258D01*
X0038450Y0041252D01*
X0038408Y0041250D01*
X0037808Y0041250D01*
X0036559Y0041250D02*
X0036559Y0043950D01*
X0036559Y0043050D02*
X0035809Y0043050D01*
X0035767Y0043048D01*
X0035726Y0043042D01*
X0035686Y0043033D01*
X0035646Y0043020D01*
X0035608Y0043003D01*
X0035572Y0042983D01*
X0035538Y0042959D01*
X0035506Y0042933D01*
X0035476Y0042903D01*
X0035450Y0042871D01*
X0035426Y0042837D01*
X0035406Y0042801D01*
X0035389Y0042763D01*
X0035376Y0042723D01*
X0035367Y0042683D01*
X0035361Y0042642D01*
X0035359Y0042600D01*
X0035359Y0041250D01*
X0033871Y0041700D02*
X0033871Y0043050D01*
X0032671Y0043050D02*
X0032671Y0041250D01*
X0033421Y0041250D01*
X0033463Y0041252D01*
X0033504Y0041258D01*
X0033544Y0041267D01*
X0033584Y0041280D01*
X0033622Y0041297D01*
X0033658Y0041317D01*
X0033692Y0041341D01*
X0033724Y0041367D01*
X0033754Y0041397D01*
X0033780Y0041429D01*
X0033804Y0041463D01*
X0033824Y0041499D01*
X0033841Y0041537D01*
X0033854Y0041577D01*
X0033863Y0041617D01*
X0033869Y0041658D01*
X0033871Y0041700D01*
X0031269Y0041700D02*
X0031269Y0043950D01*
X0029839Y0043050D02*
X0028639Y0043050D01*
X0029839Y0041250D01*
X0028639Y0041250D01*
X0030819Y0041250D02*
X0030861Y0041252D01*
X0030902Y0041258D01*
X0030942Y0041267D01*
X0030982Y0041280D01*
X0031020Y0041297D01*
X0031056Y0041317D01*
X0031090Y0041341D01*
X0031122Y0041367D01*
X0031152Y0041397D01*
X0031178Y0041429D01*
X0031202Y0041463D01*
X0031222Y0041499D01*
X0031239Y0041537D01*
X0031252Y0041577D01*
X0031261Y0041617D01*
X0031267Y0041658D01*
X0031269Y0041700D01*
X0027536Y0045150D02*
X0026936Y0045150D01*
X0026894Y0045152D01*
X0026853Y0045158D01*
X0026813Y0045167D01*
X0026773Y0045180D01*
X0026735Y0045197D01*
X0026699Y0045217D01*
X0026665Y0045241D01*
X0026633Y0045267D01*
X0026603Y0045297D01*
X0026577Y0045329D01*
X0026553Y0045363D01*
X0026533Y0045399D01*
X0026516Y0045437D01*
X0026503Y0045477D01*
X0026494Y0045517D01*
X0026488Y0045558D01*
X0026486Y0045600D01*
X0026486Y0047850D01*
X0027236Y0047850D01*
X0027278Y0047848D01*
X0027319Y0047842D01*
X0027359Y0047833D01*
X0027399Y0047820D01*
X0027437Y0047803D01*
X0027473Y0047783D01*
X0027507Y0047759D01*
X0027539Y0047733D01*
X0027569Y0047703D01*
X0027595Y0047671D01*
X0027619Y0047637D01*
X0027639Y0047601D01*
X0027656Y0047563D01*
X0027669Y0047523D01*
X0027678Y0047483D01*
X0027684Y0047442D01*
X0027686Y0047400D01*
X0027686Y0046500D01*
X0027684Y0046458D01*
X0027678Y0046417D01*
X0027669Y0046377D01*
X0027656Y0046337D01*
X0027639Y0046299D01*
X0027619Y0046263D01*
X0027595Y0046229D01*
X0027569Y0046197D01*
X0027539Y0046167D01*
X0027507Y0046141D01*
X0027473Y0046117D01*
X0027437Y0046097D01*
X0027399Y0046080D01*
X0027359Y0046067D01*
X0027319Y0046058D01*
X0027278Y0046052D01*
X0027236Y0046050D01*
X0026486Y0046050D01*
X0025072Y0046500D02*
X0025072Y0047250D01*
X0025072Y0046950D02*
X0023872Y0046950D01*
X0023872Y0047250D01*
X0023874Y0047298D01*
X0023880Y0047346D01*
X0023889Y0047394D01*
X0023903Y0047440D01*
X0023920Y0047485D01*
X0023941Y0047529D01*
X0023965Y0047571D01*
X0023992Y0047610D01*
X0024023Y0047648D01*
X0024056Y0047683D01*
X0024093Y0047715D01*
X0024131Y0047744D01*
X0024172Y0047770D01*
X0024215Y0047792D01*
X0024259Y0047811D01*
X0024305Y0047826D01*
X0024352Y0047838D01*
X0024400Y0047846D01*
X0024448Y0047850D01*
X0024496Y0047850D01*
X0024544Y0047846D01*
X0024592Y0047838D01*
X0024639Y0047826D01*
X0024685Y0047811D01*
X0024729Y0047792D01*
X0024772Y0047770D01*
X0024813Y0047744D01*
X0024851Y0047715D01*
X0024888Y0047683D01*
X0024921Y0047648D01*
X0024952Y0047610D01*
X0024979Y0047571D01*
X0025003Y0047529D01*
X0025024Y0047485D01*
X0025041Y0047440D01*
X0025055Y0047394D01*
X0025064Y0047346D01*
X0025070Y0047298D01*
X0025072Y0047250D01*
X0025072Y0046500D02*
X0025070Y0046458D01*
X0025064Y0046417D01*
X0025055Y0046377D01*
X0025042Y0046337D01*
X0025025Y0046299D01*
X0025005Y0046263D01*
X0024981Y0046229D01*
X0024955Y0046197D01*
X0024925Y0046167D01*
X0024893Y0046141D01*
X0024859Y0046117D01*
X0024823Y0046097D01*
X0024785Y0046080D01*
X0024745Y0046067D01*
X0024705Y0046058D01*
X0024664Y0046052D01*
X0024622Y0046050D01*
X0023872Y0046050D01*
X0022545Y0046500D02*
X0022545Y0048750D01*
X0022845Y0047850D02*
X0021945Y0047850D01*
X0022545Y0046500D02*
X0022543Y0046458D01*
X0022537Y0046417D01*
X0022528Y0046377D01*
X0022515Y0046337D01*
X0022498Y0046299D01*
X0022478Y0046263D01*
X0022454Y0046229D01*
X0022428Y0046197D01*
X0022398Y0046167D01*
X0022366Y0046141D01*
X0022332Y0046117D01*
X0022296Y0046097D01*
X0022258Y0046080D01*
X0022218Y0046067D01*
X0022178Y0046058D01*
X0022137Y0046052D01*
X0022095Y0046050D01*
X0021945Y0046050D01*
X0029078Y0046050D02*
X0029828Y0046050D01*
X0029870Y0046052D01*
X0029911Y0046058D01*
X0029951Y0046067D01*
X0029991Y0046080D01*
X0030029Y0046097D01*
X0030065Y0046117D01*
X0030099Y0046141D01*
X0030131Y0046167D01*
X0030161Y0046197D01*
X0030187Y0046229D01*
X0030211Y0046263D01*
X0030231Y0046299D01*
X0030248Y0046337D01*
X0030261Y0046377D01*
X0030270Y0046417D01*
X0030276Y0046458D01*
X0030278Y0046500D01*
X0030278Y0047400D01*
X0030276Y0047442D01*
X0030270Y0047483D01*
X0030261Y0047523D01*
X0030248Y0047563D01*
X0030231Y0047601D01*
X0030211Y0047637D01*
X0030187Y0047671D01*
X0030161Y0047703D01*
X0030131Y0047733D01*
X0030099Y0047759D01*
X0030065Y0047783D01*
X0030029Y0047803D01*
X0029991Y0047820D01*
X0029951Y0047833D01*
X0029911Y0047842D01*
X0029870Y0047848D01*
X0029828Y0047850D01*
X0029078Y0047850D01*
X0029078Y0048750D02*
X0029078Y0046050D01*
X0031480Y0046050D02*
X0031480Y0047850D01*
X0031405Y0048600D02*
X0031555Y0048600D01*
X0031555Y0048750D01*
X0031405Y0048750D01*
X0031405Y0048600D01*
X0032680Y0048750D02*
X0033280Y0046050D01*
X0033880Y0047850D01*
X0034480Y0046050D01*
X0035080Y0048750D01*
X0037808Y0043050D02*
X0038408Y0043050D01*
X0038450Y0043048D01*
X0038491Y0043042D01*
X0038531Y0043033D01*
X0038571Y0043020D01*
X0038609Y0043003D01*
X0038645Y0042983D01*
X0038679Y0042959D01*
X0038711Y0042933D01*
X0038741Y0042903D01*
X0038767Y0042871D01*
X0038791Y0042837D01*
X0038811Y0042801D01*
X0038828Y0042763D01*
X0038841Y0042723D01*
X0038850Y0042683D01*
X0038856Y0042642D01*
X0038858Y0042600D01*
X0049299Y0047550D02*
X0049299Y0047850D01*
X0050199Y0047850D01*
X0050199Y0046050D01*
X0051616Y0046650D02*
X0051616Y0047250D01*
X0051618Y0047298D01*
X0051624Y0047346D01*
X0051633Y0047394D01*
X0051647Y0047440D01*
X0051664Y0047485D01*
X0051685Y0047529D01*
X0051709Y0047571D01*
X0051736Y0047610D01*
X0051767Y0047648D01*
X0051800Y0047683D01*
X0051837Y0047715D01*
X0051875Y0047744D01*
X0051916Y0047770D01*
X0051959Y0047792D01*
X0052003Y0047811D01*
X0052049Y0047826D01*
X0052096Y0047838D01*
X0052144Y0047846D01*
X0052192Y0047850D01*
X0052240Y0047850D01*
X0052288Y0047846D01*
X0052336Y0047838D01*
X0052383Y0047826D01*
X0052429Y0047811D01*
X0052473Y0047792D01*
X0052516Y0047770D01*
X0052557Y0047744D01*
X0052595Y0047715D01*
X0052632Y0047683D01*
X0052665Y0047648D01*
X0052696Y0047610D01*
X0052723Y0047571D01*
X0052747Y0047529D01*
X0052768Y0047485D01*
X0052785Y0047440D01*
X0052799Y0047394D01*
X0052808Y0047346D01*
X0052814Y0047298D01*
X0052816Y0047250D01*
X0052816Y0046650D01*
X0052814Y0046602D01*
X0052808Y0046554D01*
X0052799Y0046506D01*
X0052785Y0046460D01*
X0052768Y0046415D01*
X0052747Y0046371D01*
X0052723Y0046329D01*
X0052696Y0046290D01*
X0052665Y0046252D01*
X0052632Y0046217D01*
X0052595Y0046185D01*
X0052557Y0046156D01*
X0052516Y0046130D01*
X0052473Y0046108D01*
X0052429Y0046089D01*
X0052383Y0046074D01*
X0052336Y0046062D01*
X0052288Y0046054D01*
X0052240Y0046050D01*
X0052192Y0046050D01*
X0052144Y0046054D01*
X0052096Y0046062D01*
X0052049Y0046074D01*
X0052003Y0046089D01*
X0051959Y0046108D01*
X0051916Y0046130D01*
X0051875Y0046156D01*
X0051837Y0046185D01*
X0051800Y0046217D01*
X0051767Y0046252D01*
X0051736Y0046290D01*
X0051709Y0046329D01*
X0051685Y0046371D01*
X0051664Y0046415D01*
X0051647Y0046460D01*
X0051633Y0046506D01*
X0051624Y0046554D01*
X0051618Y0046602D01*
X0051616Y0046650D01*
X0054250Y0046050D02*
X0054250Y0048750D01*
X0055750Y0048750D02*
X0054250Y0046050D01*
X0055750Y0046050D02*
X0055750Y0048750D01*
X0055750Y0043950D02*
X0055000Y0043950D01*
X0054952Y0043948D01*
X0054904Y0043942D01*
X0054856Y0043933D01*
X0054810Y0043919D01*
X0054765Y0043902D01*
X0054721Y0043881D01*
X0054679Y0043857D01*
X0054640Y0043830D01*
X0054602Y0043799D01*
X0054567Y0043766D01*
X0054535Y0043729D01*
X0054506Y0043691D01*
X0054480Y0043650D01*
X0054458Y0043607D01*
X0054439Y0043563D01*
X0054424Y0043517D01*
X0054412Y0043470D01*
X0054404Y0043422D01*
X0054400Y0043374D01*
X0054400Y0043326D01*
X0054404Y0043278D01*
X0054412Y0043230D01*
X0054424Y0043183D01*
X0054439Y0043137D01*
X0054458Y0043093D01*
X0054480Y0043050D01*
X0054506Y0043009D01*
X0054535Y0042971D01*
X0054567Y0042934D01*
X0054602Y0042901D01*
X0054640Y0042870D01*
X0054679Y0042843D01*
X0054721Y0042819D01*
X0054765Y0042798D01*
X0054810Y0042781D01*
X0054856Y0042767D01*
X0054904Y0042758D01*
X0054952Y0042752D01*
X0055000Y0042750D01*
X0055750Y0042750D01*
X0055000Y0042750D02*
X0054946Y0042748D01*
X0054893Y0042742D01*
X0054841Y0042733D01*
X0054789Y0042720D01*
X0054738Y0042703D01*
X0054688Y0042682D01*
X0054641Y0042658D01*
X0054595Y0042631D01*
X0054551Y0042600D01*
X0054509Y0042567D01*
X0054470Y0042530D01*
X0054433Y0042491D01*
X0054400Y0042449D01*
X0054369Y0042405D01*
X0054342Y0042359D01*
X0054318Y0042312D01*
X0054297Y0042262D01*
X0054280Y0042211D01*
X0054267Y0042159D01*
X0054258Y0042107D01*
X0054252Y0042054D01*
X0054250Y0042000D01*
X0054252Y0041946D01*
X0054258Y0041893D01*
X0054267Y0041841D01*
X0054280Y0041789D01*
X0054297Y0041738D01*
X0054318Y0041688D01*
X0054342Y0041641D01*
X0054369Y0041595D01*
X0054400Y0041551D01*
X0054433Y0041509D01*
X0054470Y0041470D01*
X0054509Y0041433D01*
X0054551Y0041400D01*
X0054595Y0041369D01*
X0054641Y0041342D01*
X0054688Y0041318D01*
X0054738Y0041297D01*
X0054789Y0041280D01*
X0054841Y0041267D01*
X0054893Y0041258D01*
X0054946Y0041252D01*
X0055000Y0041250D01*
X0055750Y0041250D01*
X0055750Y0043950D01*
X0053071Y0042450D02*
X0053071Y0041850D01*
X0053069Y0041802D01*
X0053063Y0041754D01*
X0053054Y0041706D01*
X0053040Y0041660D01*
X0053023Y0041615D01*
X0053002Y0041571D01*
X0052978Y0041529D01*
X0052951Y0041490D01*
X0052920Y0041452D01*
X0052887Y0041417D01*
X0052850Y0041385D01*
X0052812Y0041356D01*
X0052771Y0041330D01*
X0052728Y0041308D01*
X0052684Y0041289D01*
X0052638Y0041274D01*
X0052591Y0041262D01*
X0052543Y0041254D01*
X0052495Y0041250D01*
X0052447Y0041250D01*
X0052399Y0041254D01*
X0052351Y0041262D01*
X0052304Y0041274D01*
X0052258Y0041289D01*
X0052214Y0041308D01*
X0052171Y0041330D01*
X0052130Y0041356D01*
X0052092Y0041385D01*
X0052055Y0041417D01*
X0052022Y0041452D01*
X0051991Y0041490D01*
X0051964Y0041529D01*
X0051940Y0041571D01*
X0051919Y0041615D01*
X0051902Y0041660D01*
X0051888Y0041706D01*
X0051879Y0041754D01*
X0051873Y0041802D01*
X0051871Y0041850D01*
X0051871Y0042450D01*
X0051873Y0042498D01*
X0051879Y0042546D01*
X0051888Y0042594D01*
X0051902Y0042640D01*
X0051919Y0042685D01*
X0051940Y0042729D01*
X0051964Y0042771D01*
X0051991Y0042810D01*
X0052022Y0042848D01*
X0052055Y0042883D01*
X0052092Y0042915D01*
X0052130Y0042944D01*
X0052171Y0042970D01*
X0052214Y0042992D01*
X0052258Y0043011D01*
X0052304Y0043026D01*
X0052351Y0043038D01*
X0052399Y0043046D01*
X0052447Y0043050D01*
X0052495Y0043050D01*
X0052543Y0043046D01*
X0052591Y0043038D01*
X0052638Y0043026D01*
X0052684Y0043011D01*
X0052728Y0042992D01*
X0052771Y0042970D01*
X0052812Y0042944D01*
X0052850Y0042915D01*
X0052887Y0042883D01*
X0052920Y0042848D01*
X0052951Y0042810D01*
X0052978Y0042771D01*
X0053002Y0042729D01*
X0053023Y0042685D01*
X0053040Y0042640D01*
X0053054Y0042594D01*
X0053063Y0042546D01*
X0053069Y0042498D01*
X0053071Y0042450D01*
M02*
