G04 EAGLE Gerber X2 export*
%TF.Part,Single*%
%TF.FileFunction,Copper,L2,Bot,Mixed*%
%TF.FilePolarity,Positive*%
%TF.GenerationSoftware,Autodesk,EAGLE,9.0.1*%
%TF.CreationDate,2018-09-05T19:34:14Z*%
G75*
%MOMM*%
%FSLAX34Y34*%
%LPD*%
%AMOC8*
5,1,8,0,0,1.08239X$1,22.5*%
G01*
%ADD10R,0.900000X0.700000*%
%ADD11R,1.000000X0.500000*%
%ADD12R,0.700000X0.900000*%
%ADD13R,1.000000X2.540000*%
%ADD14R,0.600000X1.200000*%
%ADD15R,0.750000X0.750000*%
%ADD16R,1.270000X0.635000*%
%ADD17C,0.254000*%
%ADD18C,0.604000*%
%ADD19C,0.406400*%


D10*
X78105Y225575D03*
X78105Y212575D03*
D11*
X18240Y292100D03*
X18240Y279400D03*
X18240Y266700D03*
X18240Y254000D03*
X18240Y304800D03*
X18240Y317500D03*
X18240Y330200D03*
X75740Y330200D03*
X75740Y317500D03*
X75740Y304800D03*
X75740Y292100D03*
X75740Y279400D03*
X75740Y266700D03*
X75740Y254000D03*
D12*
X81430Y241300D03*
X68430Y241300D03*
D13*
X85090Y147320D03*
X69850Y147320D03*
X54610Y147320D03*
X24130Y147320D03*
X39370Y147320D03*
X8890Y147320D03*
D14*
X13970Y237550D03*
X26670Y237550D03*
X39370Y237550D03*
X52070Y237550D03*
X52070Y181550D03*
X39370Y181550D03*
X26670Y181550D03*
X13970Y181550D03*
D15*
X86360Y335280D03*
X7620Y335280D03*
X86360Y293370D03*
X7620Y255270D03*
X86360Y266700D03*
X7620Y274320D03*
X86360Y189230D03*
X7620Y318770D03*
D12*
X35710Y167640D03*
X22710Y167640D03*
X53190Y167640D03*
X66190Y167640D03*
D16*
X72018Y181256D03*
X72018Y189384D03*
X72018Y197512D03*
D17*
X12700Y330200D02*
X7620Y335280D01*
X12700Y330200D02*
X18240Y330200D01*
X52070Y237550D02*
X52070Y222250D01*
D18*
X26363Y323779D03*
D17*
X19942Y330200D01*
X18240Y330200D01*
D18*
X52070Y222250D03*
X64135Y210081D03*
D17*
X52070Y222146D02*
X52070Y222250D01*
X52070Y222146D02*
X64135Y210081D01*
X77611Y210081D01*
X78105Y212575D01*
X77611Y203105D02*
X72018Y197512D01*
X77611Y203105D02*
X77611Y210081D01*
X18240Y254000D02*
X8890Y254000D01*
X7620Y255270D01*
X86360Y189230D02*
X86360Y189011D01*
X18240Y304800D02*
X16970Y304270D01*
X27940Y304800D02*
X39394Y293346D01*
X27940Y304800D02*
X18240Y304800D01*
X39394Y293346D02*
X39394Y237574D01*
X39370Y237550D01*
X26670Y237550D02*
X26670Y243995D01*
X35330Y252655D01*
X35330Y282170D01*
X25400Y292100D01*
X18240Y292100D01*
X68102Y297902D02*
X80838Y297902D01*
X68102Y297902D02*
X66168Y295968D01*
X86360Y303424D02*
X86360Y320040D01*
X86360Y303424D02*
X80838Y297902D01*
X74470Y254530D02*
X75740Y254000D01*
X85370Y293370D02*
X86360Y293370D01*
X81828Y297902D01*
X80838Y297902D01*
D18*
X86360Y320040D03*
X57884Y257157D03*
D17*
X66040Y257157D01*
X72583Y257157D01*
X75740Y254000D01*
X66168Y257285D02*
X66040Y257157D01*
X66168Y257285D02*
X66168Y295968D01*
X18240Y266700D02*
X16970Y267230D01*
X16970Y266170D02*
X18240Y266700D01*
X15988Y267682D02*
X9673Y273997D01*
X8668Y275002D01*
X15988Y267682D02*
X18240Y266700D01*
X9553Y247460D02*
X7668Y245575D01*
X15988Y266399D02*
X15988Y267682D01*
X9673Y273833D02*
X9673Y273997D01*
X27280Y250353D02*
X24387Y247460D01*
X27280Y250353D02*
X27280Y257647D01*
X24387Y247460D02*
X9553Y247460D01*
X7620Y271780D02*
X7620Y274320D01*
X9673Y273833D02*
X7620Y271780D01*
D18*
X29516Y266700D03*
X8890Y167640D03*
D17*
X7668Y168862D01*
X7668Y245575D01*
X27280Y257647D02*
X29516Y259883D01*
X29516Y266700D01*
X18240Y266700D01*
X81430Y247520D02*
X85312Y251402D01*
X81430Y247520D02*
X81430Y241300D01*
X85312Y281258D02*
X75740Y292100D01*
X85312Y281258D02*
X85312Y266456D01*
X85312Y251402D01*
X86360Y266700D02*
X88656Y266456D01*
X85312Y266456D01*
X52070Y181550D02*
X65980Y167640D01*
X66190Y167640D01*
X69850Y163980D01*
X69850Y147320D01*
X54610Y166220D02*
X53190Y167640D01*
X54610Y166220D02*
X54610Y147320D01*
X53190Y167640D02*
X52070Y167640D01*
X39370Y180340D02*
X39370Y181550D01*
X39370Y180340D02*
X52070Y167640D01*
X13970Y176380D02*
X13970Y181550D01*
X13970Y176380D02*
X22710Y167640D01*
X22710Y148740D01*
X24130Y147320D01*
X26670Y176680D02*
X26670Y181550D01*
X26670Y176680D02*
X35710Y167640D01*
X39370Y163980D01*
X39370Y147320D01*
X22302Y228248D02*
X20368Y230182D01*
X45768Y244918D02*
X47702Y246852D01*
X52070Y246852D01*
X56438Y246852D01*
X20368Y231152D02*
X20368Y230182D01*
X20368Y231152D02*
X13970Y237550D01*
X43738Y228248D02*
X45768Y230278D01*
X45768Y244918D01*
X36830Y228248D02*
X22302Y228248D01*
X36830Y228248D02*
X43738Y228248D01*
X78105Y227815D02*
X78105Y225575D01*
X80820Y335280D02*
X86360Y335280D01*
X80820Y335280D02*
X75740Y330200D01*
D18*
X59690Y288290D03*
X66040Y322496D03*
D17*
X73744Y330200D01*
X75740Y330200D01*
X66040Y322496D02*
X59690Y316146D01*
X59690Y288290D01*
D18*
X41910Y208280D03*
D17*
X36830Y213360D01*
X36830Y228248D01*
X52070Y246852D02*
X52070Y280670D01*
X59690Y288290D01*
X56438Y246852D02*
X61990Y241300D01*
X68430Y241300D01*
X68430Y237250D02*
X78105Y225575D01*
X68430Y237250D02*
X68430Y241300D01*
X72018Y181256D02*
X62584Y181256D01*
X57864Y185976D02*
X57864Y188707D01*
X56071Y190500D01*
X57864Y185976D02*
X62584Y181256D01*
X56071Y190500D02*
X46990Y190500D01*
X41910Y195580D01*
X41910Y208280D01*
X8890Y317500D02*
X7620Y318770D01*
X8890Y317500D02*
X18240Y317500D01*
D18*
X73660Y129766D03*
D19*
X82776Y129766D01*
X85090Y132080D01*
X85090Y147320D01*
D18*
X20320Y130076D03*
D19*
X10894Y130076D01*
X8890Y132080D01*
X8890Y147320D01*
D17*
X63346Y189384D02*
X72018Y189384D01*
D18*
X44450Y222250D03*
D17*
X44450Y213962D02*
X47724Y210688D01*
X44450Y213962D02*
X44450Y222250D01*
X47724Y210688D02*
X47724Y205006D01*
X63346Y189384D01*
M02*
