G04 EAGLE Gerber X2 export*
%TF.Part,Single*%
%TF.FileFunction,Profile,NP*%
%TF.FilePolarity,Positive*%
%TF.GenerationSoftware,Autodesk,EAGLE,9.0.1*%
%TF.CreationDate,2018-09-05T19:34:14Z*%
G75*
%MOMM*%
%FSLAX34Y34*%
%LPD*%
%AMOC8*
5,1,8,0,0,1.08239X$1,22.5*%
G01*
%ADD10C,0.254000*%


D10*
X0Y53340D02*
X17500Y53340D01*
X18372Y53378D01*
X19236Y53492D01*
X20088Y53681D01*
X20920Y53943D01*
X21726Y54277D01*
X22500Y54680D01*
X23236Y55148D01*
X23928Y55680D01*
X24571Y56269D01*
X25160Y56912D01*
X25692Y57604D01*
X26160Y58340D01*
X26563Y59114D01*
X26897Y59920D01*
X27159Y60752D01*
X27348Y61604D01*
X27462Y62468D01*
X27500Y63340D01*
X27500Y118110D01*
X67750Y118110D01*
X67539Y63379D01*
X67573Y62508D01*
X67684Y61642D01*
X67869Y60790D01*
X68129Y59957D01*
X68459Y59149D01*
X68859Y58374D01*
X69325Y57636D01*
X69853Y56942D01*
X70440Y56297D01*
X71081Y55705D01*
X71771Y55171D01*
X72505Y54699D01*
X73277Y54294D01*
X74082Y53957D01*
X74913Y53691D01*
X75764Y53499D01*
X76629Y53382D01*
X77500Y53340D01*
X77539Y53340D01*
X95250Y53340D01*
X95250Y342900D01*
X0Y342900D01*
X0Y53340D01*
X10000Y67063D02*
X9924Y66194D01*
X9772Y65334D01*
X9546Y64490D01*
X9248Y63670D01*
X8879Y62878D01*
X8442Y62122D01*
X7941Y61407D01*
X7380Y60738D01*
X6762Y60120D01*
X6093Y59559D01*
X5378Y59058D01*
X4622Y58621D01*
X3830Y58252D01*
X3010Y57954D01*
X2166Y57728D01*
X1307Y57576D01*
X437Y57500D01*
X-437Y57500D01*
X-1307Y57576D01*
X-2166Y57728D01*
X-3010Y57954D01*
X-3830Y58252D01*
X-4622Y58621D01*
X-5378Y59058D01*
X-6093Y59559D01*
X-6762Y60120D01*
X-7380Y60738D01*
X-7941Y61407D01*
X-8442Y62122D01*
X-8879Y62878D01*
X-9248Y63670D01*
X-9546Y64490D01*
X-9772Y65334D01*
X-9924Y66194D01*
X-10000Y67063D01*
X-10000Y67937D01*
X-9924Y68807D01*
X-9772Y69666D01*
X-9546Y70510D01*
X-9248Y71330D01*
X-8879Y72122D01*
X-8442Y72878D01*
X-7941Y73593D01*
X-7380Y74262D01*
X-6762Y74880D01*
X-6093Y75441D01*
X-5378Y75942D01*
X-4622Y76379D01*
X-3830Y76748D01*
X-3010Y77046D01*
X-2166Y77272D01*
X-1307Y77424D01*
X-437Y77500D01*
X437Y77500D01*
X1307Y77424D01*
X2166Y77272D01*
X3010Y77046D01*
X3830Y76748D01*
X4622Y76379D01*
X5378Y75942D01*
X6093Y75441D01*
X6762Y74880D01*
X7380Y74262D01*
X7941Y73593D01*
X8442Y72878D01*
X8879Y72122D01*
X9248Y71330D01*
X9546Y70510D01*
X9772Y69666D01*
X9924Y68807D01*
X10000Y67937D01*
X10000Y67063D01*
X105250Y67063D02*
X105174Y66194D01*
X105022Y65334D01*
X104796Y64490D01*
X104498Y63670D01*
X104129Y62878D01*
X103692Y62122D01*
X103191Y61407D01*
X102630Y60738D01*
X102012Y60120D01*
X101343Y59559D01*
X100628Y59058D01*
X99872Y58621D01*
X99080Y58252D01*
X98260Y57954D01*
X97416Y57728D01*
X96557Y57576D01*
X95687Y57500D01*
X94813Y57500D01*
X93944Y57576D01*
X93084Y57728D01*
X92240Y57954D01*
X91420Y58252D01*
X90628Y58621D01*
X89872Y59058D01*
X89157Y59559D01*
X88488Y60120D01*
X87870Y60738D01*
X87309Y61407D01*
X86808Y62122D01*
X86371Y62878D01*
X86002Y63670D01*
X85704Y64490D01*
X85478Y65334D01*
X85326Y66194D01*
X85250Y67063D01*
X85250Y67937D01*
X85326Y68807D01*
X85478Y69666D01*
X85704Y70510D01*
X86002Y71330D01*
X86371Y72122D01*
X86808Y72878D01*
X87309Y73593D01*
X87870Y74262D01*
X88488Y74880D01*
X89157Y75441D01*
X89872Y75942D01*
X90628Y76379D01*
X91420Y76748D01*
X92240Y77046D01*
X93084Y77272D01*
X93944Y77424D01*
X94813Y77500D01*
X95687Y77500D01*
X96557Y77424D01*
X97416Y77272D01*
X98260Y77046D01*
X99080Y76748D01*
X99872Y76379D01*
X100628Y75942D01*
X101343Y75441D01*
X102012Y74880D01*
X102630Y74262D01*
X103191Y73593D01*
X103692Y72878D01*
X104129Y72122D01*
X104498Y71330D01*
X104796Y70510D01*
X105022Y69666D01*
X105174Y68807D01*
X105250Y67937D01*
X105250Y67063D01*
X10000Y67063D02*
X9924Y66194D01*
X9772Y65334D01*
X9546Y64490D01*
X9248Y63670D01*
X8879Y62878D01*
X8442Y62122D01*
X7941Y61407D01*
X7380Y60738D01*
X6762Y60120D01*
X6093Y59559D01*
X5378Y59058D01*
X4622Y58621D01*
X3830Y58252D01*
X3010Y57954D01*
X2166Y57728D01*
X1307Y57576D01*
X437Y57500D01*
X-437Y57500D01*
X-1307Y57576D01*
X-2166Y57728D01*
X-3010Y57954D01*
X-3830Y58252D01*
X-4622Y58621D01*
X-5378Y59058D01*
X-6093Y59559D01*
X-6762Y60120D01*
X-7380Y60738D01*
X-7941Y61407D01*
X-8442Y62122D01*
X-8879Y62878D01*
X-9248Y63670D01*
X-9546Y64490D01*
X-9772Y65334D01*
X-9924Y66194D01*
X-10000Y67063D01*
X-10000Y67937D01*
X-9924Y68807D01*
X-9772Y69666D01*
X-9546Y70510D01*
X-9248Y71330D01*
X-8879Y72122D01*
X-8442Y72878D01*
X-7941Y73593D01*
X-7380Y74262D01*
X-6762Y74880D01*
X-6093Y75441D01*
X-5378Y75942D01*
X-4622Y76379D01*
X-3830Y76748D01*
X-3010Y77046D01*
X-2166Y77272D01*
X-1307Y77424D01*
X-437Y77500D01*
X437Y77500D01*
X1307Y77424D01*
X2166Y77272D01*
X3010Y77046D01*
X3830Y76748D01*
X4622Y76379D01*
X5378Y75942D01*
X6093Y75441D01*
X6762Y74880D01*
X7380Y74262D01*
X7941Y73593D01*
X8442Y72878D01*
X8879Y72122D01*
X9248Y71330D01*
X9546Y70510D01*
X9772Y69666D01*
X9924Y68807D01*
X10000Y67937D01*
X10000Y67063D01*
X105250Y67063D02*
X105174Y66194D01*
X105022Y65334D01*
X104796Y64490D01*
X104498Y63670D01*
X104129Y62878D01*
X103692Y62122D01*
X103191Y61407D01*
X102630Y60738D01*
X102012Y60120D01*
X101343Y59559D01*
X100628Y59058D01*
X99872Y58621D01*
X99080Y58252D01*
X98260Y57954D01*
X97416Y57728D01*
X96557Y57576D01*
X95687Y57500D01*
X94813Y57500D01*
X93944Y57576D01*
X93084Y57728D01*
X92240Y57954D01*
X91420Y58252D01*
X90628Y58621D01*
X89872Y59058D01*
X89157Y59559D01*
X88488Y60120D01*
X87870Y60738D01*
X87309Y61407D01*
X86808Y62122D01*
X86371Y62878D01*
X86002Y63670D01*
X85704Y64490D01*
X85478Y65334D01*
X85326Y66194D01*
X85250Y67063D01*
X85250Y67937D01*
X85326Y68807D01*
X85478Y69666D01*
X85704Y70510D01*
X86002Y71330D01*
X86371Y72122D01*
X86808Y72878D01*
X87309Y73593D01*
X87870Y74262D01*
X88488Y74880D01*
X89157Y75441D01*
X89872Y75942D01*
X90628Y76379D01*
X91420Y76748D01*
X92240Y77046D01*
X93084Y77272D01*
X93944Y77424D01*
X94813Y77500D01*
X95687Y77500D01*
X96557Y77424D01*
X97416Y77272D01*
X98260Y77046D01*
X99080Y76748D01*
X99872Y76379D01*
X100628Y75942D01*
X101343Y75441D01*
X102012Y74880D01*
X102630Y74262D01*
X103191Y73593D01*
X103692Y72878D01*
X104129Y72122D01*
X104498Y71330D01*
X104796Y70510D01*
X105022Y69666D01*
X105174Y68807D01*
X105250Y67937D01*
X105250Y67063D01*
M02*
