G04 EAGLE Gerber X2 export*
%TF.Part,Single*%
%TF.FileFunction,Legend,Top,1*%
%TF.FilePolarity,Positive*%
%TF.GenerationSoftware,Autodesk,EAGLE,9.0.1*%
%TF.CreationDate,2018-09-05T19:34:14Z*%
G75*
%MOMM*%
%FSLAX34Y34*%
%LPD*%
%AMOC8*
5,1,8,0,0,1.08239X$1,22.5*%
G01*
%ADD10C,0.050800*%
%ADD11C,0.812800*%
%ADD12C,0.304800*%
%ADD13C,0.152400*%
%ADD14R,0.599900X0.300000*%
%ADD15R,0.500000X0.650000*%
%ADD16C,0.203200*%
%ADD17R,0.525000X0.300000*%
%ADD18R,0.508000X0.889000*%
%ADD19C,0.101600*%
%ADD20R,0.950000X0.500100*%
%ADD21R,0.650000X0.500000*%
%ADD22R,0.863600X0.406400*%


D10*
X89916Y82169D02*
X84323Y82169D01*
X84323Y84965D01*
X85255Y85898D01*
X86188Y85898D01*
X87120Y84965D01*
X88052Y85898D01*
X88984Y85898D01*
X89916Y84965D01*
X89916Y82169D01*
X87120Y82169D02*
X87120Y84965D01*
X88984Y87782D02*
X89916Y87782D01*
X88984Y87782D02*
X88984Y88714D01*
X89916Y88714D01*
X89916Y87782D01*
X84323Y98998D02*
X85255Y99930D01*
X84323Y98998D02*
X84323Y97134D01*
X85255Y96202D01*
X86188Y96202D01*
X87120Y97134D01*
X87120Y98998D01*
X88052Y99930D01*
X88984Y99930D01*
X89916Y98998D01*
X89916Y97134D01*
X88984Y96202D01*
X86188Y102747D02*
X86188Y105543D01*
X86188Y102747D02*
X87120Y101815D01*
X88984Y101815D01*
X89916Y102747D01*
X89916Y105543D01*
X89916Y107428D02*
X84323Y107428D01*
X86188Y108360D02*
X87120Y107428D01*
X86188Y108360D02*
X86188Y110224D01*
X87120Y111156D01*
X89916Y111156D01*
X88984Y113041D02*
X86188Y113041D01*
X88984Y113041D02*
X89916Y113973D01*
X89916Y116770D01*
X86188Y116770D01*
X84323Y118654D02*
X84323Y119586D01*
X89916Y119586D01*
X89916Y118654D02*
X89916Y120518D01*
X86188Y122396D02*
X86188Y126125D01*
X89916Y122396D01*
X89916Y126125D01*
X9652Y81493D02*
X4059Y81493D01*
X4059Y79629D02*
X4059Y83358D01*
X4059Y85242D02*
X9652Y85242D01*
X4059Y85242D02*
X4059Y88038D01*
X4991Y88971D01*
X6856Y88971D01*
X7788Y88038D01*
X7788Y85242D01*
X6856Y90855D02*
X6856Y94584D01*
X9652Y96468D02*
X4059Y96468D01*
X9652Y96468D02*
X9652Y99265D01*
X8720Y100197D01*
X4991Y100197D01*
X4059Y99265D01*
X4059Y96468D01*
X9652Y103014D02*
X9652Y104878D01*
X8720Y105810D01*
X6856Y105810D01*
X5924Y104878D01*
X5924Y103014D01*
X6856Y102081D01*
X8720Y102081D01*
X9652Y103014D01*
X8720Y107694D02*
X5924Y107694D01*
X8720Y107694D02*
X9652Y108627D01*
X8720Y109559D01*
X9652Y110491D01*
X8720Y111423D01*
X5924Y111423D01*
X5924Y113308D02*
X9652Y113308D01*
X5924Y113308D02*
X5924Y116104D01*
X6856Y117036D01*
X9652Y117036D01*
X9652Y118921D02*
X4059Y118921D01*
X6856Y118921D02*
X6856Y122649D01*
X9652Y122649D02*
X4059Y122649D01*
X9652Y125466D02*
X9652Y127330D01*
X8720Y128262D01*
X6856Y128262D01*
X5924Y127330D01*
X5924Y125466D01*
X6856Y124534D01*
X8720Y124534D01*
X9652Y125466D01*
X4059Y130147D02*
X4059Y131079D01*
X9652Y131079D01*
X9652Y130147D02*
X9652Y132011D01*
X9652Y134821D02*
X9652Y136685D01*
X9652Y134821D02*
X8720Y133889D01*
X6856Y133889D01*
X5924Y134821D01*
X5924Y136685D01*
X6856Y137617D01*
X7788Y137617D01*
X7788Y133889D01*
D11*
X36830Y257175D02*
X36832Y257246D01*
X36838Y257317D01*
X36848Y257388D01*
X36862Y257458D01*
X36880Y257527D01*
X36901Y257594D01*
X36927Y257661D01*
X36956Y257726D01*
X36988Y257789D01*
X37025Y257851D01*
X37064Y257910D01*
X37107Y257967D01*
X37153Y258021D01*
X37202Y258073D01*
X37254Y258122D01*
X37308Y258168D01*
X37365Y258211D01*
X37424Y258250D01*
X37486Y258287D01*
X37549Y258319D01*
X37614Y258348D01*
X37681Y258374D01*
X37748Y258395D01*
X37817Y258413D01*
X37887Y258427D01*
X37958Y258437D01*
X38029Y258443D01*
X38100Y258445D01*
X38171Y258443D01*
X38242Y258437D01*
X38313Y258427D01*
X38383Y258413D01*
X38452Y258395D01*
X38519Y258374D01*
X38586Y258348D01*
X38651Y258319D01*
X38714Y258287D01*
X38776Y258250D01*
X38835Y258211D01*
X38892Y258168D01*
X38946Y258122D01*
X38998Y258073D01*
X39047Y258021D01*
X39093Y257967D01*
X39136Y257910D01*
X39175Y257851D01*
X39212Y257789D01*
X39244Y257726D01*
X39273Y257661D01*
X39299Y257594D01*
X39320Y257527D01*
X39338Y257458D01*
X39352Y257388D01*
X39362Y257317D01*
X39368Y257246D01*
X39370Y257175D01*
X39368Y257104D01*
X39362Y257033D01*
X39352Y256962D01*
X39338Y256892D01*
X39320Y256823D01*
X39299Y256756D01*
X39273Y256689D01*
X39244Y256624D01*
X39212Y256561D01*
X39175Y256499D01*
X39136Y256440D01*
X39093Y256383D01*
X39047Y256329D01*
X38998Y256277D01*
X38946Y256228D01*
X38892Y256182D01*
X38835Y256139D01*
X38776Y256100D01*
X38714Y256063D01*
X38651Y256031D01*
X38586Y256002D01*
X38519Y255976D01*
X38452Y255955D01*
X38383Y255937D01*
X38313Y255923D01*
X38242Y255913D01*
X38171Y255907D01*
X38100Y255905D01*
X38029Y255907D01*
X37958Y255913D01*
X37887Y255923D01*
X37817Y255937D01*
X37748Y255955D01*
X37681Y255976D01*
X37614Y256002D01*
X37549Y256031D01*
X37486Y256063D01*
X37424Y256100D01*
X37365Y256139D01*
X37308Y256182D01*
X37254Y256228D01*
X37202Y256277D01*
X37153Y256329D01*
X37107Y256383D01*
X37064Y256440D01*
X37025Y256499D01*
X36988Y256561D01*
X36956Y256624D01*
X36927Y256689D01*
X36901Y256756D01*
X36880Y256823D01*
X36862Y256892D01*
X36848Y256962D01*
X36838Y257033D01*
X36832Y257104D01*
X36830Y257175D01*
D12*
X14990Y269125D02*
X78990Y269125D01*
X78990Y207125D02*
X14990Y207125D01*
X14990Y212125D01*
X78990Y212125D02*
X78990Y207125D01*
X78990Y264125D02*
X78990Y269125D01*
X14990Y269125D02*
X14990Y264125D01*
D13*
X67610Y281395D02*
X67610Y286295D01*
X72090Y286295D02*
X72090Y281395D01*
D14*
X69899Y279805D03*
X69899Y287933D03*
D13*
X79675Y286295D02*
X79675Y281395D01*
X84155Y281395D02*
X84155Y286295D01*
D14*
X81964Y279805D03*
X81964Y287933D03*
D13*
X90420Y311940D02*
X90420Y328140D01*
X90420Y311940D02*
X61980Y311940D01*
X61980Y328140D01*
X90420Y328140D01*
X71920Y311940D02*
X70980Y311940D01*
X80480Y311940D02*
X81420Y311940D01*
X62920Y311940D02*
X61980Y311940D01*
X89480Y311940D02*
X90420Y311940D01*
X90420Y328140D02*
X89480Y328140D01*
X62920Y328140D02*
X61980Y328140D01*
X80480Y328140D02*
X81420Y328140D01*
X71920Y328140D02*
X70980Y328140D01*
X65200Y315540D02*
X65202Y315603D01*
X65208Y315665D01*
X65218Y315727D01*
X65231Y315789D01*
X65249Y315849D01*
X65270Y315908D01*
X65295Y315966D01*
X65324Y316022D01*
X65356Y316076D01*
X65391Y316128D01*
X65429Y316177D01*
X65471Y316225D01*
X65515Y316269D01*
X65563Y316311D01*
X65612Y316349D01*
X65664Y316384D01*
X65718Y316416D01*
X65774Y316445D01*
X65832Y316470D01*
X65891Y316491D01*
X65951Y316509D01*
X66013Y316522D01*
X66075Y316532D01*
X66137Y316538D01*
X66200Y316540D01*
X66263Y316538D01*
X66325Y316532D01*
X66387Y316522D01*
X66449Y316509D01*
X66509Y316491D01*
X66568Y316470D01*
X66626Y316445D01*
X66682Y316416D01*
X66736Y316384D01*
X66788Y316349D01*
X66837Y316311D01*
X66885Y316269D01*
X66929Y316225D01*
X66971Y316177D01*
X67009Y316128D01*
X67044Y316076D01*
X67076Y316022D01*
X67105Y315966D01*
X67130Y315908D01*
X67151Y315849D01*
X67169Y315789D01*
X67182Y315727D01*
X67192Y315665D01*
X67198Y315603D01*
X67200Y315540D01*
X67198Y315477D01*
X67192Y315415D01*
X67182Y315353D01*
X67169Y315291D01*
X67151Y315231D01*
X67130Y315172D01*
X67105Y315114D01*
X67076Y315058D01*
X67044Y315004D01*
X67009Y314952D01*
X66971Y314903D01*
X66929Y314855D01*
X66885Y314811D01*
X66837Y314769D01*
X66788Y314731D01*
X66736Y314696D01*
X66682Y314664D01*
X66626Y314635D01*
X66568Y314610D01*
X66509Y314589D01*
X66449Y314571D01*
X66387Y314558D01*
X66325Y314548D01*
X66263Y314542D01*
X66200Y314540D01*
X66137Y314542D01*
X66075Y314548D01*
X66013Y314558D01*
X65951Y314571D01*
X65891Y314589D01*
X65832Y314610D01*
X65774Y314635D01*
X65718Y314664D01*
X65664Y314696D01*
X65612Y314731D01*
X65563Y314769D01*
X65515Y314811D01*
X65471Y314855D01*
X65429Y314903D01*
X65391Y314952D01*
X65356Y315004D01*
X65324Y315058D01*
X65295Y315114D01*
X65270Y315172D01*
X65249Y315231D01*
X65231Y315291D01*
X65218Y315353D01*
X65208Y315415D01*
X65202Y315477D01*
X65200Y315540D01*
D15*
X66700Y308290D03*
X76200Y308290D03*
X85700Y308290D03*
X85700Y331790D03*
X76200Y331790D03*
X66700Y331790D03*
D16*
X27020Y200250D02*
X27020Y180750D01*
X27020Y200250D02*
X39020Y200250D01*
X39020Y180750D01*
X27020Y180750D01*
D17*
X42395Y184000D03*
X42395Y197000D03*
X23645Y197000D03*
X23645Y190500D03*
X23645Y184000D03*
D18*
X30480Y196215D03*
D13*
X51100Y192950D02*
X51100Y188050D01*
X55580Y188050D02*
X55580Y192950D01*
D14*
X53389Y186460D03*
X53389Y194588D03*
D19*
X14480Y194060D02*
X14480Y186940D01*
X5970Y186940D02*
X5970Y194060D01*
D20*
X10211Y196382D03*
X10211Y184698D03*
D13*
X27460Y272800D02*
X43660Y272800D01*
X27460Y272800D02*
X27460Y301240D01*
X43660Y301240D01*
X43660Y272800D01*
X27460Y291300D02*
X27460Y292240D01*
X27460Y282740D02*
X27460Y281800D01*
X27460Y300300D02*
X27460Y301240D01*
X27460Y273740D02*
X27460Y272800D01*
X43660Y272800D02*
X43660Y273740D01*
X43660Y300300D02*
X43660Y301240D01*
X43660Y282740D02*
X43660Y281800D01*
X43660Y291300D02*
X43660Y292240D01*
X30060Y297020D02*
X30062Y297083D01*
X30068Y297145D01*
X30078Y297207D01*
X30091Y297269D01*
X30109Y297329D01*
X30130Y297388D01*
X30155Y297446D01*
X30184Y297502D01*
X30216Y297556D01*
X30251Y297608D01*
X30289Y297657D01*
X30331Y297705D01*
X30375Y297749D01*
X30423Y297791D01*
X30472Y297829D01*
X30524Y297864D01*
X30578Y297896D01*
X30634Y297925D01*
X30692Y297950D01*
X30751Y297971D01*
X30811Y297989D01*
X30873Y298002D01*
X30935Y298012D01*
X30997Y298018D01*
X31060Y298020D01*
X31123Y298018D01*
X31185Y298012D01*
X31247Y298002D01*
X31309Y297989D01*
X31369Y297971D01*
X31428Y297950D01*
X31486Y297925D01*
X31542Y297896D01*
X31596Y297864D01*
X31648Y297829D01*
X31697Y297791D01*
X31745Y297749D01*
X31789Y297705D01*
X31831Y297657D01*
X31869Y297608D01*
X31904Y297556D01*
X31936Y297502D01*
X31965Y297446D01*
X31990Y297388D01*
X32011Y297329D01*
X32029Y297269D01*
X32042Y297207D01*
X32052Y297145D01*
X32058Y297083D01*
X32060Y297020D01*
X32058Y296957D01*
X32052Y296895D01*
X32042Y296833D01*
X32029Y296771D01*
X32011Y296711D01*
X31990Y296652D01*
X31965Y296594D01*
X31936Y296538D01*
X31904Y296484D01*
X31869Y296432D01*
X31831Y296383D01*
X31789Y296335D01*
X31745Y296291D01*
X31697Y296249D01*
X31648Y296211D01*
X31596Y296176D01*
X31542Y296144D01*
X31486Y296115D01*
X31428Y296090D01*
X31369Y296069D01*
X31309Y296051D01*
X31247Y296038D01*
X31185Y296028D01*
X31123Y296022D01*
X31060Y296020D01*
X30997Y296022D01*
X30935Y296028D01*
X30873Y296038D01*
X30811Y296051D01*
X30751Y296069D01*
X30692Y296090D01*
X30634Y296115D01*
X30578Y296144D01*
X30524Y296176D01*
X30472Y296211D01*
X30423Y296249D01*
X30375Y296291D01*
X30331Y296335D01*
X30289Y296383D01*
X30251Y296432D01*
X30216Y296484D01*
X30184Y296538D01*
X30155Y296594D01*
X30130Y296652D01*
X30109Y296711D01*
X30091Y296771D01*
X30078Y296833D01*
X30068Y296895D01*
X30062Y296957D01*
X30060Y297020D01*
D21*
X23810Y296520D03*
X23810Y287020D03*
X23810Y277520D03*
X47310Y277520D03*
X47310Y287020D03*
X47310Y296520D03*
D13*
X51100Y316320D02*
X51100Y321220D01*
X55580Y321220D02*
X55580Y316320D01*
D14*
X53389Y314730D03*
X53389Y322858D03*
D13*
X11130Y293280D02*
X11130Y288380D01*
X6650Y288380D02*
X6650Y293280D01*
D14*
X8842Y294870D03*
X8842Y286742D03*
D13*
X59436Y197104D02*
X59436Y183896D01*
X59436Y197104D02*
X87884Y197104D01*
X87884Y183896D01*
X59436Y183896D01*
D16*
X81660Y183500D02*
X87660Y183500D01*
X87660Y191500D01*
X65660Y183500D02*
X59660Y183500D01*
X59660Y191500D01*
D13*
X16260Y320165D02*
X16260Y328805D01*
X9140Y328805D02*
X9140Y320165D01*
D22*
X12700Y330835D03*
X12700Y318135D03*
D13*
X39120Y320165D02*
X39120Y328805D01*
X32000Y328805D02*
X32000Y320165D01*
D22*
X35560Y330835D03*
X35560Y318135D03*
M02*
