G04 EAGLE Gerber X2 export*
%TF.Part,Single*%
%TF.FileFunction,Legend,Bot,1*%
%TF.FilePolarity,Positive*%
%TF.GenerationSoftware,Autodesk,EAGLE,9.0.1*%
%TF.CreationDate,2018-09-05T19:34:14Z*%
G75*
%MOMM*%
%FSLAX34Y34*%
%LPD*%
%AMOC8*
5,1,8,0,0,1.08239X$1,22.5*%
G01*
%ADD10C,0.050800*%
%ADD11C,0.127000*%
%ADD12C,0.152400*%
%ADD13R,0.599900X0.300000*%
%ADD14R,0.300000X0.599900*%
%ADD15C,0.203200*%
%ADD16R,0.508000X1.028700*%
%ADD17R,0.508000X1.016000*%

G36*
X3565Y230255D02*
X3565Y230255D01*
X3567Y230257D01*
X3568Y230256D01*
X4239Y230491D01*
X4240Y230492D01*
X4241Y230492D01*
X4843Y230870D01*
X4844Y230872D01*
X4846Y230872D01*
X5348Y231374D01*
X5348Y231376D01*
X5350Y231377D01*
X5728Y231979D01*
X5728Y231980D01*
X5729Y231981D01*
X5964Y232652D01*
X5964Y232654D01*
X5965Y232655D01*
X5999Y232955D01*
X5999Y232956D01*
X6000Y232967D01*
X6036Y233290D01*
X6038Y233302D01*
X6044Y233361D01*
X6044Y233362D01*
X6043Y233363D01*
X6044Y233364D01*
X5965Y234070D01*
X5963Y234072D01*
X5964Y234073D01*
X5729Y234744D01*
X5728Y234745D01*
X5728Y234746D01*
X5350Y235348D01*
X5348Y235349D01*
X5348Y235351D01*
X4846Y235853D01*
X4844Y235853D01*
X4843Y235855D01*
X4241Y236233D01*
X4240Y236233D01*
X4239Y236234D01*
X3568Y236469D01*
X3566Y236469D01*
X3565Y236470D01*
X2859Y236549D01*
X2857Y236548D01*
X2856Y236549D01*
X2150Y236470D01*
X2148Y236468D01*
X2147Y236469D01*
X1476Y236234D01*
X1475Y236233D01*
X1474Y236233D01*
X872Y235855D01*
X871Y235853D01*
X869Y235853D01*
X367Y235351D01*
X367Y235349D01*
X365Y235348D01*
X-13Y234746D01*
X-13Y234745D01*
X-14Y234744D01*
X-249Y234073D01*
X-249Y234071D01*
X-250Y234070D01*
X-263Y233949D01*
X-265Y233937D01*
X-301Y233615D01*
X-302Y233603D01*
X-329Y233364D01*
X-328Y233362D01*
X-329Y233361D01*
X-250Y232655D01*
X-248Y232653D01*
X-249Y232652D01*
X-14Y231981D01*
X-13Y231980D01*
X-13Y231979D01*
X365Y231377D01*
X367Y231376D01*
X367Y231374D01*
X869Y230872D01*
X871Y230872D01*
X872Y230870D01*
X1474Y230492D01*
X1475Y230492D01*
X1476Y230491D01*
X2147Y230256D01*
X2149Y230257D01*
X2150Y230255D01*
X2856Y230176D01*
X2858Y230177D01*
X2859Y230176D01*
X3565Y230255D01*
G37*
D10*
X88984Y122301D02*
X89916Y121369D01*
X89916Y119505D01*
X88984Y118573D01*
X85255Y118573D01*
X84323Y119505D01*
X84323Y121369D01*
X85255Y122301D01*
X86188Y122301D01*
X87120Y121369D01*
X87120Y118573D01*
X87120Y116688D02*
X87120Y112959D01*
X84323Y111075D02*
X84323Y107346D01*
X84323Y111075D02*
X87120Y111075D01*
X86188Y109211D01*
X86188Y108278D01*
X87120Y107346D01*
X88984Y107346D01*
X89916Y108278D01*
X89916Y110143D01*
X88984Y111075D01*
X87120Y105462D02*
X87120Y101733D01*
X89916Y99849D02*
X89916Y96120D01*
X86188Y96120D02*
X89916Y99849D01*
X86188Y96120D02*
X85255Y96120D01*
X84323Y97052D01*
X84323Y98917D01*
X85255Y99849D01*
X85255Y94236D02*
X88984Y94236D01*
X85255Y94236D02*
X84323Y93303D01*
X84323Y91439D01*
X85255Y90507D01*
X88984Y90507D01*
X89916Y91439D01*
X89916Y93303D01*
X88984Y94236D01*
X85255Y90507D01*
X86188Y88622D02*
X84323Y86758D01*
X89916Y86758D01*
X89916Y88622D02*
X89916Y84894D01*
X85255Y83009D02*
X84323Y82077D01*
X84323Y80213D01*
X85255Y79281D01*
X86188Y79281D01*
X87120Y80213D01*
X88052Y79281D01*
X88984Y79281D01*
X89916Y80213D01*
X89916Y82077D01*
X88984Y83009D01*
X88052Y83009D01*
X87120Y82077D01*
X86188Y83009D01*
X85255Y83009D01*
X87120Y82077D02*
X87120Y80213D01*
D11*
X86784Y172289D02*
X85979Y173094D01*
X85979Y173899D01*
X86784Y174704D01*
X90809Y174704D01*
X90809Y173899D02*
X90809Y175509D01*
X90004Y177902D02*
X86784Y177902D01*
X90004Y177902D02*
X90809Y178707D01*
X90809Y180317D01*
X90004Y181122D01*
X86784Y181122D01*
X85979Y180317D01*
X85979Y178707D01*
X86784Y177902D01*
X90004Y181122D01*
D12*
X75865Y216625D02*
X75865Y221525D01*
X80345Y221525D02*
X80345Y216625D01*
D13*
X78154Y223115D03*
X78154Y214987D03*
D11*
X58120Y330200D02*
X58122Y330306D01*
X58128Y330412D01*
X58138Y330518D01*
X58152Y330623D01*
X58170Y330728D01*
X58191Y330832D01*
X58217Y330935D01*
X58246Y331037D01*
X58279Y331138D01*
X58316Y331238D01*
X58357Y331336D01*
X58401Y331432D01*
X58449Y331527D01*
X58500Y331620D01*
X58555Y331711D01*
X58613Y331800D01*
X58675Y331886D01*
X58740Y331971D01*
X58807Y332052D01*
X58878Y332132D01*
X58952Y332208D01*
X59028Y332282D01*
X59108Y332353D01*
X59189Y332420D01*
X59274Y332485D01*
X59360Y332547D01*
X59449Y332605D01*
X59540Y332660D01*
X59633Y332711D01*
X59728Y332759D01*
X59824Y332803D01*
X59922Y332844D01*
X60022Y332881D01*
X60123Y332914D01*
X60225Y332943D01*
X60328Y332969D01*
X60432Y332990D01*
X60537Y333008D01*
X60642Y333022D01*
X60748Y333032D01*
X60854Y333038D01*
X60960Y333040D01*
X61066Y333038D01*
X61172Y333032D01*
X61278Y333022D01*
X61383Y333008D01*
X61488Y332990D01*
X61592Y332969D01*
X61695Y332943D01*
X61797Y332914D01*
X61898Y332881D01*
X61998Y332844D01*
X62096Y332803D01*
X62192Y332759D01*
X62287Y332711D01*
X62380Y332660D01*
X62471Y332605D01*
X62560Y332547D01*
X62646Y332485D01*
X62731Y332420D01*
X62812Y332353D01*
X62892Y332282D01*
X62968Y332208D01*
X63042Y332132D01*
X63113Y332052D01*
X63180Y331971D01*
X63245Y331886D01*
X63307Y331800D01*
X63365Y331711D01*
X63420Y331620D01*
X63471Y331527D01*
X63519Y331432D01*
X63563Y331336D01*
X63604Y331238D01*
X63641Y331138D01*
X63674Y331037D01*
X63703Y330935D01*
X63729Y330832D01*
X63750Y330728D01*
X63768Y330623D01*
X63782Y330518D01*
X63792Y330412D01*
X63798Y330306D01*
X63800Y330200D01*
X63798Y330094D01*
X63792Y329988D01*
X63782Y329882D01*
X63768Y329777D01*
X63750Y329672D01*
X63729Y329568D01*
X63703Y329465D01*
X63674Y329363D01*
X63641Y329262D01*
X63604Y329162D01*
X63563Y329064D01*
X63519Y328968D01*
X63471Y328873D01*
X63420Y328780D01*
X63365Y328689D01*
X63307Y328600D01*
X63245Y328514D01*
X63180Y328429D01*
X63113Y328348D01*
X63042Y328268D01*
X62968Y328192D01*
X62892Y328118D01*
X62812Y328047D01*
X62731Y327980D01*
X62646Y327915D01*
X62560Y327853D01*
X62471Y327795D01*
X62380Y327740D01*
X62287Y327689D01*
X62192Y327641D01*
X62096Y327597D01*
X61998Y327556D01*
X61898Y327519D01*
X61797Y327486D01*
X61695Y327457D01*
X61592Y327431D01*
X61488Y327410D01*
X61383Y327392D01*
X61278Y327378D01*
X61172Y327368D01*
X61066Y327362D01*
X60960Y327360D01*
X60854Y327362D01*
X60748Y327368D01*
X60642Y327378D01*
X60537Y327392D01*
X60432Y327410D01*
X60328Y327431D01*
X60225Y327457D01*
X60123Y327486D01*
X60022Y327519D01*
X59922Y327556D01*
X59824Y327597D01*
X59728Y327641D01*
X59633Y327689D01*
X59540Y327740D01*
X59449Y327795D01*
X59360Y327853D01*
X59274Y327915D01*
X59189Y327980D01*
X59108Y328047D01*
X59028Y328118D01*
X58952Y328192D01*
X58878Y328268D01*
X58807Y328348D01*
X58740Y328429D01*
X58675Y328514D01*
X58613Y328600D01*
X58555Y328689D01*
X58500Y328780D01*
X58449Y328873D01*
X58401Y328968D01*
X58357Y329064D01*
X58316Y329162D01*
X58279Y329262D01*
X58246Y329363D01*
X58217Y329465D01*
X58191Y329568D01*
X58170Y329672D01*
X58152Y329777D01*
X58138Y329882D01*
X58128Y329988D01*
X58122Y330094D01*
X58120Y330200D01*
X66990Y335850D02*
X26990Y335850D01*
X66990Y335850D02*
X66990Y248350D01*
X26990Y248350D01*
X26990Y335850D01*
D12*
X72480Y243540D02*
X77380Y243540D01*
X77380Y239060D02*
X72480Y239060D01*
D14*
X78970Y241252D03*
X70842Y241252D03*
D15*
X56388Y190087D02*
X9652Y190087D01*
X60198Y225203D02*
X60214Y225316D01*
X60225Y225430D01*
X60232Y225544D01*
X60236Y225658D01*
X60235Y225773D01*
X60231Y225887D01*
X60223Y226001D01*
X60211Y226115D01*
X60195Y226228D01*
X60175Y226340D01*
X60151Y226452D01*
X60124Y226563D01*
X60092Y226673D01*
X60057Y226782D01*
X60019Y226890D01*
X59976Y226996D01*
X59930Y227100D01*
X59881Y227204D01*
X59828Y227305D01*
X59772Y227404D01*
X59712Y227502D01*
X59649Y227597D01*
X59582Y227690D01*
X59513Y227781D01*
X59441Y227869D01*
X59365Y227955D01*
X59287Y228039D01*
X59206Y228119D01*
X59122Y228197D01*
X59035Y228272D01*
X58946Y228343D01*
X58855Y228412D01*
X58761Y228478D01*
X58666Y228540D01*
X58568Y228599D01*
X58468Y228655D01*
X58366Y228707D01*
X58263Y228756D01*
X58158Y228801D01*
X58051Y228842D01*
X57943Y228880D01*
X57834Y228915D01*
X57724Y228945D01*
X57613Y228972D01*
X57501Y228994D01*
X57388Y229013D01*
X9652Y190087D02*
X9522Y190104D01*
X9393Y190125D01*
X9264Y190150D01*
X9136Y190178D01*
X9009Y190211D01*
X8883Y190247D01*
X8758Y190288D01*
X8635Y190332D01*
X8513Y190379D01*
X8392Y190431D01*
X8273Y190485D01*
X8156Y190544D01*
X8041Y190606D01*
X7927Y190671D01*
X7815Y190740D01*
X7706Y190813D01*
X7599Y190888D01*
X7494Y190967D01*
X7392Y191049D01*
X7292Y191134D01*
X7195Y191221D01*
X7100Y191312D01*
X7008Y191406D01*
X6919Y191502D01*
X6833Y191601D01*
X6751Y191702D01*
X6671Y191806D01*
X6594Y191913D01*
X6521Y192021D01*
X6451Y192132D01*
X6384Y192245D01*
X6321Y192360D01*
X6261Y192476D01*
X6205Y192595D01*
X6152Y192715D01*
X6103Y192836D01*
X6058Y192959D01*
X6016Y193084D01*
X5978Y193209D01*
X5945Y193336D01*
X5914Y193463D01*
X5888Y193592D01*
X5866Y193721D01*
X5847Y193851D01*
X5833Y193981D01*
X5822Y194112D01*
X5816Y194243D01*
X5813Y194374D01*
X5814Y194505D01*
X5820Y194636D01*
X5829Y194766D01*
X5842Y194897D01*
X56388Y190087D02*
X56510Y190089D01*
X56632Y190095D01*
X56754Y190105D01*
X56875Y190118D01*
X56996Y190136D01*
X57116Y190157D01*
X57236Y190182D01*
X57355Y190211D01*
X57472Y190244D01*
X57589Y190281D01*
X57704Y190321D01*
X57818Y190365D01*
X57930Y190413D01*
X58041Y190464D01*
X58150Y190519D01*
X58258Y190577D01*
X58363Y190639D01*
X58467Y190704D01*
X58568Y190772D01*
X58667Y190843D01*
X58764Y190918D01*
X58858Y190996D01*
X58950Y191076D01*
X59039Y191160D01*
X59125Y191246D01*
X59209Y191335D01*
X59289Y191427D01*
X59367Y191521D01*
X59442Y191618D01*
X59513Y191717D01*
X59581Y191818D01*
X59646Y191922D01*
X59708Y192027D01*
X59766Y192135D01*
X59821Y192244D01*
X59872Y192355D01*
X59920Y192467D01*
X59964Y192581D01*
X60004Y192696D01*
X60041Y192813D01*
X60074Y192930D01*
X60103Y193049D01*
X60128Y193169D01*
X60149Y193289D01*
X60167Y193410D01*
X60180Y193531D01*
X60190Y193653D01*
X60196Y193775D01*
X60198Y193897D01*
X9653Y229013D02*
X9539Y229028D01*
X9425Y229040D01*
X9311Y229047D01*
X9197Y229051D01*
X9083Y229050D01*
X8968Y229046D01*
X8854Y229038D01*
X8741Y229026D01*
X8628Y229010D01*
X8515Y228990D01*
X8403Y228966D01*
X8292Y228939D01*
X8182Y228908D01*
X8073Y228873D01*
X7966Y228834D01*
X7859Y228792D01*
X7755Y228746D01*
X7652Y228696D01*
X7550Y228643D01*
X7451Y228587D01*
X7353Y228527D01*
X7258Y228464D01*
X7165Y228398D01*
X7074Y228328D01*
X6986Y228256D01*
X6900Y228180D01*
X6817Y228102D01*
X6736Y228021D01*
X6658Y227937D01*
X6584Y227851D01*
X6512Y227762D01*
X6443Y227670D01*
X6377Y227577D01*
X6315Y227481D01*
X6256Y227383D01*
X6200Y227283D01*
X6148Y227181D01*
X6100Y227078D01*
X6054Y226973D01*
X6013Y226866D01*
X5975Y226758D01*
X5941Y226649D01*
X5911Y226539D01*
X5884Y226428D01*
X5861Y226316D01*
X5842Y226203D01*
X9652Y229013D02*
X57388Y229013D01*
X60198Y225203D02*
X60198Y193897D01*
X6350Y203454D02*
X6508Y203456D01*
X6667Y203462D01*
X6825Y203472D01*
X6982Y203486D01*
X7140Y203503D01*
X7296Y203525D01*
X7453Y203550D01*
X7608Y203580D01*
X7763Y203613D01*
X7917Y203650D01*
X8070Y203691D01*
X8222Y203736D01*
X8372Y203785D01*
X8522Y203837D01*
X8670Y203893D01*
X8817Y203953D01*
X8962Y204016D01*
X9105Y204083D01*
X9247Y204153D01*
X9387Y204227D01*
X9525Y204305D01*
X9661Y204386D01*
X9795Y204470D01*
X9927Y204557D01*
X10057Y204648D01*
X10184Y204742D01*
X10309Y204839D01*
X10432Y204940D01*
X10552Y205043D01*
X10669Y205149D01*
X10784Y205258D01*
X10896Y205370D01*
X11005Y205485D01*
X11111Y205602D01*
X11214Y205722D01*
X11315Y205845D01*
X11412Y205970D01*
X11506Y206097D01*
X11597Y206227D01*
X11684Y206359D01*
X11768Y206493D01*
X11849Y206629D01*
X11927Y206767D01*
X12001Y206907D01*
X12071Y207049D01*
X12138Y207192D01*
X12201Y207337D01*
X12261Y207484D01*
X12317Y207632D01*
X12369Y207782D01*
X12418Y207932D01*
X12463Y208084D01*
X12504Y208237D01*
X12541Y208391D01*
X12574Y208546D01*
X12604Y208701D01*
X12629Y208858D01*
X12651Y209014D01*
X12668Y209172D01*
X12682Y209329D01*
X12692Y209487D01*
X12698Y209646D01*
X12700Y209804D01*
X12698Y209962D01*
X12692Y210121D01*
X12682Y210279D01*
X12668Y210436D01*
X12651Y210594D01*
X12629Y210750D01*
X12604Y210907D01*
X12574Y211062D01*
X12541Y211217D01*
X12504Y211371D01*
X12463Y211524D01*
X12418Y211676D01*
X12369Y211826D01*
X12317Y211976D01*
X12261Y212124D01*
X12201Y212271D01*
X12138Y212416D01*
X12071Y212559D01*
X12001Y212701D01*
X11927Y212841D01*
X11849Y212979D01*
X11768Y213115D01*
X11684Y213249D01*
X11597Y213381D01*
X11506Y213511D01*
X11412Y213638D01*
X11315Y213763D01*
X11214Y213886D01*
X11111Y214006D01*
X11005Y214123D01*
X10896Y214238D01*
X10784Y214350D01*
X10669Y214459D01*
X10552Y214565D01*
X10432Y214668D01*
X10309Y214769D01*
X10184Y214866D01*
X10057Y214960D01*
X9927Y215051D01*
X9795Y215138D01*
X9661Y215222D01*
X9525Y215303D01*
X9387Y215381D01*
X9247Y215455D01*
X9105Y215525D01*
X8962Y215592D01*
X8817Y215655D01*
X8670Y215715D01*
X8522Y215771D01*
X8372Y215823D01*
X8222Y215872D01*
X8070Y215917D01*
X7917Y215958D01*
X7763Y215995D01*
X7608Y216028D01*
X7453Y216058D01*
X7296Y216083D01*
X7140Y216105D01*
X6982Y216122D01*
X6825Y216136D01*
X6667Y216146D01*
X6508Y216152D01*
X6350Y216154D01*
X5842Y203454D02*
X5842Y195024D01*
X5842Y216154D02*
X5842Y226203D01*
D16*
X13970Y237427D03*
X26670Y237427D03*
X39370Y237427D03*
X52070Y237427D03*
D17*
X26670Y181610D03*
X39370Y181610D03*
X52070Y181610D03*
X13970Y181610D03*
D12*
X26760Y169880D02*
X31660Y169880D01*
X31660Y165400D02*
X26760Y165400D01*
D14*
X33250Y167592D03*
X25122Y167592D03*
D12*
X57240Y165400D02*
X62140Y165400D01*
X62140Y169880D02*
X57240Y169880D01*
D14*
X55650Y167689D03*
X63778Y167689D03*
D12*
X61858Y176684D02*
X61858Y202084D01*
X79638Y204624D02*
X79738Y204622D01*
X79837Y204616D01*
X79937Y204606D01*
X80035Y204593D01*
X80134Y204575D01*
X80231Y204554D01*
X80327Y204529D01*
X80423Y204500D01*
X80517Y204467D01*
X80610Y204431D01*
X80701Y204391D01*
X80791Y204347D01*
X80879Y204300D01*
X80965Y204250D01*
X81049Y204196D01*
X81131Y204139D01*
X81210Y204079D01*
X81288Y204015D01*
X81362Y203949D01*
X81434Y203880D01*
X81503Y203808D01*
X81569Y203734D01*
X81633Y203656D01*
X81693Y203577D01*
X81750Y203495D01*
X81804Y203411D01*
X81854Y203325D01*
X81901Y203237D01*
X81945Y203147D01*
X81985Y203056D01*
X82021Y202963D01*
X82054Y202869D01*
X82083Y202773D01*
X82108Y202677D01*
X82129Y202580D01*
X82147Y202481D01*
X82160Y202383D01*
X82170Y202283D01*
X82176Y202184D01*
X82178Y202084D01*
X82178Y176684D02*
X82176Y176584D01*
X82170Y176485D01*
X82160Y176385D01*
X82147Y176287D01*
X82129Y176188D01*
X82108Y176091D01*
X82083Y175995D01*
X82054Y175899D01*
X82021Y175805D01*
X81985Y175712D01*
X81945Y175621D01*
X81901Y175531D01*
X81854Y175443D01*
X81804Y175357D01*
X81750Y175273D01*
X81693Y175191D01*
X81633Y175112D01*
X81569Y175034D01*
X81503Y174960D01*
X81434Y174888D01*
X81362Y174819D01*
X81288Y174753D01*
X81210Y174689D01*
X81131Y174629D01*
X81049Y174572D01*
X80965Y174518D01*
X80879Y174468D01*
X80791Y174421D01*
X80701Y174377D01*
X80610Y174337D01*
X80517Y174301D01*
X80423Y174268D01*
X80327Y174239D01*
X80231Y174214D01*
X80134Y174193D01*
X80035Y174175D01*
X79937Y174162D01*
X79837Y174152D01*
X79738Y174146D01*
X79638Y174144D01*
X64398Y174144D02*
X64298Y174146D01*
X64199Y174152D01*
X64099Y174162D01*
X64001Y174175D01*
X63902Y174193D01*
X63805Y174214D01*
X63709Y174239D01*
X63613Y174268D01*
X63519Y174301D01*
X63426Y174337D01*
X63335Y174377D01*
X63245Y174421D01*
X63157Y174468D01*
X63071Y174518D01*
X62987Y174572D01*
X62905Y174629D01*
X62826Y174689D01*
X62748Y174753D01*
X62674Y174819D01*
X62602Y174888D01*
X62533Y174960D01*
X62467Y175034D01*
X62403Y175112D01*
X62343Y175191D01*
X62286Y175273D01*
X62232Y175357D01*
X62182Y175443D01*
X62135Y175531D01*
X62091Y175621D01*
X62051Y175712D01*
X62015Y175805D01*
X61982Y175899D01*
X61953Y175995D01*
X61928Y176091D01*
X61907Y176188D01*
X61889Y176287D01*
X61876Y176385D01*
X61866Y176485D01*
X61860Y176584D01*
X61858Y176684D01*
X61858Y202084D02*
X61860Y202184D01*
X61866Y202283D01*
X61876Y202383D01*
X61889Y202481D01*
X61907Y202580D01*
X61928Y202677D01*
X61953Y202773D01*
X61982Y202869D01*
X62015Y202963D01*
X62051Y203056D01*
X62091Y203147D01*
X62135Y203237D01*
X62182Y203325D01*
X62232Y203411D01*
X62286Y203495D01*
X62343Y203577D01*
X62403Y203656D01*
X62467Y203734D01*
X62533Y203808D01*
X62602Y203880D01*
X62674Y203949D01*
X62748Y204015D01*
X62826Y204079D01*
X62905Y204139D01*
X62987Y204196D01*
X63071Y204250D01*
X63157Y204300D01*
X63245Y204347D01*
X63335Y204391D01*
X63426Y204431D01*
X63519Y204467D01*
X63613Y204500D01*
X63709Y204529D01*
X63805Y204554D01*
X63902Y204575D01*
X64001Y204593D01*
X64099Y204606D01*
X64199Y204616D01*
X64298Y204622D01*
X64398Y204624D01*
X79638Y204624D01*
X79638Y174144D02*
X64398Y174144D01*
X82178Y176684D02*
X82178Y202084D01*
M02*
