G04 EAGLE Gerber X2 export*
%TF.Part,Single*%
%TF.FileFunction,Paste,Bot*%
%TF.FilePolarity,Positive*%
%TF.GenerationSoftware,Autodesk,EAGLE,9.0.1*%
%TF.CreationDate,2018-09-05T19:34:14Z*%
G75*
%MOMM*%
%FSLAX34Y34*%
%LPD*%
%AMOC8*
5,1,8,0,0,1.08239X$1,22.5*%
G01*
%ADD10R,0.900000X0.700000*%
%ADD11R,1.000000X0.500000*%
%ADD12R,0.700000X0.900000*%
%ADD13R,1.000000X2.540000*%
%ADD14R,0.600000X1.200000*%
%ADD15R,0.750000X0.750000*%
%ADD16R,2.235200X2.057400*%


D10*
X78105Y225575D03*
X78105Y212575D03*
D11*
X18240Y292100D03*
X18240Y279400D03*
X18240Y266700D03*
X18240Y254000D03*
X18240Y304800D03*
X18240Y317500D03*
X18240Y330200D03*
X75740Y330200D03*
X75740Y317500D03*
X75740Y304800D03*
X75740Y292100D03*
X75740Y279400D03*
X75740Y266700D03*
X75740Y254000D03*
D12*
X81430Y241300D03*
X68430Y241300D03*
D13*
X85090Y147320D03*
X69850Y147320D03*
X54610Y147320D03*
X24130Y147320D03*
X39370Y147320D03*
X8890Y147320D03*
D14*
X13970Y237550D03*
X26670Y237550D03*
X39370Y237550D03*
X52070Y237550D03*
X52070Y181550D03*
X39370Y181550D03*
X26670Y181550D03*
X13970Y181550D03*
D15*
X86360Y335280D03*
X7620Y335280D03*
X86360Y293370D03*
X7620Y255270D03*
X86360Y266700D03*
X7620Y274320D03*
X86360Y189230D03*
X7620Y318770D03*
D12*
X35710Y167640D03*
X22710Y167640D03*
X53190Y167640D03*
X66190Y167640D03*
D16*
X72018Y195607D03*
M02*
