G04 EAGLE Gerber X2 export*
%TF.Part,Single*%
%TF.FileFunction,Paste,Top*%
%TF.FilePolarity,Positive*%
%TF.GenerationSoftware,Autodesk,EAGLE,9.0.1*%
%TF.CreationDate,2018-09-05T19:34:14Z*%
G75*
%MOMM*%
%FSLAX34Y34*%
%LPD*%
%AMOC8*
5,1,8,0,0,1.08239X$1,22.5*%
G01*
%ADD10R,2.250000X0.900000*%
%ADD11R,2.800000X0.900000*%
%ADD12R,0.900000X0.700000*%
%ADD13R,0.550000X1.200000*%
%ADD14R,1.270000X2.540000*%
%ADD15R,0.800000X0.350000*%
%ADD16R,1.000000X1.000000*%
%ADD17R,1.200000X0.550000*%
%ADD18R,0.800000X0.900000*%
%ADD19R,1.100000X1.000000*%


D10*
X20240Y257125D03*
X20240Y244625D03*
D11*
X22990Y231625D03*
D10*
X20240Y219125D03*
X73740Y219125D03*
X73740Y231625D03*
X73740Y244625D03*
X73740Y257125D03*
D12*
X69850Y277345D03*
X69850Y290345D03*
X81915Y277345D03*
X81915Y290345D03*
D13*
X66700Y307040D03*
X76200Y307040D03*
X85700Y307040D03*
X85700Y333040D03*
X76200Y333040D03*
X66700Y333040D03*
D14*
X73660Y147320D03*
X55880Y147320D03*
X38100Y147320D03*
X20320Y147320D03*
D15*
X42520Y184000D03*
X42520Y197000D03*
X23520Y197000D03*
X23520Y190500D03*
X23520Y184000D03*
D12*
X53340Y184000D03*
X53340Y197000D03*
D16*
X10160Y199000D03*
X10160Y182000D03*
D17*
X22560Y296520D03*
X22560Y287020D03*
X22560Y277520D03*
X48560Y277520D03*
X48560Y287020D03*
X48560Y296520D03*
D12*
X53340Y312270D03*
X53340Y325270D03*
X8890Y297330D03*
X8890Y284330D03*
D18*
X83160Y200500D03*
X64160Y200500D03*
X73660Y179500D03*
D16*
X12700Y315985D03*
X12700Y332985D03*
D19*
X35560Y315985D03*
X35560Y332985D03*
M02*
